ISO-10303-21;
HEADER;
/* Generated by software containing ST-Developer
 * from STEP Tools, Inc. (www.steptools.com) 
 */
/* OPTION: using custom renumber hook */

FILE_DESCRIPTION(
/* description */ ('STEP AP242 Edition 2',
'CAx-IF Rec.Pracs.---Representation and Presentation of Product Manufa
cturing Information (PMI)---4.0---2014-10-13',
'CAx-IF Rec.Pracs.---3D Tessellated Geometry---0.4---2014-09-14','2;1',
'CAx-IF Rec.Pracs.---User Defined Attributes---1.5---2016-08-15'),
/* implementation_level */ '2;1');

FILE_NAME(
/* name */ '6a0a4dec80c6824b4760afc6',
/* time_stamp */ '2026-05-17T23:23:24Z',
/* author */ (''),
/* organization */ (''),
/* preprocessor_version */ 'ST-DEVELOPER v20',
/* originating_system */ 'ONSHAPE BY PTC INC, 1.215',
/* authorisation */ '  ');

FILE_SCHEMA (('AP242_MANAGED_MODEL_BASED_3D_ENGINEERING_MIM_LF { 1 0 10303 442 3 1 4 }'));
ENDSEC;

DATA;
#10=CONTEXT_DEPENDENT_SHAPE_REPRESENTATION(#12,#762);
#11=NEXT_ASSEMBLY_USAGE_OCCURRENCE('NAUO1','Part 1','Part 1',#763,#764,
'');
#12=(
REPRESENTATION_RELATIONSHIP(' ',' ',#435,#434)
REPRESENTATION_RELATIONSHIP_WITH_TRANSFORMATION(#13)
SHAPE_REPRESENTATION_RELATIONSHIP()
);
#13=ITEM_DEFINED_TRANSFORMATION(' ',' ',#436,#492);
#14=SHAPE_REPRESENTATION_RELATIONSHIP('','',#435,#15);
#15=ADVANCED_BREP_SHAPE_REPRESENTATION('',(#431),#754);
#16=SPHERICAL_SURFACE('',#468,0.002);
#17=SPHERICAL_SURFACE('',#479,0.002);
#18=SPHERICAL_SURFACE('',#482,0.002);
#19=SPHERICAL_SURFACE('',#491,0.002);
#20=LINE('',#653,#44);
#21=LINE('',#658,#45);
#22=LINE('',#662,#46);
#23=LINE('',#666,#47);
#24=LINE('',#670,#48);
#25=LINE('',#673,#49);
#26=LINE('',#675,#50);
#27=LINE('',#677,#51);
#28=LINE('',#679,#52);
#29=LINE('',#681,#53);
#30=LINE('',#683,#54);
#31=LINE('',#685,#55);
#32=LINE('',#687,#56);
#33=LINE('',#689,#57);
#34=LINE('',#691,#58);
#35=LINE('',#694,#59);
#36=LINE('',#695,#60);
#37=LINE('',#697,#61);
#38=LINE('',#700,#62);
#39=LINE('',#701,#63);
#40=LINE('',#703,#64);
#41=LINE('',#706,#65);
#42=LINE('',#708,#66);
#43=LINE('',#710,#67);
#44=VECTOR('',#521,1.);
#45=VECTOR('',#524,1.);
#46=VECTOR('',#527,1.);
#47=VECTOR('',#530,1.);
#48=VECTOR('',#535,1.);
#49=VECTOR('',#536,1.);
#50=VECTOR('',#537,1.);
#51=VECTOR('',#538,1.);
#52=VECTOR('',#541,1.);
#53=VECTOR('',#542,1.);
#54=VECTOR('',#543,1.);
#55=VECTOR('',#546,1.);
#56=VECTOR('',#547,1.);
#57=VECTOR('',#548,1.);
#58=VECTOR('',#551,1.);
#59=VECTOR('',#552,1.);
#60=VECTOR('',#553,1.);
#61=VECTOR('',#556,1.);
#62=VECTOR('',#557,1.);
#63=VECTOR('',#558,1.);
#64=VECTOR('',#561,1.);
#65=VECTOR('',#562,1.);
#66=VECTOR('',#563,1.);
#67=VECTOR('',#564,1.);
#68=PLANE('',#449);
#69=PLANE('',#454);
#70=PLANE('',#455);
#71=PLANE('',#456);
#72=PLANE('',#457);
#73=PLANE('',#458);
#74=PLANE('',#459);
#75=ORIENTED_EDGE('',*,*,#187,.T.);
#76=ORIENTED_EDGE('',*,*,#188,.F.);
#77=ORIENTED_EDGE('',*,*,#189,.T.);
#78=ORIENTED_EDGE('',*,*,#190,.F.);
#79=ORIENTED_EDGE('',*,*,#191,.T.);
#80=ORIENTED_EDGE('',*,*,#192,.F.);
#81=ORIENTED_EDGE('',*,*,#193,.T.);
#82=ORIENTED_EDGE('',*,*,#194,.F.);
#83=ORIENTED_EDGE('',*,*,#195,.F.);
#84=ORIENTED_EDGE('',*,*,#196,.T.);
#85=ORIENTED_EDGE('',*,*,#197,.F.);
#86=ORIENTED_EDGE('',*,*,#198,.T.);
#87=ORIENTED_EDGE('',*,*,#199,.T.);
#88=ORIENTED_EDGE('',*,*,#200,.T.);
#89=ORIENTED_EDGE('',*,*,#201,.T.);
#90=ORIENTED_EDGE('',*,*,#202,.T.);
#91=ORIENTED_EDGE('',*,*,#191,.F.);
#92=ORIENTED_EDGE('',*,*,#189,.F.);
#93=ORIENTED_EDGE('',*,*,#187,.F.);
#94=ORIENTED_EDGE('',*,*,#193,.F.);
#95=ORIENTED_EDGE('',*,*,#203,.T.);
#96=ORIENTED_EDGE('',*,*,#204,.T.);
#97=ORIENTED_EDGE('',*,*,#205,.T.);
#98=ORIENTED_EDGE('',*,*,#206,.T.);
#99=ORIENTED_EDGE('',*,*,#192,.T.);
#100=ORIENTED_EDGE('',*,*,#190,.T.);
#101=ORIENTED_EDGE('',*,*,#188,.T.);
#102=ORIENTED_EDGE('',*,*,#194,.T.);
#103=ORIENTED_EDGE('',*,*,#197,.T.);
#104=ORIENTED_EDGE('',*,*,#207,.T.);
#105=ORIENTED_EDGE('',*,*,#208,.F.);
#106=ORIENTED_EDGE('',*,*,#209,.T.);
#107=ORIENTED_EDGE('',*,*,#199,.F.);
#108=ORIENTED_EDGE('',*,*,#210,.T.);
#109=ORIENTED_EDGE('',*,*,#211,.T.);
#110=ORIENTED_EDGE('',*,*,#212,.T.);
#111=ORIENTED_EDGE('',*,*,#213,.T.);
#112=ORIENTED_EDGE('',*,*,#214,.T.);
#113=ORIENTED_EDGE('',*,*,#201,.F.);
#114=ORIENTED_EDGE('',*,*,#215,.T.);
#115=ORIENTED_EDGE('',*,*,#216,.F.);
#116=ORIENTED_EDGE('',*,*,#217,.T.);
#117=ORIENTED_EDGE('',*,*,#195,.T.);
#118=ORIENTED_EDGE('',*,*,#218,.T.);
#119=ORIENTED_EDGE('',*,*,#219,.T.);
#120=ORIENTED_EDGE('',*,*,#220,.T.);
#121=ORIENTED_EDGE('',*,*,#221,.T.);
#122=ORIENTED_EDGE('',*,*,#222,.T.);
#123=ORIENTED_EDGE('',*,*,#211,.F.);
#124=ORIENTED_EDGE('',*,*,#223,.T.);
#125=ORIENTED_EDGE('',*,*,#208,.T.);
#126=ORIENTED_EDGE('',*,*,#224,.T.);
#127=ORIENTED_EDGE('',*,*,#216,.T.);
#128=ORIENTED_EDGE('',*,*,#225,.T.);
#129=ORIENTED_EDGE('',*,*,#213,.F.);
#130=ORIENTED_EDGE('',*,*,#226,.T.);
#131=ORIENTED_EDGE('',*,*,#224,.F.);
#132=ORIENTED_EDGE('',*,*,#207,.F.);
#133=ORIENTED_EDGE('',*,*,#196,.F.);
#134=ORIENTED_EDGE('',*,*,#217,.F.);
#135=ORIENTED_EDGE('',*,*,#223,.F.);
#136=ORIENTED_EDGE('',*,*,#210,.F.);
#137=ORIENTED_EDGE('',*,*,#198,.F.);
#138=ORIENTED_EDGE('',*,*,#209,.F.);
#139=ORIENTED_EDGE('',*,*,#225,.F.);
#140=ORIENTED_EDGE('',*,*,#218,.F.);
#141=ORIENTED_EDGE('',*,*,#202,.F.);
#142=ORIENTED_EDGE('',*,*,#214,.F.);
#143=ORIENTED_EDGE('',*,*,#226,.F.);
#144=ORIENTED_EDGE('',*,*,#215,.F.);
#145=ORIENTED_EDGE('',*,*,#200,.F.);
#146=ORIENTED_EDGE('',*,*,#212,.F.);
#147=ORIENTED_EDGE('',*,*,#227,.F.);
#148=ORIENTED_EDGE('',*,*,#228,.F.);
#149=ORIENTED_EDGE('',*,*,#229,.T.);
#150=ORIENTED_EDGE('',*,*,#230,.F.);
#151=ORIENTED_EDGE('',*,*,#230,.T.);
#152=ORIENTED_EDGE('',*,*,#229,.F.);
#153=ORIENTED_EDGE('',*,*,#222,.F.);
#154=ORIENTED_EDGE('',*,*,#231,.T.);
#155=ORIENTED_EDGE('',*,*,#232,.F.);
#156=ORIENTED_EDGE('',*,*,#206,.F.);
#157=ORIENTED_EDGE('',*,*,#227,.T.);
#158=ORIENTED_EDGE('',*,*,#205,.F.);
#159=ORIENTED_EDGE('',*,*,#233,.F.);
#160=ORIENTED_EDGE('',*,*,#234,.F.);
#161=ORIENTED_EDGE('',*,*,#219,.F.);
#162=ORIENTED_EDGE('',*,*,#228,.T.);
#163=ORIENTED_EDGE('',*,*,#232,.T.);
#164=ORIENTED_EDGE('',*,*,#231,.F.);
#165=ORIENTED_EDGE('',*,*,#235,.F.);
#166=ORIENTED_EDGE('',*,*,#236,.F.);
#167=ORIENTED_EDGE('',*,*,#237,.F.);
#168=ORIENTED_EDGE('',*,*,#238,.T.);
#169=ORIENTED_EDGE('',*,*,#234,.T.);
#170=ORIENTED_EDGE('',*,*,#233,.T.);
#171=ORIENTED_EDGE('',*,*,#236,.T.);
#172=ORIENTED_EDGE('',*,*,#235,.T.);
#173=ORIENTED_EDGE('',*,*,#221,.F.);
#174=ORIENTED_EDGE('',*,*,#239,.F.);
#175=ORIENTED_EDGE('',*,*,#240,.F.);
#176=ORIENTED_EDGE('',*,*,#203,.F.);
#177=ORIENTED_EDGE('',*,*,#237,.T.);
#178=ORIENTED_EDGE('',*,*,#204,.F.);
#179=ORIENTED_EDGE('',*,*,#241,.F.);
#180=ORIENTED_EDGE('',*,*,#242,.T.);
#181=ORIENTED_EDGE('',*,*,#220,.F.);
#182=ORIENTED_EDGE('',*,*,#238,.F.);
#183=ORIENTED_EDGE('',*,*,#240,.T.);
#184=ORIENTED_EDGE('',*,*,#239,.T.);
#185=ORIENTED_EDGE('',*,*,#242,.F.);
#186=ORIENTED_EDGE('',*,*,#241,.T.);
#187=EDGE_CURVE('',#243,#243,#283,.T.);
#188=EDGE_CURVE('',#244,#244,#284,.T.);
#189=EDGE_CURVE('',#245,#245,#285,.T.);
#190=EDGE_CURVE('',#246,#246,#286,.T.);
#191=EDGE_CURVE('',#247,#247,#287,.T.);
#192=EDGE_CURVE('',#248,#248,#288,.T.);
#193=EDGE_CURVE('',#249,#249,#289,.T.);
#194=EDGE_CURVE('',#250,#250,#290,.T.);
#195=EDGE_CURVE('',#251,#252,#20,.T.);
#196=EDGE_CURVE('',#251,#253,#291,.T.);
#197=EDGE_CURVE('',#254,#253,#21,.T.);
#198=EDGE_CURVE('',#254,#255,#292,.T.);
#199=EDGE_CURVE('',#255,#256,#22,.T.);
#200=EDGE_CURVE('',#256,#257,#293,.T.);
#201=EDGE_CURVE('',#257,#258,#23,.T.);
#202=EDGE_CURVE('',#258,#252,#294,.T.);
#203=EDGE_CURVE('',#259,#260,#24,.F.);
#204=EDGE_CURVE('',#260,#261,#25,.T.);
#205=EDGE_CURVE('',#261,#262,#26,.T.);
#206=EDGE_CURVE('',#262,#259,#27,.F.);
#207=EDGE_CURVE('',#253,#263,#28,.F.);
#208=EDGE_CURVE('',#264,#263,#29,.T.);
#209=EDGE_CURVE('',#264,#254,#30,.T.);
#210=EDGE_CURVE('',#255,#265,#31,.F.);
#211=EDGE_CURVE('',#265,#266,#32,.T.);
#212=EDGE_CURVE('',#266,#256,#33,.T.);
#213=EDGE_CURVE('',#267,#268,#34,.T.);
#214=EDGE_CURVE('',#268,#258,#35,.T.);
#215=EDGE_CURVE('',#257,#267,#36,.F.);
#216=EDGE_CURVE('',#269,#270,#37,.T.);
#217=EDGE_CURVE('',#269,#251,#38,.T.);
#218=EDGE_CURVE('',#252,#270,#39,.F.);
#219=EDGE_CURVE('',#271,#272,#40,.F.);
#220=EDGE_CURVE('',#272,#273,#41,.F.);
#221=EDGE_CURVE('',#273,#274,#42,.T.);
#222=EDGE_CURVE('',#274,#271,#43,.T.);
#223=EDGE_CURVE('',#265,#264,#295,.F.);
#224=EDGE_CURVE('',#263,#269,#296,.F.);
#225=EDGE_CURVE('',#270,#268,#297,.F.);
#226=EDGE_CURVE('',#267,#266,#298,.F.);
#227=EDGE_CURVE('',#275,#262,#299,.T.);
#228=EDGE_CURVE('',#271,#275,#300,.T.);
#229=EDGE_CURVE('',#271,#276,#301,.T.);
#230=EDGE_CURVE('',#262,#276,#302,.T.);
#231=EDGE_CURVE('',#274,#277,#303,.T.);
#232=EDGE_CURVE('',#259,#277,#304,.T.);
#233=EDGE_CURVE('',#278,#261,#305,.T.);
#234=EDGE_CURVE('',#272,#278,#306,.T.);
#235=EDGE_CURVE('',#279,#274,#307,.T.);
#236=EDGE_CURVE('',#259,#279,#308,.T.);
#237=EDGE_CURVE('',#280,#261,#309,.T.);
#238=EDGE_CURVE('',#280,#272,#310,.T.);
#239=EDGE_CURVE('',#281,#273,#311,.T.);
#240=EDGE_CURVE('',#260,#281,#312,.T.);
#241=EDGE_CURVE('',#282,#260,#313,.T.);
#242=EDGE_CURVE('',#282,#273,#314,.T.);
#243=VERTEX_POINT('',#634);
#244=VERTEX_POINT('',#636);
#245=VERTEX_POINT('',#639);
#246=VERTEX_POINT('',#641);
#247=VERTEX_POINT('',#644);
#248=VERTEX_POINT('',#646);
#249=VERTEX_POINT('',#649);
#250=VERTEX_POINT('',#651);
#251=VERTEX_POINT('',#654);
#252=VERTEX_POINT('',#655);
#253=VERTEX_POINT('',#657);
#254=VERTEX_POINT('',#659);
#255=VERTEX_POINT('',#661);
#256=VERTEX_POINT('',#663);
#257=VERTEX_POINT('',#665);
#258=VERTEX_POINT('',#667);
#259=VERTEX_POINT('',#671);
#260=VERTEX_POINT('',#672);
#261=VERTEX_POINT('',#674);
#262=VERTEX_POINT('',#676);
#263=VERTEX_POINT('',#680);
#264=VERTEX_POINT('',#682);
#265=VERTEX_POINT('',#686);
#266=VERTEX_POINT('',#688);
#267=VERTEX_POINT('',#692);
#268=VERTEX_POINT('',#693);
#269=VERTEX_POINT('',#698);
#270=VERTEX_POINT('',#699);
#271=VERTEX_POINT('',#704);
#272=VERTEX_POINT('',#705);
#273=VERTEX_POINT('',#707);
#274=VERTEX_POINT('',#709);
#275=VERTEX_POINT('',#721);
#276=VERTEX_POINT('',#724);
#277=VERTEX_POINT('',#728);
#278=VERTEX_POINT('',#732);
#279=VERTEX_POINT('',#736);
#280=VERTEX_POINT('',#740);
#281=VERTEX_POINT('',#744);
#282=VERTEX_POINT('',#748);
#283=CIRCLE('',#438,0.00095);
#284=CIRCLE('',#439,0.00095);
#285=CIRCLE('',#441,0.00095);
#286=CIRCLE('',#442,0.00095);
#287=CIRCLE('',#444,0.00095);
#288=CIRCLE('',#445,0.00095);
#289=CIRCLE('',#447,0.00095);
#290=CIRCLE('',#448,0.00095);
#291=CIRCLE('',#450,0.002);
#292=CIRCLE('',#451,0.002);
#293=CIRCLE('',#452,0.002);
#294=CIRCLE('',#453,0.002);
#295=CIRCLE('',#460,0.002);
#296=CIRCLE('',#461,0.002);
#297=CIRCLE('',#462,0.002);
#298=CIRCLE('',#463,0.002);
#299=CIRCLE('',#469,0.002);
#300=CIRCLE('',#470,0.002);
#301=CIRCLE('',#471,0.002);
#302=CIRCLE('',#472,0.002);
#303=CIRCLE('',#474,0.002);
#304=CIRCLE('',#475,0.002);
#305=CIRCLE('',#477,0.002);
#306=CIRCLE('',#478,0.002);
#307=CIRCLE('',#480,0.002);
#308=CIRCLE('',#481,0.002);
#309=CIRCLE('',#483,0.002);
#310=CIRCLE('',#484,0.002);
#311=CIRCLE('',#486,0.002);
#312=CIRCLE('',#487,0.002);
#313=CIRCLE('',#489,0.002);
#314=CIRCLE('',#490,0.002);
#315=EDGE_LOOP('',(#75));
#316=EDGE_LOOP('',(#76));
#317=EDGE_LOOP('',(#77));
#318=EDGE_LOOP('',(#78));
#319=EDGE_LOOP('',(#79));
#320=EDGE_LOOP('',(#80));
#321=EDGE_LOOP('',(#81));
#322=EDGE_LOOP('',(#82));
#323=EDGE_LOOP('',(#83,#84,#85,#86,#87,#88,#89,#90));
#324=EDGE_LOOP('',(#91));
#325=EDGE_LOOP('',(#92));
#326=EDGE_LOOP('',(#93));
#327=EDGE_LOOP('',(#94));
#328=EDGE_LOOP('',(#95,#96,#97,#98));
#329=EDGE_LOOP('',(#99));
#330=EDGE_LOOP('',(#100));
#331=EDGE_LOOP('',(#101));
#332=EDGE_LOOP('',(#102));
#333=EDGE_LOOP('',(#103,#104,#105,#106));
#334=EDGE_LOOP('',(#107,#108,#109,#110));
#335=EDGE_LOOP('',(#111,#112,#113,#114));
#336=EDGE_LOOP('',(#115,#116,#117,#118));
#337=EDGE_LOOP('',(#119,#120,#121,#122));
#338=EDGE_LOOP('',(#123,#124,#125,#126,#127,#128,#129,#130));
#339=EDGE_LOOP('',(#131,#132,#133,#134));
#340=EDGE_LOOP('',(#135,#136,#137,#138));
#341=EDGE_LOOP('',(#139,#140,#141,#142));
#342=EDGE_LOOP('',(#143,#144,#145,#146));
#343=EDGE_LOOP('',(#147,#148,#149,#150));
#344=EDGE_LOOP('',(#151,#152,#153,#154,#155,#156));
#345=EDGE_LOOP('',(#157,#158,#159,#160,#161,#162));
#346=EDGE_LOOP('',(#163,#164,#165,#166));
#347=EDGE_LOOP('',(#167,#168,#169,#170));
#348=EDGE_LOOP('',(#171,#172,#173,#174,#175,#176));
#349=EDGE_LOOP('',(#177,#178,#179,#180,#181,#182));
#350=EDGE_LOOP('',(#183,#184,#185,#186));
#351=FACE_BOUND('',#315,.T.);
#352=FACE_BOUND('',#316,.T.);
#353=FACE_BOUND('',#317,.T.);
#354=FACE_BOUND('',#318,.T.);
#355=FACE_BOUND('',#319,.T.);
#356=FACE_BOUND('',#320,.T.);
#357=FACE_BOUND('',#321,.T.);
#358=FACE_BOUND('',#322,.T.);
#359=FACE_BOUND('',#323,.T.);
#360=FACE_BOUND('',#324,.T.);
#361=FACE_BOUND('',#325,.T.);
#362=FACE_BOUND('',#326,.T.);
#363=FACE_BOUND('',#327,.T.);
#364=FACE_BOUND('',#328,.T.);
#365=FACE_BOUND('',#329,.T.);
#366=FACE_BOUND('',#330,.T.);
#367=FACE_BOUND('',#331,.T.);
#368=FACE_BOUND('',#332,.T.);
#369=FACE_BOUND('',#333,.T.);
#370=FACE_BOUND('',#334,.T.);
#371=FACE_BOUND('',#335,.T.);
#372=FACE_BOUND('',#336,.T.);
#373=FACE_BOUND('',#337,.T.);
#374=FACE_BOUND('',#338,.T.);
#375=FACE_BOUND('',#339,.T.);
#376=FACE_BOUND('',#340,.T.);
#377=FACE_BOUND('',#341,.T.);
#378=FACE_BOUND('',#342,.T.);
#379=FACE_BOUND('',#343,.T.);
#380=FACE_BOUND('',#344,.T.);
#381=FACE_BOUND('',#345,.T.);
#382=FACE_BOUND('',#346,.T.);
#383=FACE_BOUND('',#347,.T.);
#384=FACE_BOUND('',#348,.T.);
#385=FACE_BOUND('',#349,.T.);
#386=FACE_BOUND('',#350,.T.);
#387=CYLINDRICAL_SURFACE('',#437,0.00095);
#388=CYLINDRICAL_SURFACE('',#440,0.00095);
#389=CYLINDRICAL_SURFACE('',#443,0.00095);
#390=CYLINDRICAL_SURFACE('',#446,0.00095);
#391=CYLINDRICAL_SURFACE('',#464,0.002);
#392=CYLINDRICAL_SURFACE('',#465,0.002);
#393=CYLINDRICAL_SURFACE('',#466,0.002);
#394=CYLINDRICAL_SURFACE('',#467,0.002);
#395=CYLINDRICAL_SURFACE('',#473,0.002);
#396=CYLINDRICAL_SURFACE('',#476,0.002);
#397=CYLINDRICAL_SURFACE('',#485,0.002);
#398=CYLINDRICAL_SURFACE('',#488,0.002);
#399=ADVANCED_FACE('',(#351,#352),#387,.F.);
#400=ADVANCED_FACE('',(#353,#354),#388,.F.);
#401=ADVANCED_FACE('',(#355,#356),#389,.F.);
#402=ADVANCED_FACE('',(#357,#358),#390,.F.);
#403=ADVANCED_FACE('',(#359,#360,#361,#362,#363),#68,.T.);
#404=ADVANCED_FACE('',(#364,#365,#366,#367,#368),#69,.F.);
#405=ADVANCED_FACE('',(#369),#70,.F.);
#406=ADVANCED_FACE('',(#370),#71,.T.);
#407=ADVANCED_FACE('',(#371),#72,.T.);
#408=ADVANCED_FACE('',(#372),#73,.F.);
#409=ADVANCED_FACE('',(#373,#374),#74,.T.);
#410=ADVANCED_FACE('',(#375),#391,.F.);
#411=ADVANCED_FACE('',(#376),#392,.F.);
#412=ADVANCED_FACE('',(#377),#393,.F.);
#413=ADVANCED_FACE('',(#378),#394,.F.);
#414=ADVANCED_FACE('',(#379),#16,.T.);
#415=ADVANCED_FACE('',(#380),#395,.T.);
#416=ADVANCED_FACE('',(#381),#396,.T.);
#417=ADVANCED_FACE('',(#382),#17,.T.);
#418=ADVANCED_FACE('',(#383),#18,.T.);
#419=ADVANCED_FACE('',(#384),#397,.T.);
#420=ADVANCED_FACE('',(#385),#398,.T.);
#421=ADVANCED_FACE('',(#386),#19,.T.);
#422=CLOSED_SHELL('',(#399,#400,#401,#402,#403,#404,#405,#406,#407,#408,
#409,#410,#411,#412,#413,#414,#415,#416,#417,#418,#419,#420,#421));
#423=STYLED_ITEM('',(#424),#431);
#424=PRESENTATION_STYLE_ASSIGNMENT((#425));
#425=SURFACE_STYLE_USAGE(.BOTH.,#426);
#426=SURFACE_SIDE_STYLE('',(#427));
#427=SURFACE_STYLE_FILL_AREA(#428);
#428=FILL_AREA_STYLE('',(#429));
#429=FILL_AREA_STYLE_COLOUR('',#430);
#430=COLOUR_RGB('',0.301960784313725,0.301960784313725,0.301960784313725);
#431=MANIFOLD_SOLID_BREP('Part 1',#422);
#432=SHAPE_DEFINITION_REPRESENTATION(#760,#434);
#433=SHAPE_DEFINITION_REPRESENTATION(#761,#435);
#434=SHAPE_REPRESENTATION('Assembly 2',(#436,#492),#753);
#435=SHAPE_REPRESENTATION('Part 1',(#436),#754);
#436=AXIS2_PLACEMENT_3D('',#631,#493,#494);
#437=AXIS2_PLACEMENT_3D('',#632,#495,#496);
#438=AXIS2_PLACEMENT_3D('',#633,#497,#498);
#439=AXIS2_PLACEMENT_3D('',#635,#499,#500);
#440=AXIS2_PLACEMENT_3D('',#637,#501,#502);
#441=AXIS2_PLACEMENT_3D('',#638,#503,#504);
#442=AXIS2_PLACEMENT_3D('',#640,#505,#506);
#443=AXIS2_PLACEMENT_3D('',#642,#507,#508);
#444=AXIS2_PLACEMENT_3D('',#643,#509,#510);
#445=AXIS2_PLACEMENT_3D('',#645,#511,#512);
#446=AXIS2_PLACEMENT_3D('',#647,#513,#514);
#447=AXIS2_PLACEMENT_3D('',#648,#515,#516);
#448=AXIS2_PLACEMENT_3D('',#650,#517,#518);
#449=AXIS2_PLACEMENT_3D('',#652,#519,#520);
#450=AXIS2_PLACEMENT_3D('',#656,#522,#523);
#451=AXIS2_PLACEMENT_3D('',#660,#525,#526);
#452=AXIS2_PLACEMENT_3D('',#664,#528,#529);
#453=AXIS2_PLACEMENT_3D('',#668,#531,#532);
#454=AXIS2_PLACEMENT_3D('',#669,#533,#534);
#455=AXIS2_PLACEMENT_3D('',#678,#539,#540);
#456=AXIS2_PLACEMENT_3D('',#684,#544,#545);
#457=AXIS2_PLACEMENT_3D('',#690,#549,#550);
#458=AXIS2_PLACEMENT_3D('',#696,#554,#555);
#459=AXIS2_PLACEMENT_3D('',#702,#559,#560);
#460=AXIS2_PLACEMENT_3D('',#711,#565,#566);
#461=AXIS2_PLACEMENT_3D('',#712,#567,#568);
#462=AXIS2_PLACEMENT_3D('',#713,#569,#570);
#463=AXIS2_PLACEMENT_3D('',#714,#571,#572);
#464=AXIS2_PLACEMENT_3D('',#715,#573,#574);
#465=AXIS2_PLACEMENT_3D('',#716,#575,#576);
#466=AXIS2_PLACEMENT_3D('',#717,#577,#578);
#467=AXIS2_PLACEMENT_3D('',#718,#579,#580);
#468=AXIS2_PLACEMENT_3D('',#719,#581,#582);
#469=AXIS2_PLACEMENT_3D('',#720,#583,#584);
#470=AXIS2_PLACEMENT_3D('',#722,#585,#586);
#471=AXIS2_PLACEMENT_3D('',#723,#587,#588);
#472=AXIS2_PLACEMENT_3D('',#725,#589,#590);
#473=AXIS2_PLACEMENT_3D('',#726,#591,#592);
#474=AXIS2_PLACEMENT_3D('',#727,#593,#594);
#475=AXIS2_PLACEMENT_3D('',#729,#595,#596);
#476=AXIS2_PLACEMENT_3D('',#730,#597,#598);
#477=AXIS2_PLACEMENT_3D('',#731,#599,#600);
#478=AXIS2_PLACEMENT_3D('',#733,#601,#602);
#479=AXIS2_PLACEMENT_3D('',#734,#603,#604);
#480=AXIS2_PLACEMENT_3D('',#735,#605,#606);
#481=AXIS2_PLACEMENT_3D('',#737,#607,#608);
#482=AXIS2_PLACEMENT_3D('',#738,#609,#610);
#483=AXIS2_PLACEMENT_3D('',#739,#611,#612);
#484=AXIS2_PLACEMENT_3D('',#741,#613,#614);
#485=AXIS2_PLACEMENT_3D('',#742,#615,#616);
#486=AXIS2_PLACEMENT_3D('',#743,#617,#618);
#487=AXIS2_PLACEMENT_3D('',#745,#619,#620);
#488=AXIS2_PLACEMENT_3D('',#746,#621,#622);
#489=AXIS2_PLACEMENT_3D('',#747,#623,#624);
#490=AXIS2_PLACEMENT_3D('',#749,#625,#626);
#491=AXIS2_PLACEMENT_3D('',#750,#627,#628);
#492=AXIS2_PLACEMENT_3D('',#751,#629,#630);
#493=DIRECTION('',(0.,0.,1.));
#494=DIRECTION('',(1.,0.,0.));
#495=DIRECTION('',(0.,0.,-1.));
#496=DIRECTION('',(-1.,0.,0.));
#497=DIRECTION('',(0.,0.,1.));
#498=DIRECTION('',(1.,0.,0.));
#499=DIRECTION('',(0.,0.,1.));
#500=DIRECTION('',(1.,0.,0.));
#501=DIRECTION('',(0.,0.,-1.));
#502=DIRECTION('',(-1.,0.,0.));
#503=DIRECTION('',(0.,0.,1.));
#504=DIRECTION('',(1.,0.,0.));
#505=DIRECTION('',(0.,0.,1.));
#506=DIRECTION('',(1.,0.,0.));
#507=DIRECTION('',(0.,0.,-1.));
#508=DIRECTION('',(-1.,0.,0.));
#509=DIRECTION('',(0.,0.,1.));
#510=DIRECTION('',(1.,0.,0.));
#511=DIRECTION('',(0.,0.,1.));
#512=DIRECTION('',(1.,0.,0.));
#513=DIRECTION('',(0.,0.,-1.));
#514=DIRECTION('',(-1.,0.,0.));
#515=DIRECTION('',(0.,0.,1.));
#516=DIRECTION('',(1.,0.,0.));
#517=DIRECTION('',(0.,0.,1.));
#518=DIRECTION('',(1.,0.,0.));
#519=DIRECTION('',(0.,0.,1.));
#520=DIRECTION('',(1.,0.,0.));
#521=DIRECTION('',(-1.,-1.40938941853227E-16,0.));
#522=DIRECTION('',(0.,0.,1.));
#523=DIRECTION('',(1.,0.,0.));
#524=DIRECTION('',(0.,-1.,0.));
#525=DIRECTION('',(0.,0.,1.));
#526=DIRECTION('',(1.,0.,0.));
#527=DIRECTION('',(-1.,-1.17449118211023E-16,0.));
#528=DIRECTION('',(0.,0.,1.));
#529=DIRECTION('',(1.,0.,0.));
#530=DIRECTION('',(0.,-1.,0.));
#531=DIRECTION('',(0.,0.,1.));
#532=DIRECTION('',(1.,0.,0.));
#533=DIRECTION('',(0.,0.,1.));
#534=DIRECTION('',(1.,0.,0.));
#535=DIRECTION('',(-1.,0.,0.));
#536=DIRECTION('',(0.,-1.,0.));
#537=DIRECTION('',(-1.,0.,0.));
#538=DIRECTION('',(0.,-1.,0.));
#539=DIRECTION('',(1.,0.,0.));
#540=DIRECTION('',(0.,0.,-1.));
#541=DIRECTION('',(0.,0.,-1.));
#542=DIRECTION('',(0.,-1.,0.));
#543=DIRECTION('',(0.,0.,-1.));
#544=DIRECTION('',(1.17449118211023E-16,-1.,0.));
#545=DIRECTION('',(1.,1.17449118211023E-16,0.));
#546=DIRECTION('',(0.,0.,-1.));
#547=DIRECTION('',(-1.,-1.17449118211023E-16,0.));
#548=DIRECTION('',(0.,0.,-1.));
#549=DIRECTION('',(1.,0.,0.));
#550=DIRECTION('',(0.,0.,-1.));
#551=DIRECTION('',(0.,-1.,0.));
#552=DIRECTION('',(0.,0.,-1.));
#553=DIRECTION('',(0.,0.,-1.));
#554=DIRECTION('',(1.40938941853227E-16,-1.,0.));
#555=DIRECTION('',(1.,1.40938941853227E-16,0.));
#556=DIRECTION('',(-1.,-1.40938941853227E-16,0.));
#557=DIRECTION('',(0.,0.,-1.));
#558=DIRECTION('',(0.,0.,-1.));
#559=DIRECTION('',(0.,0.,1.));
#560=DIRECTION('',(1.,0.,0.));
#561=DIRECTION('',(-1.,0.,0.));
#562=DIRECTION('',(0.,-1.,0.));
#563=DIRECTION('',(-1.,0.,0.));
#564=DIRECTION('',(0.,-1.,0.));
#565=DIRECTION('',(0.,0.,1.));
#566=DIRECTION('',(1.,0.,0.));
#567=DIRECTION('',(0.,0.,1.));
#568=DIRECTION('',(1.,0.,0.));
#569=DIRECTION('',(0.,0.,1.));
#570=DIRECTION('',(1.,0.,0.));
#571=DIRECTION('',(0.,0.,1.));
#572=DIRECTION('',(1.,0.,0.));
#573=DIRECTION('',(0.,0.,1.));
#574=DIRECTION('',(1.,0.,0.));
#575=DIRECTION('',(0.,0.,-1.));
#576=DIRECTION('',(-1.,0.,0.));
#577=DIRECTION('',(0.,0.,-1.));
#578=DIRECTION('',(-1.,0.,0.));
#579=DIRECTION('',(0.,0.,1.));
#580=DIRECTION('',(1.,0.,0.));
#581=DIRECTION('',(0.,0.,1.));
#582=DIRECTION('',(1.,0.,0.));
#583=DIRECTION('',(1.,0.,0.));
#584=DIRECTION('',(0.,0.,-1.));
#585=DIRECTION('',(1.,0.,0.));
#586=DIRECTION('',(0.,0.,-1.));
#587=DIRECTION('',(0.,-1.,0.));
#588=DIRECTION('',(0.,0.,-1.));
#589=DIRECTION('',(0.,1.,0.));
#590=DIRECTION('',(0.,0.,1.));
#591=DIRECTION('',(0.,-1.,0.));
#592=DIRECTION('',(0.,0.,-1.));
#593=DIRECTION('',(0.,-1.,0.));
#594=DIRECTION('',(0.,0.,-1.));
#595=DIRECTION('',(0.,1.,0.));
#596=DIRECTION('',(0.,0.,1.));
#597=DIRECTION('',(1.,0.,0.));
#598=DIRECTION('',(0.,0.,-1.));
#599=DIRECTION('',(1.,0.,0.));
#600=DIRECTION('',(0.,0.,-1.));
#601=DIRECTION('',(1.,0.,0.));
#602=DIRECTION('',(0.,0.,-1.));
#603=DIRECTION('',(0.,0.,1.));
#604=DIRECTION('',(1.,0.,0.));
#605=DIRECTION('',(1.,0.,0.));
#606=DIRECTION('',(0.,0.,-1.));
#607=DIRECTION('',(1.,0.,0.));
#608=DIRECTION('',(0.,0.,-1.));
#609=DIRECTION('',(0.,0.,1.));
#610=DIRECTION('',(1.,0.,0.));
#611=DIRECTION('',(0.,1.,0.));
#612=DIRECTION('',(0.,0.,1.));
#613=DIRECTION('',(0.,-1.,0.));
#614=DIRECTION('',(0.,0.,-1.));
#615=DIRECTION('',(-1.,0.,0.));
#616=DIRECTION('',(0.,0.,1.));
#617=DIRECTION('',(1.,0.,0.));
#618=DIRECTION('',(0.,0.,-1.));
#619=DIRECTION('',(1.,0.,0.));
#620=DIRECTION('',(0.,0.,-1.));
#621=DIRECTION('',(0.,1.,0.));
#622=DIRECTION('',(0.,0.,1.));
#623=DIRECTION('',(0.,1.,0.));
#624=DIRECTION('',(0.,0.,1.));
#625=DIRECTION('',(0.,-1.,0.));
#626=DIRECTION('',(0.,0.,-1.));
#627=DIRECTION('',(0.,0.,1.));
#628=DIRECTION('',(1.,0.,0.));
#629=DIRECTION('',(0.,0.,1.));
#630=DIRECTION('',(1.,0.,0.));
#631=CARTESIAN_POINT('',(0.,0.,0.));
#632=CARTESIAN_POINT('',(0.1437,0.0402,0.002));
#633=CARTESIAN_POINT('',(0.1437,0.0402,0.002));
#634=CARTESIAN_POINT('',(0.14465,0.0402,0.002));
#635=CARTESIAN_POINT('',(0.1437,0.0402,0.));
#636=CARTESIAN_POINT('',(0.14465,0.0402,0.));
#637=CARTESIAN_POINT('',(-0.1437,0.0402,0.002));
#638=CARTESIAN_POINT('',(-0.1437,0.0402,0.002));
#639=CARTESIAN_POINT('',(-0.14275,0.0402,0.002));
#640=CARTESIAN_POINT('',(-0.1437,0.0402,0.));
#641=CARTESIAN_POINT('',(-0.14275,0.0402,0.));
#642=CARTESIAN_POINT('',(-0.1437,-0.0402,0.002));
#643=CARTESIAN_POINT('',(-0.1437,-0.0402,0.002));
#644=CARTESIAN_POINT('',(-0.14275,-0.0402,0.002));
#645=CARTESIAN_POINT('',(-0.1437,-0.0402,0.));
#646=CARTESIAN_POINT('',(-0.14275,-0.0402,0.));
#647=CARTESIAN_POINT('',(0.1437,-0.0402,0.002));
#648=CARTESIAN_POINT('',(0.1437,-0.0402,0.002));
#649=CARTESIAN_POINT('',(0.14465,-0.0402,0.002));
#650=CARTESIAN_POINT('',(0.1437,-0.0402,0.));
#651=CARTESIAN_POINT('',(0.14465,-0.0402,0.));
#652=CARTESIAN_POINT('',(0.,0.,0.002));
#653=CARTESIAN_POINT('',(0.,-0.0442,0.002));
#654=CARTESIAN_POINT('',(0.1457,-0.0442,0.002));
#655=CARTESIAN_POINT('',(-0.1457,-0.0442,0.002));
#656=CARTESIAN_POINT('',(0.1457,-0.0422,0.002));
#657=CARTESIAN_POINT('',(0.1477,-0.0422,0.002));
#658=CARTESIAN_POINT('',(0.1477,2.77555756156289E-17,0.002));
#659=CARTESIAN_POINT('',(0.1477,0.0422,0.002));
#660=CARTESIAN_POINT('',(0.1457,0.0422,0.002));
#661=CARTESIAN_POINT('',(0.1457,0.0442,0.002));
#662=CARTESIAN_POINT('',(0.,0.0442,0.002));
#663=CARTESIAN_POINT('',(-0.1457,0.0442,0.002));
#664=CARTESIAN_POINT('',(-0.1457,0.0422,0.002));
#665=CARTESIAN_POINT('',(-0.1477,0.0422,0.002));
#666=CARTESIAN_POINT('',(-0.1477,-1.38777878078145E-17,0.002));
#667=CARTESIAN_POINT('',(-0.1477,-0.0422,0.002));
#668=CARTESIAN_POINT('',(-0.1457,-0.0422,0.002));
#669=CARTESIAN_POINT('',(0.,0.,0.));
#670=CARTESIAN_POINT('',(0.,0.045,0.));
#671=CARTESIAN_POINT('',(-0.1485,0.045,0.));
#672=CARTESIAN_POINT('',(0.1485,0.045,0.));
#673=CARTESIAN_POINT('',(0.1485,-0.045,0.));
#674=CARTESIAN_POINT('',(0.1485,-0.045,0.));
#675=CARTESIAN_POINT('',(-0.1485,-0.045,0.));
#676=CARTESIAN_POINT('',(-0.1485,-0.045,0.));
#677=CARTESIAN_POINT('',(-0.1485,0.,0.));
#678=CARTESIAN_POINT('',(0.1477,2.77555756156289E-17,0.004));
#679=CARTESIAN_POINT('',(0.1477,-0.0422,0.004));
#680=CARTESIAN_POINT('',(0.1477,-0.0422,0.004));
#681=CARTESIAN_POINT('',(0.1477,2.77555756156289E-17,0.004));
#682=CARTESIAN_POINT('',(0.1477,0.0422,0.004));
#683=CARTESIAN_POINT('',(0.1477,0.0422,0.004));
#684=CARTESIAN_POINT('',(0.,0.0442,0.004));
#685=CARTESIAN_POINT('',(0.1457,0.0442,0.004));
#686=CARTESIAN_POINT('',(0.1457,0.0442,0.004));
#687=CARTESIAN_POINT('',(0.,0.0442,0.004));
#688=CARTESIAN_POINT('',(-0.1457,0.0442,0.004));
#689=CARTESIAN_POINT('',(-0.1457,0.0442,0.002));
#690=CARTESIAN_POINT('',(-0.1477,-1.38777878078145E-17,0.004));
#691=CARTESIAN_POINT('',(-0.1477,-1.38777878078145E-17,0.004));
#692=CARTESIAN_POINT('',(-0.1477,0.0422,0.004));
#693=CARTESIAN_POINT('',(-0.1477,-0.0422,0.004));
#694=CARTESIAN_POINT('',(-0.1477,-0.0422,0.004));
#695=CARTESIAN_POINT('',(-0.1477,0.0422,0.004));
#696=CARTESIAN_POINT('',(0.,-0.0442,0.004));
#697=CARTESIAN_POINT('',(0.,-0.0442,0.004));
#698=CARTESIAN_POINT('',(0.1457,-0.0442,0.004));
#699=CARTESIAN_POINT('',(-0.1457,-0.0442,0.004));
#700=CARTESIAN_POINT('',(0.1457,-0.0442,0.002));
#701=CARTESIAN_POINT('',(-0.1457,-0.0442,0.004));
#702=CARTESIAN_POINT('',(0.,0.,0.004));
#703=CARTESIAN_POINT('',(0.,-0.045,0.004));
#704=CARTESIAN_POINT('',(-0.1485,-0.045,0.004));
#705=CARTESIAN_POINT('',(0.1485,-0.045,0.004));
#706=CARTESIAN_POINT('',(0.1485,0.,0.004));
#707=CARTESIAN_POINT('',(0.1485,0.045,0.004));
#708=CARTESIAN_POINT('',(-0.1485,0.045,0.004));
#709=CARTESIAN_POINT('',(-0.1485,0.045,0.004));
#710=CARTESIAN_POINT('',(-0.1485,-0.045,0.004));
#711=CARTESIAN_POINT('',(0.1457,0.0422,0.004));
#712=CARTESIAN_POINT('',(0.1457,-0.0422,0.004));
#713=CARTESIAN_POINT('',(-0.1457,-0.0422,0.004));
#714=CARTESIAN_POINT('',(-0.1457,0.0422,0.004));
#715=CARTESIAN_POINT('',(0.1457,-0.0422,0.004));
#716=CARTESIAN_POINT('',(0.1457,0.0422,0.004));
#717=CARTESIAN_POINT('',(-0.1457,-0.0422,0.004));
#718=CARTESIAN_POINT('',(-0.1457,0.0422,0.004));
#719=CARTESIAN_POINT('',(-0.1485,-0.045,0.002));
#720=CARTESIAN_POINT('',(-0.1485,-0.045,0.002));
#721=CARTESIAN_POINT('',(-0.1485,-0.047,0.002));
#722=CARTESIAN_POINT('',(-0.1485,-0.045,0.002));
#723=CARTESIAN_POINT('',(-0.1485,-0.045,0.002));
#724=CARTESIAN_POINT('',(-0.1505,-0.045,0.002));
#725=CARTESIAN_POINT('',(-0.1485,-0.045,0.002));
#726=CARTESIAN_POINT('',(-0.1485,0.,0.002));
#727=CARTESIAN_POINT('',(-0.1485,0.045,0.002));
#728=CARTESIAN_POINT('',(-0.1505,0.045,0.002));
#729=CARTESIAN_POINT('',(-0.1485,0.045,0.002));
#730=CARTESIAN_POINT('',(0.,-0.045,0.002));
#731=CARTESIAN_POINT('',(0.1485,-0.045,0.002));
#732=CARTESIAN_POINT('',(0.1485,-0.047,0.002));
#733=CARTESIAN_POINT('',(0.1485,-0.045,0.002));
#734=CARTESIAN_POINT('',(-0.1485,0.045,0.002));
#735=CARTESIAN_POINT('',(-0.1485,0.045,0.002));
#736=CARTESIAN_POINT('',(-0.1485,0.047,0.002));
#737=CARTESIAN_POINT('',(-0.1485,0.045,0.002));
#738=CARTESIAN_POINT('',(0.1485,-0.045,0.002));
#739=CARTESIAN_POINT('',(0.1485,-0.045,0.002));
#740=CARTESIAN_POINT('',(0.1505,-0.045,0.002));
#741=CARTESIAN_POINT('',(0.1485,-0.045,0.002));
#742=CARTESIAN_POINT('',(0.,0.045,0.002));
#743=CARTESIAN_POINT('',(0.1485,0.045,0.002));
#744=CARTESIAN_POINT('',(0.1485,0.047,0.002));
#745=CARTESIAN_POINT('',(0.1485,0.045,0.002));
#746=CARTESIAN_POINT('',(0.1485,0.,0.002));
#747=CARTESIAN_POINT('',(0.1485,0.045,0.002));
#748=CARTESIAN_POINT('',(0.1505,0.045,0.002));
#749=CARTESIAN_POINT('',(0.1485,0.045,0.002));
#750=CARTESIAN_POINT('',(0.1485,0.045,0.002));
#751=CARTESIAN_POINT('',(0.00373204750940203,0.00208856514655053,-0.00209920017328113));
#752=MECHANICAL_DESIGN_GEOMETRIC_PRESENTATION_REPRESENTATION('',(#423),
#753);
#753=(
GEOMETRIC_REPRESENTATION_CONTEXT(3)
GLOBAL_UNCERTAINTY_ASSIGNED_CONTEXT((#755))
GLOBAL_UNIT_ASSIGNED_CONTEXT((#759,#758,#757))
REPRESENTATION_CONTEXT('Assembly 2','TOP_LEVEL_ASSEMBLY_PART')
);
#754=(
GEOMETRIC_REPRESENTATION_CONTEXT(3)
GLOBAL_UNCERTAINTY_ASSIGNED_CONTEXT((#756))
GLOBAL_UNIT_ASSIGNED_CONTEXT((#759,#758,#757))
REPRESENTATION_CONTEXT('Part 1','COMPONENT_PART')
);
#755=UNCERTAINTY_MEASURE_WITH_UNIT(LENGTH_MEASURE(1.E-8),#759,
'DISTANCE_ACCURACY_VALUE','Maximum Tolerance applied to model');
#756=UNCERTAINTY_MEASURE_WITH_UNIT(LENGTH_MEASURE(1.E-8),#759,
'DISTANCE_ACCURACY_VALUE','Maximum Tolerance applied to model');
#757=(
NAMED_UNIT(*)
SI_UNIT($,.STERADIAN.)
SOLID_ANGLE_UNIT()
);
#758=(
NAMED_UNIT(*)
PLANE_ANGLE_UNIT()
SI_UNIT($,.RADIAN.)
);
#759=(
LENGTH_UNIT()
NAMED_UNIT(*)
SI_UNIT($,.METRE.)
);
#760=PRODUCT_DEFINITION_SHAPE('','',#763);
#761=PRODUCT_DEFINITION_SHAPE('','',#764);
#762=PRODUCT_DEFINITION_SHAPE(' ','NAUO PRDDFN',#11);
#763=PRODUCT_DEFINITION('','',#767,#765);
#764=PRODUCT_DEFINITION('','',#768,#766);
#765=PRODUCT_DEFINITION_CONTEXT('',#778,'design');
#766=PRODUCT_DEFINITION_CONTEXT('',#778,'design');
#767=PRODUCT_DEFINITION_FORMATION_WITH_SPECIFIED_SOURCE('','',#771,
 .NOT_KNOWN.);
#768=PRODUCT_DEFINITION_FORMATION_WITH_SPECIFIED_SOURCE('','',#772,
 .NOT_KNOWN.);
#769=PRODUCT_RELATED_PRODUCT_CATEGORY('','',(#771));
#770=PRODUCT_RELATED_PRODUCT_CATEGORY('','',(#772));
#771=PRODUCT('Assembly 2','Assembly 2','Assembly 2',(#775));
#772=PRODUCT('Part 1','Part 1','Part 1',(#776));
#773=PRODUCT_CATEGORY('','');
#774=PRODUCT_CATEGORY('','');
#775=PRODUCT_CONTEXT('',#778,'mechanical');
#776=PRODUCT_CONTEXT('',#778,'mechanical');
#777=APPLICATION_PROTOCOL_DEFINITION('international standard',
'ap242_managed_model_based_3d_engineering',2020,#778);
#778=APPLICATION_CONTEXT('managed model based 3d engineering');
ENDSEC;
END-ISO-10303-21;
