ISO-10303-21;
HEADER;
/* Generated by software containing ST-Developer
 * from STEP Tools, Inc. (www.steptools.com) 
 */
/* OPTION: using custom renumber hook */

FILE_DESCRIPTION(
/* description */ ('STEP AP242 Edition 2',
'CAx-IF Rec.Pracs.---Representation and Presentation of Product Manufa
cturing Information (PMI)---4.0---2014-10-13',
'CAx-IF Rec.Pracs.---3D Tessellated Geometry---0.4---2014-09-14','2;1',
'CAx-IF Rec.Pracs.---User Defined Attributes---1.5---2016-08-15'),
/* implementation_level */ '2;1');

FILE_NAME(
/* name */ 'bottom plate',
/* time_stamp */ '2026-05-23T22:25:58Z',
/* author */ (''),
/* organization */ (''),
/* preprocessor_version */ 'ST-DEVELOPER v20',
/* originating_system */ 'ONSHAPE BY PTC INC, 1.215',
/* authorisation */ '  ');

FILE_SCHEMA (('AP242_MANAGED_MODEL_BASED_3D_ENGINEERING_MIM_LF { 1 0 10303 442 3 1 4 }'));
ENDSEC;

DATA;
#10=SHAPE_REPRESENTATION_RELATIONSHIP('','',#1243,#11);
#11=ADVANCED_BREP_SHAPE_REPRESENTATION('',(#1241),#2196);
#12=ELLIPSE('',#1388,0.00282842712474619,0.002);
#13=TOROIDAL_SURFACE('',#1367,0.004,0.002);
#14=SPHERICAL_SURFACE('',#1365,0.002);
#15=SPHERICAL_SURFACE('',#1373,0.002);
#16=SPHERICAL_SURFACE('',#1375,0.002);
#17=SPHERICAL_SURFACE('',#1381,0.002);
#18=SPHERICAL_SURFACE('',#1383,0.002);
#19=SPHERICAL_SURFACE('',#1389,0.002);
#20=B_SPLINE_CURVE_WITH_KNOTS('',3,(#2070,#2071,#2072,#2073),
 .UNSPECIFIED.,.F.,.F.,(4,4),(0.,0.00151236888386626),.UNSPECIFIED.);
#21=B_SPLINE_CURVE_WITH_KNOTS('',3,(#2078,#2079,#2080,#2081,#2082),
 .UNSPECIFIED.,.F.,.F.,(4,1,4),(1.97532344360821E-7,0.000792634040905376,
0.00158507054946639),.UNSPECIFIED.);
#22=B_SPLINE_CURVE_WITH_KNOTS('',3,(#2088,#2089,#2090,#2091),
 .UNSPECIFIED.,.F.,.F.,(4,4),(0.,0.00151187975791963),.UNSPECIFIED.);
#23=B_SPLINE_CURVE_WITH_KNOTS('',3,(#2094,#2095,#2096,#2097),
 .UNSPECIFIED.,.F.,.F.,(4,4),(0.,0.00151236888386622),.UNSPECIFIED.);
#24=B_SPLINE_CURVE_WITH_KNOTS('',3,(#2099,#2100,#2101,#2102),
 .UNSPECIFIED.,.F.,.F.,(4,4),(0.,0.00151187975791963),.UNSPECIFIED.);
#25=B_SPLINE_CURVE_WITH_KNOTS('',3,(#2106,#2107,#2108,#2109,#2110),
 .UNSPECIFIED.,.F.,.F.,(4,1,4),(1.97532344364417E-7,0.000792634040905373,
0.00158507054946638),.UNSPECIFIED.);
#26=B_SPLINE_CURVE_WITH_KNOTS('',3,(#2114,#2115,#2116,#2117,#2118),
 .UNSPECIFIED.,.F.,.F.,(4,1,4),(1.97532344367865E-7,0.000792634040905379,
0.00158507054946639),.UNSPECIFIED.);
#27=B_SPLINE_CURVE_WITH_KNOTS('',3,(#2122,#2123,#2124,#2125),
 .UNSPECIFIED.,.F.,.F.,(4,4),(0.,0.00151236888386658),.UNSPECIFIED.);
#28=B_SPLINE_CURVE_WITH_KNOTS('',3,(#2127,#2128,#2129,#2130),
 .UNSPECIFIED.,.F.,.F.,(4,4),(0.,0.00151187975791964),.UNSPECIFIED.);
#29=B_SPLINE_CURVE_WITH_KNOTS('',3,(#2133,#2134,#2135,#2136),
 .UNSPECIFIED.,.F.,.F.,(4,4),(0.,0.00151123327114075),.UNSPECIFIED.);
#30=B_SPLINE_CURVE_WITH_KNOTS('',3,(#2139,#2140,#2141,#2142),
 .UNSPECIFIED.,.F.,.F.,(4,4),(0.,0.00151236888386627),.UNSPECIFIED.);
#31=B_SPLINE_CURVE_WITH_KNOTS('',3,(#2144,#2145,#2146,#2147,#2148),
 .UNSPECIFIED.,.F.,.F.,(4,1,4),(1.97532344867645E-7,0.000792634040905659,
0.00158507054946645),.UNSPECIFIED.);
#32=B_SPLINE_CURVE_WITH_KNOTS('',3,(#2152,#2153,#2154,#2155,#2156),
 .UNSPECIFIED.,.F.,.F.,(4,1,4),(1.97532516499333E-7,0.000792961306705898,
0.0015857250808953),.UNSPECIFIED.);
#33=B_SPLINE_CURVE_WITH_KNOTS('',3,(#2160,#2161,#2162,#2163),
 .UNSPECIFIED.,.F.,.F.,(4,4),(0.,0.00151187975791971),.UNSPECIFIED.);
#34=B_SPLINE_CURVE_WITH_KNOTS('',3,(#2166,#2167,#2168,#2169),
 .UNSPECIFIED.,.F.,.F.,(4,4),(0.,0.00151236888386584),.UNSPECIFIED.);
#35=B_SPLINE_CURVE_WITH_KNOTS('',3,(#2171,#2172,#2173,#2174),
 .UNSPECIFIED.,.F.,.F.,(4,4),(0.,0.00151308330390943),.UNSPECIFIED.);
#36=B_SPLINE_CURVE_WITH_KNOTS('',3,(#2177,#2178,#2179,#2180,#2181),
 .UNSPECIFIED.,.F.,.F.,(4,1,4),(1.9753234433056E-7,0.00079263404090532,
0.00158507054946631),.UNSPECIFIED.);
#37=B_SPLINE_CURVE_WITH_KNOTS('',3,(#2185,#2186,#2187,#2188),
 .UNSPECIFIED.,.F.,.F.,(4,4),(0.,0.00151187975792002),.UNSPECIFIED.);
#38=CYLINDRICAL_SURFACE('',#1310,0.002);
#39=CYLINDRICAL_SURFACE('',#1312,0.002);
#40=CYLINDRICAL_SURFACE('',#1314,0.002);
#41=CYLINDRICAL_SURFACE('',#1316,0.002);
#42=CYLINDRICAL_SURFACE('',#1318,0.002);
#43=CYLINDRICAL_SURFACE('',#1320,0.002);
#44=CYLINDRICAL_SURFACE('',#1322,0.002);
#45=CYLINDRICAL_SURFACE('',#1324,0.002);
#46=CYLINDRICAL_SURFACE('',#1325,0.002);
#47=CYLINDRICAL_SURFACE('',#1326,0.002);
#48=CYLINDRICAL_SURFACE('',#1327,0.002);
#49=CYLINDRICAL_SURFACE('',#1328,0.002);
#50=CYLINDRICAL_SURFACE('',#1329,0.002);
#51=CYLINDRICAL_SURFACE('',#1330,0.002);
#52=CYLINDRICAL_SURFACE('',#1331,0.002);
#53=CYLINDRICAL_SURFACE('',#1332,0.0015);
#54=CYLINDRICAL_SURFACE('',#1335,0.0015);
#55=CYLINDRICAL_SURFACE('',#1338,0.0015);
#56=CYLINDRICAL_SURFACE('',#1341,0.0015);
#57=CYLINDRICAL_SURFACE('',#1344,0.0015);
#58=CYLINDRICAL_SURFACE('',#1347,0.0015);
#59=CYLINDRICAL_SURFACE('',#1350,0.0015);
#60=CYLINDRICAL_SURFACE('',#1353,0.0015);
#61=CYLINDRICAL_SURFACE('',#1356,0.0015);
#62=CYLINDRICAL_SURFACE('',#1359,0.0015);
#63=CYLINDRICAL_SURFACE('',#1362,0.002);
#64=CYLINDRICAL_SURFACE('',#1369,0.002);
#65=CYLINDRICAL_SURFACE('',#1371,0.002);
#66=CYLINDRICAL_SURFACE('',#1377,0.002);
#67=CYLINDRICAL_SURFACE('',#1379,0.002);
#68=CYLINDRICAL_SURFACE('',#1385,0.002);
#69=CYLINDRICAL_SURFACE('',#1387,0.002);
#70=CYLINDRICAL_SURFACE('',#1391,0.002);
#71=CYLINDRICAL_SURFACE('',#1392,0.00095);
#72=CYLINDRICAL_SURFACE('',#1393,0.00095);
#73=CYLINDRICAL_SURFACE('',#1394,0.00095);
#74=CYLINDRICAL_SURFACE('',#1395,0.00095);
#75=CYLINDRICAL_SURFACE('',#1396,0.00095);
#76=CYLINDRICAL_SURFACE('',#1397,0.00095);
#77=CIRCLE('',#1246,0.00095);
#78=CIRCLE('',#1247,0.00095);
#79=CIRCLE('',#1248,0.00095);
#80=CIRCLE('',#1249,0.00095);
#81=CIRCLE('',#1250,0.004);
#82=CIRCLE('',#1251,0.00095);
#83=CIRCLE('',#1252,0.00095);
#84=CIRCLE('',#1270,0.00095);
#85=CIRCLE('',#1271,0.00095);
#86=CIRCLE('',#1272,0.00095);
#87=CIRCLE('',#1273,0.00095);
#88=CIRCLE('',#1274,0.00095);
#89=CIRCLE('',#1275,0.00095);
#90=CIRCLE('',#1276,0.002);
#91=CIRCLE('',#1277,0.002);
#92=CIRCLE('',#1278,0.002);
#93=CIRCLE('',#1279,0.002);
#94=CIRCLE('',#1280,0.002);
#95=CIRCLE('',#1281,0.002);
#96=CIRCLE('',#1282,0.002);
#97=CIRCLE('',#1283,0.002);
#98=CIRCLE('',#1284,0.002);
#99=CIRCLE('',#1285,0.002);
#100=CIRCLE('',#1286,0.002);
#101=CIRCLE('',#1287,0.002);
#102=CIRCLE('',#1288,0.002);
#103=CIRCLE('',#1289,0.002);
#104=CIRCLE('',#1290,0.002);
#105=CIRCLE('',#1292,0.0015);
#106=CIRCLE('',#1293,0.0015);
#107=CIRCLE('',#1294,0.0015);
#108=CIRCLE('',#1295,0.0015);
#109=CIRCLE('',#1296,0.0015);
#110=CIRCLE('',#1297,0.0015);
#111=CIRCLE('',#1298,0.0015);
#112=CIRCLE('',#1299,0.0015);
#113=CIRCLE('',#1300,0.0015);
#114=CIRCLE('',#1301,0.0015);
#115=CIRCLE('',#1302,0.002);
#116=CIRCLE('',#1303,0.002);
#117=CIRCLE('',#1304,0.002);
#118=CIRCLE('',#1305,0.002);
#119=CIRCLE('',#1306,0.002);
#120=CIRCLE('',#1307,0.002);
#121=CIRCLE('',#1308,0.002);
#122=CIRCLE('',#1309,0.002);
#123=CIRCLE('',#1311,0.002);
#124=CIRCLE('',#1313,0.002);
#125=CIRCLE('',#1315,0.002);
#126=CIRCLE('',#1317,0.002);
#127=CIRCLE('',#1319,0.002);
#128=CIRCLE('',#1321,0.002);
#129=CIRCLE('',#1323,0.002);
#130=CIRCLE('',#1333,0.0015);
#131=CIRCLE('',#1336,0.0015);
#132=CIRCLE('',#1339,0.0015);
#133=CIRCLE('',#1342,0.0015);
#134=CIRCLE('',#1345,0.0015);
#135=CIRCLE('',#1348,0.0015);
#136=CIRCLE('',#1351,0.0015);
#137=CIRCLE('',#1354,0.0015);
#138=CIRCLE('',#1357,0.0015);
#139=CIRCLE('',#1360,0.0015);
#140=CIRCLE('',#1363,0.002);
#141=CIRCLE('',#1364,0.002);
#142=CIRCLE('',#1366,0.002);
#143=CIRCLE('',#1368,0.002);
#144=CIRCLE('',#1370,0.002);
#145=CIRCLE('',#1372,0.002);
#146=CIRCLE('',#1374,0.002);
#147=CIRCLE('',#1376,0.002);
#148=CIRCLE('',#1378,0.002);
#149=CIRCLE('',#1380,0.002);
#150=CIRCLE('',#1382,0.002);
#151=CIRCLE('',#1384,0.002);
#152=CIRCLE('',#1386,0.002);
#153=CIRCLE('',#1390,0.002);
#154=ORIENTED_EDGE('',*,*,#488,.T.);
#155=ORIENTED_EDGE('',*,*,#489,.T.);
#156=ORIENTED_EDGE('',*,*,#490,.T.);
#157=ORIENTED_EDGE('',*,*,#491,.T.);
#158=ORIENTED_EDGE('',*,*,#492,.T.);
#159=ORIENTED_EDGE('',*,*,#493,.T.);
#160=ORIENTED_EDGE('',*,*,#494,.T.);
#161=ORIENTED_EDGE('',*,*,#495,.T.);
#162=ORIENTED_EDGE('',*,*,#496,.T.);
#163=ORIENTED_EDGE('',*,*,#497,.T.);
#164=ORIENTED_EDGE('',*,*,#498,.T.);
#165=ORIENTED_EDGE('',*,*,#499,.T.);
#166=ORIENTED_EDGE('',*,*,#500,.T.);
#167=ORIENTED_EDGE('',*,*,#501,.T.);
#168=ORIENTED_EDGE('',*,*,#502,.T.);
#169=ORIENTED_EDGE('',*,*,#503,.T.);
#170=ORIENTED_EDGE('',*,*,#504,.T.);
#171=ORIENTED_EDGE('',*,*,#505,.F.);
#172=ORIENTED_EDGE('',*,*,#506,.T.);
#173=ORIENTED_EDGE('',*,*,#507,.T.);
#174=ORIENTED_EDGE('',*,*,#508,.T.);
#175=ORIENTED_EDGE('',*,*,#509,.F.);
#176=ORIENTED_EDGE('',*,*,#510,.T.);
#177=ORIENTED_EDGE('',*,*,#511,.T.);
#178=ORIENTED_EDGE('',*,*,#512,.T.);
#179=ORIENTED_EDGE('',*,*,#513,.F.);
#180=ORIENTED_EDGE('',*,*,#514,.T.);
#181=ORIENTED_EDGE('',*,*,#515,.T.);
#182=ORIENTED_EDGE('',*,*,#516,.T.);
#183=ORIENTED_EDGE('',*,*,#517,.F.);
#184=ORIENTED_EDGE('',*,*,#518,.T.);
#185=ORIENTED_EDGE('',*,*,#519,.T.);
#186=ORIENTED_EDGE('',*,*,#520,.T.);
#187=ORIENTED_EDGE('',*,*,#521,.F.);
#188=ORIENTED_EDGE('',*,*,#522,.T.);
#189=ORIENTED_EDGE('',*,*,#523,.F.);
#190=ORIENTED_EDGE('',*,*,#524,.T.);
#191=ORIENTED_EDGE('',*,*,#525,.T.);
#192=ORIENTED_EDGE('',*,*,#526,.T.);
#193=ORIENTED_EDGE('',*,*,#527,.T.);
#194=ORIENTED_EDGE('',*,*,#528,.T.);
#195=ORIENTED_EDGE('',*,*,#529,.F.);
#196=ORIENTED_EDGE('',*,*,#530,.T.);
#197=ORIENTED_EDGE('',*,*,#531,.F.);
#198=ORIENTED_EDGE('',*,*,#532,.T.);
#199=ORIENTED_EDGE('',*,*,#533,.T.);
#200=ORIENTED_EDGE('',*,*,#534,.T.);
#201=ORIENTED_EDGE('',*,*,#535,.T.);
#202=ORIENTED_EDGE('',*,*,#536,.T.);
#203=ORIENTED_EDGE('',*,*,#537,.F.);
#204=ORIENTED_EDGE('',*,*,#538,.T.);
#205=ORIENTED_EDGE('',*,*,#537,.T.);
#206=ORIENTED_EDGE('',*,*,#539,.T.);
#207=ORIENTED_EDGE('',*,*,#540,.T.);
#208=ORIENTED_EDGE('',*,*,#541,.F.);
#209=ORIENTED_EDGE('',*,*,#542,.T.);
#210=ORIENTED_EDGE('',*,*,#543,.T.);
#211=ORIENTED_EDGE('',*,*,#544,.T.);
#212=ORIENTED_EDGE('',*,*,#545,.T.);
#213=ORIENTED_EDGE('',*,*,#546,.T.);
#214=ORIENTED_EDGE('',*,*,#547,.T.);
#215=ORIENTED_EDGE('',*,*,#548,.T.);
#216=ORIENTED_EDGE('',*,*,#549,.T.);
#217=ORIENTED_EDGE('',*,*,#550,.T.);
#218=ORIENTED_EDGE('',*,*,#551,.T.);
#219=ORIENTED_EDGE('',*,*,#552,.T.);
#220=ORIENTED_EDGE('',*,*,#553,.F.);
#221=ORIENTED_EDGE('',*,*,#554,.T.);
#222=ORIENTED_EDGE('',*,*,#555,.T.);
#223=ORIENTED_EDGE('',*,*,#556,.T.);
#224=ORIENTED_EDGE('',*,*,#557,.F.);
#225=ORIENTED_EDGE('',*,*,#558,.T.);
#226=ORIENTED_EDGE('',*,*,#559,.T.);
#227=ORIENTED_EDGE('',*,*,#560,.T.);
#228=ORIENTED_EDGE('',*,*,#561,.F.);
#229=ORIENTED_EDGE('',*,*,#562,.T.);
#230=ORIENTED_EDGE('',*,*,#563,.T.);
#231=ORIENTED_EDGE('',*,*,#564,.T.);
#232=ORIENTED_EDGE('',*,*,#565,.F.);
#233=ORIENTED_EDGE('',*,*,#566,.F.);
#234=ORIENTED_EDGE('',*,*,#567,.F.);
#235=ORIENTED_EDGE('',*,*,#568,.F.);
#236=ORIENTED_EDGE('',*,*,#569,.F.);
#237=ORIENTED_EDGE('',*,*,#570,.F.);
#238=ORIENTED_EDGE('',*,*,#571,.F.);
#239=ORIENTED_EDGE('',*,*,#545,.F.);
#240=ORIENTED_EDGE('',*,*,#572,.T.);
#241=ORIENTED_EDGE('',*,*,#549,.F.);
#242=ORIENTED_EDGE('',*,*,#573,.T.);
#243=ORIENTED_EDGE('',*,*,#553,.T.);
#244=ORIENTED_EDGE('',*,*,#574,.T.);
#245=ORIENTED_EDGE('',*,*,#557,.T.);
#246=ORIENTED_EDGE('',*,*,#575,.T.);
#247=ORIENTED_EDGE('',*,*,#561,.T.);
#248=ORIENTED_EDGE('',*,*,#576,.T.);
#249=ORIENTED_EDGE('',*,*,#565,.T.);
#250=ORIENTED_EDGE('',*,*,#577,.T.);
#251=ORIENTED_EDGE('',*,*,#538,.F.);
#252=ORIENTED_EDGE('',*,*,#541,.T.);
#253=ORIENTED_EDGE('',*,*,#578,.T.);
#254=ORIENTED_EDGE('',*,*,#519,.F.);
#255=ORIENTED_EDGE('',*,*,#579,.T.);
#256=ORIENTED_EDGE('',*,*,#523,.T.);
#257=ORIENTED_EDGE('',*,*,#580,.T.);
#258=ORIENTED_EDGE('',*,*,#503,.F.);
#259=ORIENTED_EDGE('',*,*,#581,.T.);
#260=ORIENTED_EDGE('',*,*,#527,.F.);
#261=ORIENTED_EDGE('',*,*,#582,.T.);
#262=ORIENTED_EDGE('',*,*,#533,.F.);
#263=ORIENTED_EDGE('',*,*,#583,.T.);
#264=ORIENTED_EDGE('',*,*,#517,.T.);
#265=ORIENTED_EDGE('',*,*,#584,.T.);
#266=ORIENTED_EDGE('',*,*,#513,.T.);
#267=ORIENTED_EDGE('',*,*,#585,.T.);
#268=ORIENTED_EDGE('',*,*,#507,.F.);
#269=ORIENTED_EDGE('',*,*,#586,.T.);
#270=ORIENTED_EDGE('',*,*,#587,.F.);
#271=ORIENTED_EDGE('',*,*,#588,.F.);
#272=ORIENTED_EDGE('',*,*,#589,.F.);
#273=ORIENTED_EDGE('',*,*,#590,.F.);
#274=ORIENTED_EDGE('',*,*,#591,.F.);
#275=ORIENTED_EDGE('',*,*,#592,.F.);
#276=ORIENTED_EDGE('',*,*,#593,.F.);
#277=ORIENTED_EDGE('',*,*,#594,.F.);
#278=ORIENTED_EDGE('',*,*,#595,.F.);
#279=ORIENTED_EDGE('',*,*,#596,.F.);
#280=ORIENTED_EDGE('',*,*,#509,.T.);
#281=ORIENTED_EDGE('',*,*,#597,.T.);
#282=ORIENTED_EDGE('',*,*,#511,.F.);
#283=ORIENTED_EDGE('',*,*,#598,.T.);
#284=ORIENTED_EDGE('',*,*,#515,.F.);
#285=ORIENTED_EDGE('',*,*,#599,.T.);
#286=ORIENTED_EDGE('',*,*,#531,.T.);
#287=ORIENTED_EDGE('',*,*,#600,.T.);
#288=ORIENTED_EDGE('',*,*,#529,.T.);
#289=ORIENTED_EDGE('',*,*,#601,.T.);
#290=ORIENTED_EDGE('',*,*,#505,.T.);
#291=ORIENTED_EDGE('',*,*,#602,.T.);
#292=ORIENTED_EDGE('',*,*,#525,.F.);
#293=ORIENTED_EDGE('',*,*,#603,.T.);
#294=ORIENTED_EDGE('',*,*,#521,.T.);
#295=ORIENTED_EDGE('',*,*,#604,.T.);
#296=ORIENTED_EDGE('',*,*,#544,.F.);
#297=ORIENTED_EDGE('',*,*,#605,.T.);
#298=ORIENTED_EDGE('',*,*,#546,.F.);
#299=ORIENTED_EDGE('',*,*,#572,.F.);
#300=ORIENTED_EDGE('',*,*,#540,.F.);
#301=ORIENTED_EDGE('',*,*,#606,.T.);
#302=ORIENTED_EDGE('',*,*,#542,.F.);
#303=ORIENTED_EDGE('',*,*,#578,.F.);
#304=ORIENTED_EDGE('',*,*,#564,.F.);
#305=ORIENTED_EDGE('',*,*,#607,.T.);
#306=ORIENTED_EDGE('',*,*,#535,.F.);
#307=ORIENTED_EDGE('',*,*,#577,.F.);
#308=ORIENTED_EDGE('',*,*,#560,.F.);
#309=ORIENTED_EDGE('',*,*,#608,.T.);
#310=ORIENTED_EDGE('',*,*,#562,.F.);
#311=ORIENTED_EDGE('',*,*,#576,.F.);
#312=ORIENTED_EDGE('',*,*,#556,.F.);
#313=ORIENTED_EDGE('',*,*,#609,.T.);
#314=ORIENTED_EDGE('',*,*,#558,.F.);
#315=ORIENTED_EDGE('',*,*,#575,.F.);
#316=ORIENTED_EDGE('',*,*,#548,.F.);
#317=ORIENTED_EDGE('',*,*,#610,.T.);
#318=ORIENTED_EDGE('',*,*,#550,.F.);
#319=ORIENTED_EDGE('',*,*,#573,.F.);
#320=ORIENTED_EDGE('',*,*,#552,.F.);
#321=ORIENTED_EDGE('',*,*,#611,.T.);
#322=ORIENTED_EDGE('',*,*,#554,.F.);
#323=ORIENTED_EDGE('',*,*,#574,.F.);
#324=ORIENTED_EDGE('',*,*,#585,.F.);
#325=ORIENTED_EDGE('',*,*,#512,.F.);
#326=ORIENTED_EDGE('',*,*,#597,.F.);
#327=ORIENTED_EDGE('',*,*,#508,.F.);
#328=ORIENTED_EDGE('',*,*,#586,.F.);
#329=ORIENTED_EDGE('',*,*,#510,.F.);
#330=ORIENTED_EDGE('',*,*,#604,.F.);
#331=ORIENTED_EDGE('',*,*,#520,.F.);
#332=ORIENTED_EDGE('',*,*,#579,.F.);
#333=ORIENTED_EDGE('',*,*,#522,.F.);
#334=ORIENTED_EDGE('',*,*,#603,.F.);
#335=ORIENTED_EDGE('',*,*,#524,.F.);
#336=ORIENTED_EDGE('',*,*,#580,.F.);
#337=ORIENTED_EDGE('',*,*,#526,.F.);
#338=ORIENTED_EDGE('',*,*,#602,.F.);
#339=ORIENTED_EDGE('',*,*,#504,.F.);
#340=ORIENTED_EDGE('',*,*,#581,.F.);
#341=ORIENTED_EDGE('',*,*,#506,.F.);
#342=ORIENTED_EDGE('',*,*,#601,.F.);
#343=ORIENTED_EDGE('',*,*,#528,.F.);
#344=ORIENTED_EDGE('',*,*,#584,.F.);
#345=ORIENTED_EDGE('',*,*,#516,.F.);
#346=ORIENTED_EDGE('',*,*,#598,.F.);
#347=ORIENTED_EDGE('',*,*,#514,.F.);
#348=ORIENTED_EDGE('',*,*,#583,.F.);
#349=ORIENTED_EDGE('',*,*,#532,.F.);
#350=ORIENTED_EDGE('',*,*,#599,.F.);
#351=ORIENTED_EDGE('',*,*,#518,.F.);
#352=ORIENTED_EDGE('',*,*,#582,.F.);
#353=ORIENTED_EDGE('',*,*,#530,.F.);
#354=ORIENTED_EDGE('',*,*,#600,.F.);
#355=ORIENTED_EDGE('',*,*,#534,.F.);
#356=ORIENTED_EDGE('',*,*,#612,.F.);
#357=ORIENTED_EDGE('',*,*,#596,.T.);
#358=ORIENTED_EDGE('',*,*,#612,.T.);
#359=ORIENTED_EDGE('',*,*,#613,.F.);
#360=ORIENTED_EDGE('',*,*,#595,.T.);
#361=ORIENTED_EDGE('',*,*,#613,.T.);
#362=ORIENTED_EDGE('',*,*,#614,.F.);
#363=ORIENTED_EDGE('',*,*,#594,.T.);
#364=ORIENTED_EDGE('',*,*,#614,.T.);
#365=ORIENTED_EDGE('',*,*,#615,.F.);
#366=ORIENTED_EDGE('',*,*,#593,.T.);
#367=ORIENTED_EDGE('',*,*,#615,.T.);
#368=ORIENTED_EDGE('',*,*,#616,.F.);
#369=ORIENTED_EDGE('',*,*,#592,.T.);
#370=ORIENTED_EDGE('',*,*,#616,.T.);
#371=ORIENTED_EDGE('',*,*,#617,.F.);
#372=ORIENTED_EDGE('',*,*,#591,.T.);
#373=ORIENTED_EDGE('',*,*,#617,.T.);
#374=ORIENTED_EDGE('',*,*,#618,.F.);
#375=ORIENTED_EDGE('',*,*,#590,.T.);
#376=ORIENTED_EDGE('',*,*,#618,.T.);
#377=ORIENTED_EDGE('',*,*,#619,.F.);
#378=ORIENTED_EDGE('',*,*,#589,.T.);
#379=ORIENTED_EDGE('',*,*,#619,.T.);
#380=ORIENTED_EDGE('',*,*,#620,.F.);
#381=ORIENTED_EDGE('',*,*,#588,.T.);
#382=ORIENTED_EDGE('',*,*,#620,.T.);
#383=ORIENTED_EDGE('',*,*,#621,.F.);
#384=ORIENTED_EDGE('',*,*,#587,.T.);
#385=ORIENTED_EDGE('',*,*,#621,.T.);
#386=ORIENTED_EDGE('',*,*,#622,.F.);
#387=ORIENTED_EDGE('',*,*,#499,.F.);
#388=ORIENTED_EDGE('',*,*,#623,.F.);
#389=ORIENTED_EDGE('',*,*,#555,.F.);
#390=ORIENTED_EDGE('',*,*,#624,.F.);
#391=ORIENTED_EDGE('',*,*,#625,.F.);
#392=ORIENTED_EDGE('',*,*,#624,.T.);
#393=ORIENTED_EDGE('',*,*,#611,.F.);
#394=ORIENTED_EDGE('',*,*,#626,.F.);
#395=ORIENTED_EDGE('',*,*,#623,.T.);
#396=ORIENTED_EDGE('',*,*,#498,.F.);
#397=ORIENTED_EDGE('',*,*,#627,.F.);
#398=ORIENTED_EDGE('',*,*,#609,.F.);
#399=ORIENTED_EDGE('',*,*,#628,.F.);
#400=ORIENTED_EDGE('',*,*,#626,.T.);
#401=ORIENTED_EDGE('',*,*,#551,.F.);
#402=ORIENTED_EDGE('',*,*,#629,.F.);
#403=ORIENTED_EDGE('',*,*,#630,.F.);
#404=ORIENTED_EDGE('',*,*,#501,.F.);
#405=ORIENTED_EDGE('',*,*,#631,.F.);
#406=ORIENTED_EDGE('',*,*,#632,.F.);
#407=ORIENTED_EDGE('',*,*,#559,.F.);
#408=ORIENTED_EDGE('',*,*,#627,.T.);
#409=ORIENTED_EDGE('',*,*,#497,.F.);
#410=ORIENTED_EDGE('',*,*,#633,.F.);
#411=ORIENTED_EDGE('',*,*,#629,.T.);
#412=ORIENTED_EDGE('',*,*,#610,.F.);
#413=ORIENTED_EDGE('',*,*,#634,.F.);
#414=ORIENTED_EDGE('',*,*,#635,.F.);
#415=ORIENTED_EDGE('',*,*,#636,.F.);
#416=ORIENTED_EDGE('',*,*,#608,.F.);
#417=ORIENTED_EDGE('',*,*,#632,.T.);
#418=ORIENTED_EDGE('',*,*,#637,.F.);
#419=ORIENTED_EDGE('',*,*,#488,.F.);
#420=ORIENTED_EDGE('',*,*,#638,.F.);
#421=ORIENTED_EDGE('',*,*,#634,.T.);
#422=ORIENTED_EDGE('',*,*,#547,.F.);
#423=ORIENTED_EDGE('',*,*,#639,.F.);
#424=ORIENTED_EDGE('',*,*,#640,.F.);
#425=ORIENTED_EDGE('',*,*,#641,.F.);
#426=ORIENTED_EDGE('',*,*,#563,.F.);
#427=ORIENTED_EDGE('',*,*,#636,.T.);
#428=ORIENTED_EDGE('',*,*,#642,.F.);
#429=ORIENTED_EDGE('',*,*,#495,.F.);
#430=ORIENTED_EDGE('',*,*,#643,.F.);
#431=ORIENTED_EDGE('',*,*,#639,.T.);
#432=ORIENTED_EDGE('',*,*,#605,.F.);
#433=ORIENTED_EDGE('',*,*,#644,.F.);
#434=ORIENTED_EDGE('',*,*,#645,.F.);
#435=ORIENTED_EDGE('',*,*,#646,.F.);
#436=ORIENTED_EDGE('',*,*,#607,.F.);
#437=ORIENTED_EDGE('',*,*,#641,.T.);
#438=ORIENTED_EDGE('',*,*,#647,.F.);
#439=ORIENTED_EDGE('',*,*,#644,.T.);
#440=ORIENTED_EDGE('',*,*,#543,.F.);
#441=ORIENTED_EDGE('',*,*,#648,.F.);
#442=ORIENTED_EDGE('',*,*,#649,.F.);
#443=ORIENTED_EDGE('',*,*,#490,.F.);
#444=ORIENTED_EDGE('',*,*,#650,.F.);
#445=ORIENTED_EDGE('',*,*,#493,.F.);
#446=ORIENTED_EDGE('',*,*,#651,.F.);
#447=ORIENTED_EDGE('',*,*,#536,.F.);
#448=ORIENTED_EDGE('',*,*,#646,.T.);
#449=ORIENTED_EDGE('',*,*,#652,.F.);
#450=ORIENTED_EDGE('',*,*,#648,.T.);
#451=ORIENTED_EDGE('',*,*,#606,.F.);
#452=ORIENTED_EDGE('',*,*,#653,.F.);
#453=ORIENTED_EDGE('',*,*,#654,.F.);
#454=ORIENTED_EDGE('',*,*,#653,.T.);
#455=ORIENTED_EDGE('',*,*,#539,.F.);
#456=ORIENTED_EDGE('',*,*,#651,.T.);
#457=ORIENTED_EDGE('',*,*,#492,.F.);
#458=ORIENTED_EDGE('',*,*,#567,.T.);
#459=ORIENTED_EDGE('',*,*,#649,.T.);
#460=ORIENTED_EDGE('',*,*,#652,.T.);
#461=ORIENTED_EDGE('',*,*,#654,.T.);
#462=ORIENTED_EDGE('',*,*,#491,.F.);
#463=ORIENTED_EDGE('',*,*,#568,.T.);
#464=ORIENTED_EDGE('',*,*,#650,.T.);
#465=ORIENTED_EDGE('',*,*,#645,.T.);
#466=ORIENTED_EDGE('',*,*,#640,.T.);
#467=ORIENTED_EDGE('',*,*,#494,.F.);
#468=ORIENTED_EDGE('',*,*,#566,.T.);
#469=ORIENTED_EDGE('',*,*,#637,.T.);
#470=ORIENTED_EDGE('',*,*,#643,.T.);
#471=ORIENTED_EDGE('',*,*,#647,.T.);
#472=ORIENTED_EDGE('',*,*,#489,.F.);
#473=ORIENTED_EDGE('',*,*,#569,.T.);
#474=ORIENTED_EDGE('',*,*,#642,.T.);
#475=ORIENTED_EDGE('',*,*,#635,.T.);
#476=ORIENTED_EDGE('',*,*,#631,.T.);
#477=ORIENTED_EDGE('',*,*,#496,.F.);
#478=ORIENTED_EDGE('',*,*,#571,.T.);
#479=ORIENTED_EDGE('',*,*,#630,.T.);
#480=ORIENTED_EDGE('',*,*,#633,.T.);
#481=ORIENTED_EDGE('',*,*,#638,.T.);
#482=ORIENTED_EDGE('',*,*,#502,.F.);
#483=ORIENTED_EDGE('',*,*,#570,.T.);
#484=ORIENTED_EDGE('',*,*,#622,.T.);
#485=ORIENTED_EDGE('',*,*,#625,.T.);
#486=ORIENTED_EDGE('',*,*,#628,.T.);
#487=ORIENTED_EDGE('',*,*,#500,.F.);
#488=EDGE_CURVE('',#655,#656,#770,.T.);
#489=EDGE_CURVE('',#656,#657,#77,.T.);
#490=EDGE_CURVE('',#657,#658,#771,.T.);
#491=EDGE_CURVE('',#658,#659,#78,.T.);
#492=EDGE_CURVE('',#659,#660,#772,.F.);
#493=EDGE_CURVE('',#660,#661,#773,.T.);
#494=EDGE_CURVE('',#661,#662,#79,.T.);
#495=EDGE_CURVE('',#662,#663,#774,.F.);
#496=EDGE_CURVE('',#663,#664,#80,.T.);
#497=EDGE_CURVE('',#664,#665,#775,.F.);
#498=EDGE_CURVE('',#665,#666,#81,.T.);
#499=EDGE_CURVE('',#666,#667,#776,.F.);
#500=EDGE_CURVE('',#667,#668,#82,.T.);
#501=EDGE_CURVE('',#668,#669,#777,.F.);
#502=EDGE_CURVE('',#669,#655,#83,.T.);
#503=EDGE_CURVE('',#670,#671,#778,.T.);
#504=EDGE_CURVE('',#671,#672,#779,.T.);
#505=EDGE_CURVE('',#673,#672,#780,.T.);
#506=EDGE_CURVE('',#673,#670,#781,.F.);
#507=EDGE_CURVE('',#674,#675,#782,.T.);
#508=EDGE_CURVE('',#675,#676,#783,.T.);
#509=EDGE_CURVE('',#677,#676,#784,.T.);
#510=EDGE_CURVE('',#677,#674,#785,.F.);
#511=EDGE_CURVE('',#678,#679,#786,.T.);
#512=EDGE_CURVE('',#679,#680,#787,.F.);
#513=EDGE_CURVE('',#681,#680,#788,.T.);
#514=EDGE_CURVE('',#681,#678,#789,.T.);
#515=EDGE_CURVE('',#682,#683,#790,.T.);
#516=EDGE_CURVE('',#683,#684,#791,.F.);
#517=EDGE_CURVE('',#685,#684,#792,.T.);
#518=EDGE_CURVE('',#685,#682,#793,.T.);
#519=EDGE_CURVE('',#686,#687,#794,.T.);
#520=EDGE_CURVE('',#687,#688,#795,.T.);
#521=EDGE_CURVE('',#689,#688,#796,.T.);
#522=EDGE_CURVE('',#689,#686,#797,.F.);
#523=EDGE_CURVE('',#690,#691,#798,.T.);
#524=EDGE_CURVE('',#690,#692,#799,.T.);
#525=EDGE_CURVE('',#692,#693,#800,.T.);
#526=EDGE_CURVE('',#693,#691,#801,.F.);
#527=EDGE_CURVE('',#694,#695,#802,.T.);
#528=EDGE_CURVE('',#695,#696,#803,.T.);
#529=EDGE_CURVE('',#697,#696,#804,.T.);
#530=EDGE_CURVE('',#697,#694,#805,.F.);
#531=EDGE_CURVE('',#698,#699,#806,.T.);
#532=EDGE_CURVE('',#698,#700,#807,.F.);
#533=EDGE_CURVE('',#700,#701,#808,.T.);
#534=EDGE_CURVE('',#701,#699,#809,.T.);
#535=EDGE_CURVE('',#702,#703,#810,.T.);
#536=EDGE_CURVE('',#703,#704,#811,.F.);
#537=EDGE_CURVE('',#705,#704,#812,.T.);
#538=EDGE_CURVE('',#705,#702,#813,.T.);
#539=EDGE_CURVE('',#704,#706,#814,.T.);
#540=EDGE_CURVE('',#706,#707,#815,.F.);
#541=EDGE_CURVE('',#705,#707,#816,.T.);
#542=EDGE_CURVE('',#708,#709,#817,.T.);
#543=EDGE_CURVE('',#709,#710,#818,.F.);
#544=EDGE_CURVE('',#710,#711,#819,.F.);
#545=EDGE_CURVE('',#711,#708,#820,.T.);
#546=EDGE_CURVE('',#712,#713,#821,.T.);
#547=EDGE_CURVE('',#713,#714,#822,.F.);
#548=EDGE_CURVE('',#714,#715,#823,.F.);
#549=EDGE_CURVE('',#715,#712,#824,.T.);
#550=EDGE_CURVE('',#716,#717,#825,.T.);
#551=EDGE_CURVE('',#717,#718,#826,.T.);
#552=EDGE_CURVE('',#718,#719,#827,.F.);
#553=EDGE_CURVE('',#716,#719,#828,.T.);
#554=EDGE_CURVE('',#720,#721,#829,.T.);
#555=EDGE_CURVE('',#721,#722,#830,.T.);
#556=EDGE_CURVE('',#722,#723,#831,.F.);
#557=EDGE_CURVE('',#720,#723,#832,.T.);
#558=EDGE_CURVE('',#724,#725,#833,.T.);
#559=EDGE_CURVE('',#725,#726,#834,.T.);
#560=EDGE_CURVE('',#726,#727,#835,.F.);
#561=EDGE_CURVE('',#724,#727,#836,.T.);
#562=EDGE_CURVE('',#728,#729,#837,.T.);
#563=EDGE_CURVE('',#729,#730,#838,.T.);
#564=EDGE_CURVE('',#730,#731,#839,.F.);
#565=EDGE_CURVE('',#728,#731,#840,.T.);
#566=EDGE_CURVE('',#732,#732,#84,.T.);
#567=EDGE_CURVE('',#733,#733,#85,.T.);
#568=EDGE_CURVE('',#734,#734,#86,.T.);
#569=EDGE_CURVE('',#735,#735,#87,.T.);
#570=EDGE_CURVE('',#736,#736,#88,.T.);
#571=EDGE_CURVE('',#737,#737,#89,.T.);
#572=EDGE_CURVE('',#711,#712,#90,.T.);
#573=EDGE_CURVE('',#715,#716,#91,.T.);
#574=EDGE_CURVE('',#719,#720,#92,.T.);
#575=EDGE_CURVE('',#723,#724,#93,.F.);
#576=EDGE_CURVE('',#727,#728,#94,.T.);
#577=EDGE_CURVE('',#731,#702,#95,.T.);
#578=EDGE_CURVE('',#707,#708,#96,.T.);
#579=EDGE_CURVE('',#686,#690,#97,.T.);
#580=EDGE_CURVE('',#691,#671,#98,.F.);
#581=EDGE_CURVE('',#670,#695,#99,.F.);
#582=EDGE_CURVE('',#694,#701,#100,.T.);
#583=EDGE_CURVE('',#700,#685,#101,.F.);
#584=EDGE_CURVE('',#684,#681,#102,.F.);
#585=EDGE_CURVE('',#680,#675,#103,.F.);
#586=EDGE_CURVE('',#674,#687,#104,.F.);
#587=EDGE_CURVE('',#738,#738,#105,.T.);
#588=EDGE_CURVE('',#739,#739,#106,.T.);
#589=EDGE_CURVE('',#740,#740,#107,.T.);
#590=EDGE_CURVE('',#741,#741,#108,.T.);
#591=EDGE_CURVE('',#742,#742,#109,.T.);
#592=EDGE_CURVE('',#743,#743,#110,.T.);
#593=EDGE_CURVE('',#744,#744,#111,.T.);
#594=EDGE_CURVE('',#745,#745,#112,.T.);
#595=EDGE_CURVE('',#746,#746,#113,.T.);
#596=EDGE_CURVE('',#747,#747,#114,.T.);
#597=EDGE_CURVE('',#676,#679,#115,.T.);
#598=EDGE_CURVE('',#678,#683,#116,.T.);
#599=EDGE_CURVE('',#682,#698,#117,.T.);
#600=EDGE_CURVE('',#699,#697,#118,.F.);
#601=EDGE_CURVE('',#696,#673,#119,.T.);
#602=EDGE_CURVE('',#672,#693,#120,.T.);
#603=EDGE_CURVE('',#692,#689,#121,.F.);
#604=EDGE_CURVE('',#688,#677,#122,.T.);
#605=EDGE_CURVE('',#710,#713,#123,.F.);
#606=EDGE_CURVE('',#706,#709,#124,.T.);
#607=EDGE_CURVE('',#730,#703,#125,.T.);
#608=EDGE_CURVE('',#726,#729,#126,.F.);
#609=EDGE_CURVE('',#722,#725,#127,.F.);
#610=EDGE_CURVE('',#714,#717,#128,.T.);
#611=EDGE_CURVE('',#718,#721,#129,.F.);
#612=EDGE_CURVE('',#748,#748,#130,.T.);
#613=EDGE_CURVE('',#749,#749,#131,.T.);
#614=EDGE_CURVE('',#750,#750,#132,.T.);
#615=EDGE_CURVE('',#751,#751,#133,.T.);
#616=EDGE_CURVE('',#752,#752,#134,.T.);
#617=EDGE_CURVE('',#753,#753,#135,.T.);
#618=EDGE_CURVE('',#754,#754,#136,.T.);
#619=EDGE_CURVE('',#755,#755,#137,.T.);
#620=EDGE_CURVE('',#756,#756,#138,.T.);
#621=EDGE_CURVE('',#757,#757,#139,.T.);
#622=EDGE_CURVE('',#667,#758,#20,.T.);
#623=EDGE_CURVE('',#722,#666,#140,.T.);
#624=EDGE_CURVE('',#758,#721,#141,.T.);
#625=EDGE_CURVE('',#758,#759,#21,.T.);
#626=EDGE_CURVE('',#759,#718,#142,.T.);
#627=EDGE_CURVE('',#725,#665,#143,.T.);
#628=EDGE_CURVE('',#759,#668,#22,.T.);
#629=EDGE_CURVE('',#760,#717,#144,.T.);
#630=EDGE_CURVE('',#669,#760,#23,.T.);
#631=EDGE_CURVE('',#761,#664,#24,.T.);
#632=EDGE_CURVE('',#726,#761,#145,.T.);
#633=EDGE_CURVE('',#760,#762,#25,.T.);
#634=EDGE_CURVE('',#762,#714,#146,.T.);
#635=EDGE_CURVE('',#763,#761,#26,.T.);
#636=EDGE_CURVE('',#729,#763,#147,.T.);
#637=EDGE_CURVE('',#656,#764,#27,.T.);
#638=EDGE_CURVE('',#762,#655,#28,.T.);
#639=EDGE_CURVE('',#764,#713,#148,.T.);
#640=EDGE_CURVE('',#765,#662,#29,.T.);
#641=EDGE_CURVE('',#730,#765,#149,.T.);
#642=EDGE_CURVE('',#663,#763,#30,.T.);
#643=EDGE_CURVE('',#764,#766,#31,.T.);
#644=EDGE_CURVE('',#766,#710,#150,.T.);
#645=EDGE_CURVE('',#767,#765,#32,.T.);
#646=EDGE_CURVE('',#703,#767,#151,.T.);
#647=EDGE_CURVE('',#766,#657,#33,.T.);
#648=EDGE_CURVE('',#768,#709,#152,.T.);
#649=EDGE_CURVE('',#658,#768,#34,.T.);
#650=EDGE_CURVE('',#661,#767,#35,.T.);
#651=EDGE_CURVE('',#704,#660,#12,.T.);
#652=EDGE_CURVE('',#768,#769,#36,.T.);
#653=EDGE_CURVE('',#769,#706,#153,.T.);
#654=EDGE_CURVE('',#769,#659,#37,.T.);
#655=VERTEX_POINT('',#1780);
#656=VERTEX_POINT('',#1781);
#657=VERTEX_POINT('',#1783);
#658=VERTEX_POINT('',#1785);
#659=VERTEX_POINT('',#1787);
#660=VERTEX_POINT('',#1789);
#661=VERTEX_POINT('',#1791);
#662=VERTEX_POINT('',#1793);
#663=VERTEX_POINT('',#1795);
#664=VERTEX_POINT('',#1797);
#665=VERTEX_POINT('',#1799);
#666=VERTEX_POINT('',#1801);
#667=VERTEX_POINT('',#1803);
#668=VERTEX_POINT('',#1805);
#669=VERTEX_POINT('',#1807);
#670=VERTEX_POINT('',#1811);
#671=VERTEX_POINT('',#1812);
#672=VERTEX_POINT('',#1814);
#673=VERTEX_POINT('',#1816);
#674=VERTEX_POINT('',#1820);
#675=VERTEX_POINT('',#1821);
#676=VERTEX_POINT('',#1823);
#677=VERTEX_POINT('',#1825);
#678=VERTEX_POINT('',#1829);
#679=VERTEX_POINT('',#1830);
#680=VERTEX_POINT('',#1832);
#681=VERTEX_POINT('',#1834);
#682=VERTEX_POINT('',#1838);
#683=VERTEX_POINT('',#1839);
#684=VERTEX_POINT('',#1841);
#685=VERTEX_POINT('',#1843);
#686=VERTEX_POINT('',#1847);
#687=VERTEX_POINT('',#1848);
#688=VERTEX_POINT('',#1850);
#689=VERTEX_POINT('',#1852);
#690=VERTEX_POINT('',#1856);
#691=VERTEX_POINT('',#1857);
#692=VERTEX_POINT('',#1859);
#693=VERTEX_POINT('',#1861);
#694=VERTEX_POINT('',#1865);
#695=VERTEX_POINT('',#1866);
#696=VERTEX_POINT('',#1868);
#697=VERTEX_POINT('',#1870);
#698=VERTEX_POINT('',#1874);
#699=VERTEX_POINT('',#1875);
#700=VERTEX_POINT('',#1877);
#701=VERTEX_POINT('',#1879);
#702=VERTEX_POINT('',#1883);
#703=VERTEX_POINT('',#1884);
#704=VERTEX_POINT('',#1886);
#705=VERTEX_POINT('',#1888);
#706=VERTEX_POINT('',#1892);
#707=VERTEX_POINT('',#1894);
#708=VERTEX_POINT('',#1898);
#709=VERTEX_POINT('',#1899);
#710=VERTEX_POINT('',#1901);
#711=VERTEX_POINT('',#1903);
#712=VERTEX_POINT('',#1907);
#713=VERTEX_POINT('',#1908);
#714=VERTEX_POINT('',#1910);
#715=VERTEX_POINT('',#1912);
#716=VERTEX_POINT('',#1916);
#717=VERTEX_POINT('',#1917);
#718=VERTEX_POINT('',#1919);
#719=VERTEX_POINT('',#1921);
#720=VERTEX_POINT('',#1925);
#721=VERTEX_POINT('',#1926);
#722=VERTEX_POINT('',#1928);
#723=VERTEX_POINT('',#1930);
#724=VERTEX_POINT('',#1934);
#725=VERTEX_POINT('',#1935);
#726=VERTEX_POINT('',#1937);
#727=VERTEX_POINT('',#1939);
#728=VERTEX_POINT('',#1943);
#729=VERTEX_POINT('',#1944);
#730=VERTEX_POINT('',#1946);
#731=VERTEX_POINT('',#1948);
#732=VERTEX_POINT('',#1952);
#733=VERTEX_POINT('',#1954);
#734=VERTEX_POINT('',#1956);
#735=VERTEX_POINT('',#1958);
#736=VERTEX_POINT('',#1960);
#737=VERTEX_POINT('',#1962);
#738=VERTEX_POINT('',#1980);
#739=VERTEX_POINT('',#1982);
#740=VERTEX_POINT('',#1984);
#741=VERTEX_POINT('',#1986);
#742=VERTEX_POINT('',#1988);
#743=VERTEX_POINT('',#1990);
#744=VERTEX_POINT('',#1992);
#745=VERTEX_POINT('',#1994);
#746=VERTEX_POINT('',#1996);
#747=VERTEX_POINT('',#1998);
#748=VERTEX_POINT('',#2031);
#749=VERTEX_POINT('',#2035);
#750=VERTEX_POINT('',#2039);
#751=VERTEX_POINT('',#2043);
#752=VERTEX_POINT('',#2047);
#753=VERTEX_POINT('',#2051);
#754=VERTEX_POINT('',#2055);
#755=VERTEX_POINT('',#2059);
#756=VERTEX_POINT('',#2063);
#757=VERTEX_POINT('',#2067);
#758=VERTEX_POINT('',#2074);
#759=VERTEX_POINT('',#2083);
#760=VERTEX_POINT('',#2093);
#761=VERTEX_POINT('',#2103);
#762=VERTEX_POINT('',#2111);
#763=VERTEX_POINT('',#2119);
#764=VERTEX_POINT('',#2126);
#765=VERTEX_POINT('',#2137);
#766=VERTEX_POINT('',#2149);
#767=VERTEX_POINT('',#2157);
#768=VERTEX_POINT('',#2165);
#769=VERTEX_POINT('',#2182);
#770=LINE('',#1779,#841);
#771=LINE('',#1784,#842);
#772=LINE('',#1788,#843);
#773=LINE('',#1790,#844);
#774=LINE('',#1794,#845);
#775=LINE('',#1798,#846);
#776=LINE('',#1802,#847);
#777=LINE('',#1806,#848);
#778=LINE('',#1810,#849);
#779=LINE('',#1813,#850);
#780=LINE('',#1815,#851);
#781=LINE('',#1817,#852);
#782=LINE('',#1819,#853);
#783=LINE('',#1822,#854);
#784=LINE('',#1824,#855);
#785=LINE('',#1826,#856);
#786=LINE('',#1828,#857);
#787=LINE('',#1831,#858);
#788=LINE('',#1833,#859);
#789=LINE('',#1835,#860);
#790=LINE('',#1837,#861);
#791=LINE('',#1840,#862);
#792=LINE('',#1842,#863);
#793=LINE('',#1844,#864);
#794=LINE('',#1846,#865);
#795=LINE('',#1849,#866);
#796=LINE('',#1851,#867);
#797=LINE('',#1853,#868);
#798=LINE('',#1855,#869);
#799=LINE('',#1858,#870);
#800=LINE('',#1860,#871);
#801=LINE('',#1862,#872);
#802=LINE('',#1864,#873);
#803=LINE('',#1867,#874);
#804=LINE('',#1869,#875);
#805=LINE('',#1871,#876);
#806=LINE('',#1873,#877);
#807=LINE('',#1876,#878);
#808=LINE('',#1878,#879);
#809=LINE('',#1880,#880);
#810=LINE('',#1882,#881);
#811=LINE('',#1885,#882);
#812=LINE('',#1887,#883);
#813=LINE('',#1889,#884);
#814=LINE('',#1891,#885);
#815=LINE('',#1893,#886);
#816=LINE('',#1895,#887);
#817=LINE('',#1897,#888);
#818=LINE('',#1900,#889);
#819=LINE('',#1902,#890);
#820=LINE('',#1904,#891);
#821=LINE('',#1906,#892);
#822=LINE('',#1909,#893);
#823=LINE('',#1911,#894);
#824=LINE('',#1913,#895);
#825=LINE('',#1915,#896);
#826=LINE('',#1918,#897);
#827=LINE('',#1920,#898);
#828=LINE('',#1922,#899);
#829=LINE('',#1924,#900);
#830=LINE('',#1927,#901);
#831=LINE('',#1929,#902);
#832=LINE('',#1931,#903);
#833=LINE('',#1933,#904);
#834=LINE('',#1936,#905);
#835=LINE('',#1938,#906);
#836=LINE('',#1940,#907);
#837=LINE('',#1942,#908);
#838=LINE('',#1945,#909);
#839=LINE('',#1947,#910);
#840=LINE('',#1949,#911);
#841=VECTOR('',#1402,1.);
#842=VECTOR('',#1405,1.);
#843=VECTOR('',#1408,1.);
#844=VECTOR('',#1409,1.);
#845=VECTOR('',#1412,1.);
#846=VECTOR('',#1415,1.);
#847=VECTOR('',#1418,1.);
#848=VECTOR('',#1421,1.);
#849=VECTOR('',#1426,1.);
#850=VECTOR('',#1427,1.);
#851=VECTOR('',#1428,1.);
#852=VECTOR('',#1429,1.);
#853=VECTOR('',#1432,1.);
#854=VECTOR('',#1433,1.);
#855=VECTOR('',#1434,1.);
#856=VECTOR('',#1435,1.);
#857=VECTOR('',#1438,1.);
#858=VECTOR('',#1439,1.);
#859=VECTOR('',#1440,1.);
#860=VECTOR('',#1441,1.);
#861=VECTOR('',#1444,1.);
#862=VECTOR('',#1445,1.);
#863=VECTOR('',#1446,1.);
#864=VECTOR('',#1447,1.);
#865=VECTOR('',#1450,1.);
#866=VECTOR('',#1451,1.);
#867=VECTOR('',#1452,1.);
#868=VECTOR('',#1453,1.);
#869=VECTOR('',#1456,1.);
#870=VECTOR('',#1457,1.);
#871=VECTOR('',#1458,1.);
#872=VECTOR('',#1459,1.);
#873=VECTOR('',#1462,1.);
#874=VECTOR('',#1463,1.);
#875=VECTOR('',#1464,1.);
#876=VECTOR('',#1465,1.);
#877=VECTOR('',#1468,1.);
#878=VECTOR('',#1469,1.);
#879=VECTOR('',#1470,1.);
#880=VECTOR('',#1471,1.);
#881=VECTOR('',#1474,1.);
#882=VECTOR('',#1475,1.);
#883=VECTOR('',#1476,1.);
#884=VECTOR('',#1477,1.);
#885=VECTOR('',#1480,1.);
#886=VECTOR('',#1481,1.);
#887=VECTOR('',#1482,1.);
#888=VECTOR('',#1485,1.);
#889=VECTOR('',#1486,1.);
#890=VECTOR('',#1487,1.);
#891=VECTOR('',#1488,1.);
#892=VECTOR('',#1491,1.);
#893=VECTOR('',#1492,1.);
#894=VECTOR('',#1493,1.);
#895=VECTOR('',#1494,1.);
#896=VECTOR('',#1497,1.);
#897=VECTOR('',#1498,1.);
#898=VECTOR('',#1499,1.);
#899=VECTOR('',#1500,1.);
#900=VECTOR('',#1503,1.);
#901=VECTOR('',#1504,1.);
#902=VECTOR('',#1505,1.);
#903=VECTOR('',#1506,1.);
#904=VECTOR('',#1509,1.);
#905=VECTOR('',#1510,1.);
#906=VECTOR('',#1511,1.);
#907=VECTOR('',#1512,1.);
#908=VECTOR('',#1515,1.);
#909=VECTOR('',#1516,1.);
#910=VECTOR('',#1517,1.);
#911=VECTOR('',#1518,1.);
#912=EDGE_LOOP('',(#154,#155,#156,#157,#158,#159,#160,#161,#162,#163,#164,
#165,#166,#167,#168));
#913=EDGE_LOOP('',(#169,#170,#171,#172));
#914=EDGE_LOOP('',(#173,#174,#175,#176));
#915=EDGE_LOOP('',(#177,#178,#179,#180));
#916=EDGE_LOOP('',(#181,#182,#183,#184));
#917=EDGE_LOOP('',(#185,#186,#187,#188));
#918=EDGE_LOOP('',(#189,#190,#191,#192));
#919=EDGE_LOOP('',(#193,#194,#195,#196));
#920=EDGE_LOOP('',(#197,#198,#199,#200));
#921=EDGE_LOOP('',(#201,#202,#203,#204));
#922=EDGE_LOOP('',(#205,#206,#207,#208));
#923=EDGE_LOOP('',(#209,#210,#211,#212));
#924=EDGE_LOOP('',(#213,#214,#215,#216));
#925=EDGE_LOOP('',(#217,#218,#219,#220));
#926=EDGE_LOOP('',(#221,#222,#223,#224));
#927=EDGE_LOOP('',(#225,#226,#227,#228));
#928=EDGE_LOOP('',(#229,#230,#231,#232));
#929=EDGE_LOOP('',(#233));
#930=EDGE_LOOP('',(#234));
#931=EDGE_LOOP('',(#235));
#932=EDGE_LOOP('',(#236));
#933=EDGE_LOOP('',(#237));
#934=EDGE_LOOP('',(#238));
#935=EDGE_LOOP('',(#239,#240,#241,#242,#243,#244,#245,#246,#247,#248,#249,
#250,#251,#252,#253));
#936=EDGE_LOOP('',(#254,#255,#256,#257,#258,#259,#260,#261,#262,#263,#264,
#265,#266,#267,#268,#269));
#937=EDGE_LOOP('',(#270));
#938=EDGE_LOOP('',(#271));
#939=EDGE_LOOP('',(#272));
#940=EDGE_LOOP('',(#273));
#941=EDGE_LOOP('',(#274));
#942=EDGE_LOOP('',(#275));
#943=EDGE_LOOP('',(#276));
#944=EDGE_LOOP('',(#277));
#945=EDGE_LOOP('',(#278));
#946=EDGE_LOOP('',(#279));
#947=EDGE_LOOP('',(#280,#281,#282,#283,#284,#285,#286,#287,#288,#289,#290,
#291,#292,#293,#294,#295));
#948=EDGE_LOOP('',(#296,#297,#298,#299));
#949=EDGE_LOOP('',(#300,#301,#302,#303));
#950=EDGE_LOOP('',(#304,#305,#306,#307));
#951=EDGE_LOOP('',(#308,#309,#310,#311));
#952=EDGE_LOOP('',(#312,#313,#314,#315));
#953=EDGE_LOOP('',(#316,#317,#318,#319));
#954=EDGE_LOOP('',(#320,#321,#322,#323));
#955=EDGE_LOOP('',(#324,#325,#326,#327));
#956=EDGE_LOOP('',(#328,#329,#330,#331));
#957=EDGE_LOOP('',(#332,#333,#334,#335));
#958=EDGE_LOOP('',(#336,#337,#338,#339));
#959=EDGE_LOOP('',(#340,#341,#342,#343));
#960=EDGE_LOOP('',(#344,#345,#346,#347));
#961=EDGE_LOOP('',(#348,#349,#350,#351));
#962=EDGE_LOOP('',(#352,#353,#354,#355));
#963=EDGE_LOOP('',(#356));
#964=EDGE_LOOP('',(#357));
#965=EDGE_LOOP('',(#358));
#966=EDGE_LOOP('',(#359));
#967=EDGE_LOOP('',(#360));
#968=EDGE_LOOP('',(#361));
#969=EDGE_LOOP('',(#362));
#970=EDGE_LOOP('',(#363));
#971=EDGE_LOOP('',(#364));
#972=EDGE_LOOP('',(#365));
#973=EDGE_LOOP('',(#366));
#974=EDGE_LOOP('',(#367));
#975=EDGE_LOOP('',(#368));
#976=EDGE_LOOP('',(#369));
#977=EDGE_LOOP('',(#370));
#978=EDGE_LOOP('',(#371));
#979=EDGE_LOOP('',(#372));
#980=EDGE_LOOP('',(#373));
#981=EDGE_LOOP('',(#374));
#982=EDGE_LOOP('',(#375));
#983=EDGE_LOOP('',(#376));
#984=EDGE_LOOP('',(#377));
#985=EDGE_LOOP('',(#378));
#986=EDGE_LOOP('',(#379));
#987=EDGE_LOOP('',(#380));
#988=EDGE_LOOP('',(#381));
#989=EDGE_LOOP('',(#382));
#990=EDGE_LOOP('',(#383));
#991=EDGE_LOOP('',(#384));
#992=EDGE_LOOP('',(#385));
#993=EDGE_LOOP('',(#386,#387,#388,#389,#390));
#994=EDGE_LOOP('',(#391,#392,#393,#394));
#995=EDGE_LOOP('',(#395,#396,#397,#398));
#996=EDGE_LOOP('',(#399,#400,#401,#402,#403,#404));
#997=EDGE_LOOP('',(#405,#406,#407,#408,#409));
#998=EDGE_LOOP('',(#410,#411,#412,#413));
#999=EDGE_LOOP('',(#414,#415,#416,#417));
#1000=EDGE_LOOP('',(#418,#419,#420,#421,#422,#423));
#1001=EDGE_LOOP('',(#424,#425,#426,#427,#428,#429));
#1002=EDGE_LOOP('',(#430,#431,#432,#433));
#1003=EDGE_LOOP('',(#434,#435,#436,#437));
#1004=EDGE_LOOP('',(#438,#439,#440,#441,#442,#443));
#1005=EDGE_LOOP('',(#444,#445,#446,#447,#448));
#1006=EDGE_LOOP('',(#449,#450,#451,#452));
#1007=EDGE_LOOP('',(#453,#454,#455,#456,#457));
#1008=EDGE_LOOP('',(#458));
#1009=EDGE_LOOP('',(#459,#460,#461,#462));
#1010=EDGE_LOOP('',(#463));
#1011=EDGE_LOOP('',(#464,#465,#466,#467));
#1012=EDGE_LOOP('',(#468));
#1013=EDGE_LOOP('',(#469,#470,#471,#472));
#1014=EDGE_LOOP('',(#473));
#1015=EDGE_LOOP('',(#474,#475,#476,#477));
#1016=EDGE_LOOP('',(#478));
#1017=EDGE_LOOP('',(#479,#480,#481,#482));
#1018=EDGE_LOOP('',(#483));
#1019=EDGE_LOOP('',(#484,#485,#486,#487));
#1020=FACE_BOUND('',#912,.T.);
#1021=FACE_BOUND('',#913,.T.);
#1022=FACE_BOUND('',#914,.T.);
#1023=FACE_BOUND('',#915,.T.);
#1024=FACE_BOUND('',#916,.T.);
#1025=FACE_BOUND('',#917,.T.);
#1026=FACE_BOUND('',#918,.T.);
#1027=FACE_BOUND('',#919,.T.);
#1028=FACE_BOUND('',#920,.T.);
#1029=FACE_BOUND('',#921,.T.);
#1030=FACE_BOUND('',#922,.T.);
#1031=FACE_BOUND('',#923,.T.);
#1032=FACE_BOUND('',#924,.T.);
#1033=FACE_BOUND('',#925,.T.);
#1034=FACE_BOUND('',#926,.T.);
#1035=FACE_BOUND('',#927,.T.);
#1036=FACE_BOUND('',#928,.T.);
#1037=FACE_BOUND('',#929,.T.);
#1038=FACE_BOUND('',#930,.T.);
#1039=FACE_BOUND('',#931,.T.);
#1040=FACE_BOUND('',#932,.T.);
#1041=FACE_BOUND('',#933,.T.);
#1042=FACE_BOUND('',#934,.T.);
#1043=FACE_BOUND('',#935,.T.);
#1044=FACE_BOUND('',#936,.T.);
#1045=FACE_BOUND('',#937,.T.);
#1046=FACE_BOUND('',#938,.T.);
#1047=FACE_BOUND('',#939,.T.);
#1048=FACE_BOUND('',#940,.T.);
#1049=FACE_BOUND('',#941,.T.);
#1050=FACE_BOUND('',#942,.T.);
#1051=FACE_BOUND('',#943,.T.);
#1052=FACE_BOUND('',#944,.T.);
#1053=FACE_BOUND('',#945,.T.);
#1054=FACE_BOUND('',#946,.T.);
#1055=FACE_BOUND('',#947,.T.);
#1056=FACE_BOUND('',#948,.T.);
#1057=FACE_BOUND('',#949,.T.);
#1058=FACE_BOUND('',#950,.T.);
#1059=FACE_BOUND('',#951,.T.);
#1060=FACE_BOUND('',#952,.T.);
#1061=FACE_BOUND('',#953,.T.);
#1062=FACE_BOUND('',#954,.T.);
#1063=FACE_BOUND('',#955,.T.);
#1064=FACE_BOUND('',#956,.T.);
#1065=FACE_BOUND('',#957,.T.);
#1066=FACE_BOUND('',#958,.T.);
#1067=FACE_BOUND('',#959,.T.);
#1068=FACE_BOUND('',#960,.T.);
#1069=FACE_BOUND('',#961,.T.);
#1070=FACE_BOUND('',#962,.T.);
#1071=FACE_BOUND('',#963,.T.);
#1072=FACE_BOUND('',#964,.T.);
#1073=FACE_BOUND('',#965,.T.);
#1074=FACE_BOUND('',#966,.T.);
#1075=FACE_BOUND('',#967,.T.);
#1076=FACE_BOUND('',#968,.T.);
#1077=FACE_BOUND('',#969,.T.);
#1078=FACE_BOUND('',#970,.T.);
#1079=FACE_BOUND('',#971,.T.);
#1080=FACE_BOUND('',#972,.T.);
#1081=FACE_BOUND('',#973,.T.);
#1082=FACE_BOUND('',#974,.T.);
#1083=FACE_BOUND('',#975,.T.);
#1084=FACE_BOUND('',#976,.T.);
#1085=FACE_BOUND('',#977,.T.);
#1086=FACE_BOUND('',#978,.T.);
#1087=FACE_BOUND('',#979,.T.);
#1088=FACE_BOUND('',#980,.T.);
#1089=FACE_BOUND('',#981,.T.);
#1090=FACE_BOUND('',#982,.T.);
#1091=FACE_BOUND('',#983,.T.);
#1092=FACE_BOUND('',#984,.T.);
#1093=FACE_BOUND('',#985,.T.);
#1094=FACE_BOUND('',#986,.T.);
#1095=FACE_BOUND('',#987,.T.);
#1096=FACE_BOUND('',#988,.T.);
#1097=FACE_BOUND('',#989,.T.);
#1098=FACE_BOUND('',#990,.T.);
#1099=FACE_BOUND('',#991,.T.);
#1100=FACE_BOUND('',#992,.T.);
#1101=FACE_BOUND('',#993,.T.);
#1102=FACE_BOUND('',#994,.T.);
#1103=FACE_BOUND('',#995,.T.);
#1104=FACE_BOUND('',#996,.T.);
#1105=FACE_BOUND('',#997,.T.);
#1106=FACE_BOUND('',#998,.T.);
#1107=FACE_BOUND('',#999,.T.);
#1108=FACE_BOUND('',#1000,.T.);
#1109=FACE_BOUND('',#1001,.T.);
#1110=FACE_BOUND('',#1002,.T.);
#1111=FACE_BOUND('',#1003,.T.);
#1112=FACE_BOUND('',#1004,.T.);
#1113=FACE_BOUND('',#1005,.T.);
#1114=FACE_BOUND('',#1006,.T.);
#1115=FACE_BOUND('',#1007,.T.);
#1116=FACE_BOUND('',#1008,.T.);
#1117=FACE_BOUND('',#1009,.T.);
#1118=FACE_BOUND('',#1010,.T.);
#1119=FACE_BOUND('',#1011,.T.);
#1120=FACE_BOUND('',#1012,.T.);
#1121=FACE_BOUND('',#1013,.T.);
#1122=FACE_BOUND('',#1014,.T.);
#1123=FACE_BOUND('',#1015,.T.);
#1124=FACE_BOUND('',#1016,.T.);
#1125=FACE_BOUND('',#1017,.T.);
#1126=FACE_BOUND('',#1018,.T.);
#1127=FACE_BOUND('',#1019,.T.);
#1128=PLANE('',#1245);
#1129=PLANE('',#1253);
#1130=PLANE('',#1254);
#1131=PLANE('',#1255);
#1132=PLANE('',#1256);
#1133=PLANE('',#1257);
#1134=PLANE('',#1258);
#1135=PLANE('',#1259);
#1136=PLANE('',#1260);
#1137=PLANE('',#1261);
#1138=PLANE('',#1262);
#1139=PLANE('',#1263);
#1140=PLANE('',#1264);
#1141=PLANE('',#1265);
#1142=PLANE('',#1266);
#1143=PLANE('',#1267);
#1144=PLANE('',#1268);
#1145=PLANE('',#1269);
#1146=PLANE('',#1291);
#1147=PLANE('',#1334);
#1148=PLANE('',#1337);
#1149=PLANE('',#1340);
#1150=PLANE('',#1343);
#1151=PLANE('',#1346);
#1152=PLANE('',#1349);
#1153=PLANE('',#1352);
#1154=PLANE('',#1355);
#1155=PLANE('',#1358);
#1156=PLANE('',#1361);
#1157=ADVANCED_FACE('',(#1020),#1128,.F.);
#1158=ADVANCED_FACE('',(#1021),#1129,.T.);
#1159=ADVANCED_FACE('',(#1022),#1130,.T.);
#1160=ADVANCED_FACE('',(#1023),#1131,.F.);
#1161=ADVANCED_FACE('',(#1024),#1132,.F.);
#1162=ADVANCED_FACE('',(#1025),#1133,.T.);
#1163=ADVANCED_FACE('',(#1026),#1134,.F.);
#1164=ADVANCED_FACE('',(#1027),#1135,.T.);
#1165=ADVANCED_FACE('',(#1028),#1136,.T.);
#1166=ADVANCED_FACE('',(#1029),#1137,.T.);
#1167=ADVANCED_FACE('',(#1030),#1138,.F.);
#1168=ADVANCED_FACE('',(#1031),#1139,.T.);
#1169=ADVANCED_FACE('',(#1032),#1140,.T.);
#1170=ADVANCED_FACE('',(#1033),#1141,.F.);
#1171=ADVANCED_FACE('',(#1034),#1142,.F.);
#1172=ADVANCED_FACE('',(#1035),#1143,.F.);
#1173=ADVANCED_FACE('',(#1036),#1144,.F.);
#1174=ADVANCED_FACE('',(#1037,#1038,#1039,#1040,#1041,#1042,#1043,#1044),
#1145,.T.);
#1175=ADVANCED_FACE('',(#1045,#1046,#1047,#1048,#1049,#1050,#1051,#1052,
#1053,#1054,#1055),#1146,.T.);
#1176=ADVANCED_FACE('',(#1056),#38,.T.);
#1177=ADVANCED_FACE('',(#1057),#39,.T.);
#1178=ADVANCED_FACE('',(#1058),#40,.T.);
#1179=ADVANCED_FACE('',(#1059),#41,.T.);
#1180=ADVANCED_FACE('',(#1060),#42,.F.);
#1181=ADVANCED_FACE('',(#1061),#43,.T.);
#1182=ADVANCED_FACE('',(#1062),#44,.T.);
#1183=ADVANCED_FACE('',(#1063),#45,.F.);
#1184=ADVANCED_FACE('',(#1064),#46,.F.);
#1185=ADVANCED_FACE('',(#1065),#47,.T.);
#1186=ADVANCED_FACE('',(#1066),#48,.F.);
#1187=ADVANCED_FACE('',(#1067),#49,.F.);
#1188=ADVANCED_FACE('',(#1068),#50,.F.);
#1189=ADVANCED_FACE('',(#1069),#51,.F.);
#1190=ADVANCED_FACE('',(#1070),#52,.T.);
#1191=ADVANCED_FACE('',(#1071,#1072),#53,.T.);
#1192=ADVANCED_FACE('',(#1073),#1147,.T.);
#1193=ADVANCED_FACE('',(#1074,#1075),#54,.T.);
#1194=ADVANCED_FACE('',(#1076),#1148,.T.);
#1195=ADVANCED_FACE('',(#1077,#1078),#55,.T.);
#1196=ADVANCED_FACE('',(#1079),#1149,.T.);
#1197=ADVANCED_FACE('',(#1080,#1081),#56,.T.);
#1198=ADVANCED_FACE('',(#1082),#1150,.T.);
#1199=ADVANCED_FACE('',(#1083,#1084),#57,.T.);
#1200=ADVANCED_FACE('',(#1085),#1151,.T.);
#1201=ADVANCED_FACE('',(#1086,#1087),#58,.T.);
#1202=ADVANCED_FACE('',(#1088),#1152,.T.);
#1203=ADVANCED_FACE('',(#1089,#1090),#59,.T.);
#1204=ADVANCED_FACE('',(#1091),#1153,.T.);
#1205=ADVANCED_FACE('',(#1092,#1093),#60,.T.);
#1206=ADVANCED_FACE('',(#1094),#1154,.T.);
#1207=ADVANCED_FACE('',(#1095,#1096),#61,.T.);
#1208=ADVANCED_FACE('',(#1097),#1155,.T.);
#1209=ADVANCED_FACE('',(#1098,#1099),#62,.T.);
#1210=ADVANCED_FACE('',(#1100),#1156,.T.);
#1211=ADVANCED_FACE('',(#1101),#63,.T.);
#1212=ADVANCED_FACE('',(#1102),#14,.T.);
#1213=ADVANCED_FACE('',(#1103),#13,.T.);
#1214=ADVANCED_FACE('',(#1104),#64,.T.);
#1215=ADVANCED_FACE('',(#1105),#65,.T.);
#1216=ADVANCED_FACE('',(#1106),#15,.T.);
#1217=ADVANCED_FACE('',(#1107),#16,.T.);
#1218=ADVANCED_FACE('',(#1108),#66,.T.);
#1219=ADVANCED_FACE('',(#1109),#67,.T.);
#1220=ADVANCED_FACE('',(#1110),#17,.T.);
#1221=ADVANCED_FACE('',(#1111),#18,.T.);
#1222=ADVANCED_FACE('',(#1112),#68,.T.);
#1223=ADVANCED_FACE('',(#1113),#69,.T.);
#1224=ADVANCED_FACE('',(#1114),#19,.T.);
#1225=ADVANCED_FACE('',(#1115),#70,.T.);
#1226=ADVANCED_FACE('',(#1116,#1117),#71,.F.);
#1227=ADVANCED_FACE('',(#1118,#1119),#72,.F.);
#1228=ADVANCED_FACE('',(#1120,#1121),#73,.F.);
#1229=ADVANCED_FACE('',(#1122,#1123),#74,.F.);
#1230=ADVANCED_FACE('',(#1124,#1125),#75,.F.);
#1231=ADVANCED_FACE('',(#1126,#1127),#76,.F.);
#1232=CLOSED_SHELL('',(#1157,#1158,#1159,#1160,#1161,#1162,#1163,#1164,
#1165,#1166,#1167,#1168,#1169,#1170,#1171,#1172,#1173,#1174,#1175,#1176,
#1177,#1178,#1179,#1180,#1181,#1182,#1183,#1184,#1185,#1186,#1187,#1188,
#1189,#1190,#1191,#1192,#1193,#1194,#1195,#1196,#1197,#1198,#1199,#1200,
#1201,#1202,#1203,#1204,#1205,#1206,#1207,#1208,#1209,#1210,#1211,#1212,
#1213,#1214,#1215,#1216,#1217,#1218,#1219,#1220,#1221,#1222,#1223,#1224,
#1225,#1226,#1227,#1228,#1229,#1230,#1231));
#1233=STYLED_ITEM('',(#1234),#1241);
#1234=PRESENTATION_STYLE_ASSIGNMENT((#1235));
#1235=SURFACE_STYLE_USAGE(.BOTH.,#1236);
#1236=SURFACE_SIDE_STYLE('',(#1237));
#1237=SURFACE_STYLE_FILL_AREA(#1238);
#1238=FILL_AREA_STYLE('',(#1239));
#1239=FILL_AREA_STYLE_COLOUR('',#1240);
#1240=DRAUGHTING_PRE_DEFINED_COLOUR('white');
#1241=MANIFOLD_SOLID_BREP('Part 1',#1232);
#1242=SHAPE_DEFINITION_REPRESENTATION(#2201,#1243);
#1243=SHAPE_REPRESENTATION('Part 1',(#1244),#2196);
#1244=AXIS2_PLACEMENT_3D('',#1777,#1398,#1399);
#1245=AXIS2_PLACEMENT_3D('',#1778,#1400,#1401);
#1246=AXIS2_PLACEMENT_3D('',#1782,#1403,#1404);
#1247=AXIS2_PLACEMENT_3D('',#1786,#1406,#1407);
#1248=AXIS2_PLACEMENT_3D('',#1792,#1410,#1411);
#1249=AXIS2_PLACEMENT_3D('',#1796,#1413,#1414);
#1250=AXIS2_PLACEMENT_3D('',#1800,#1416,#1417);
#1251=AXIS2_PLACEMENT_3D('',#1804,#1419,#1420);
#1252=AXIS2_PLACEMENT_3D('',#1808,#1422,#1423);
#1253=AXIS2_PLACEMENT_3D('',#1809,#1424,#1425);
#1254=AXIS2_PLACEMENT_3D('',#1818,#1430,#1431);
#1255=AXIS2_PLACEMENT_3D('',#1827,#1436,#1437);
#1256=AXIS2_PLACEMENT_3D('',#1836,#1442,#1443);
#1257=AXIS2_PLACEMENT_3D('',#1845,#1448,#1449);
#1258=AXIS2_PLACEMENT_3D('',#1854,#1454,#1455);
#1259=AXIS2_PLACEMENT_3D('',#1863,#1460,#1461);
#1260=AXIS2_PLACEMENT_3D('',#1872,#1466,#1467);
#1261=AXIS2_PLACEMENT_3D('',#1881,#1472,#1473);
#1262=AXIS2_PLACEMENT_3D('',#1890,#1478,#1479);
#1263=AXIS2_PLACEMENT_3D('',#1896,#1483,#1484);
#1264=AXIS2_PLACEMENT_3D('',#1905,#1489,#1490);
#1265=AXIS2_PLACEMENT_3D('',#1914,#1495,#1496);
#1266=AXIS2_PLACEMENT_3D('',#1923,#1501,#1502);
#1267=AXIS2_PLACEMENT_3D('',#1932,#1507,#1508);
#1268=AXIS2_PLACEMENT_3D('',#1941,#1513,#1514);
#1269=AXIS2_PLACEMENT_3D('',#1950,#1519,#1520);
#1270=AXIS2_PLACEMENT_3D('',#1951,#1521,#1522);
#1271=AXIS2_PLACEMENT_3D('',#1953,#1523,#1524);
#1272=AXIS2_PLACEMENT_3D('',#1955,#1525,#1526);
#1273=AXIS2_PLACEMENT_3D('',#1957,#1527,#1528);
#1274=AXIS2_PLACEMENT_3D('',#1959,#1529,#1530);
#1275=AXIS2_PLACEMENT_3D('',#1961,#1531,#1532);
#1276=AXIS2_PLACEMENT_3D('',#1963,#1533,#1534);
#1277=AXIS2_PLACEMENT_3D('',#1964,#1535,#1536);
#1278=AXIS2_PLACEMENT_3D('',#1965,#1537,#1538);
#1279=AXIS2_PLACEMENT_3D('',#1966,#1539,#1540);
#1280=AXIS2_PLACEMENT_3D('',#1967,#1541,#1542);
#1281=AXIS2_PLACEMENT_3D('',#1968,#1543,#1544);
#1282=AXIS2_PLACEMENT_3D('',#1969,#1545,#1546);
#1283=AXIS2_PLACEMENT_3D('',#1970,#1547,#1548);
#1284=AXIS2_PLACEMENT_3D('',#1971,#1549,#1550);
#1285=AXIS2_PLACEMENT_3D('',#1972,#1551,#1552);
#1286=AXIS2_PLACEMENT_3D('',#1973,#1553,#1554);
#1287=AXIS2_PLACEMENT_3D('',#1974,#1555,#1556);
#1288=AXIS2_PLACEMENT_3D('',#1975,#1557,#1558);
#1289=AXIS2_PLACEMENT_3D('',#1976,#1559,#1560);
#1290=AXIS2_PLACEMENT_3D('',#1977,#1561,#1562);
#1291=AXIS2_PLACEMENT_3D('',#1978,#1563,#1564);
#1292=AXIS2_PLACEMENT_3D('',#1979,#1565,#1566);
#1293=AXIS2_PLACEMENT_3D('',#1981,#1567,#1568);
#1294=AXIS2_PLACEMENT_3D('',#1983,#1569,#1570);
#1295=AXIS2_PLACEMENT_3D('',#1985,#1571,#1572);
#1296=AXIS2_PLACEMENT_3D('',#1987,#1573,#1574);
#1297=AXIS2_PLACEMENT_3D('',#1989,#1575,#1576);
#1298=AXIS2_PLACEMENT_3D('',#1991,#1577,#1578);
#1299=AXIS2_PLACEMENT_3D('',#1993,#1579,#1580);
#1300=AXIS2_PLACEMENT_3D('',#1995,#1581,#1582);
#1301=AXIS2_PLACEMENT_3D('',#1997,#1583,#1584);
#1302=AXIS2_PLACEMENT_3D('',#1999,#1585,#1586);
#1303=AXIS2_PLACEMENT_3D('',#2000,#1587,#1588);
#1304=AXIS2_PLACEMENT_3D('',#2001,#1589,#1590);
#1305=AXIS2_PLACEMENT_3D('',#2002,#1591,#1592);
#1306=AXIS2_PLACEMENT_3D('',#2003,#1593,#1594);
#1307=AXIS2_PLACEMENT_3D('',#2004,#1595,#1596);
#1308=AXIS2_PLACEMENT_3D('',#2005,#1597,#1598);
#1309=AXIS2_PLACEMENT_3D('',#2006,#1599,#1600);
#1310=AXIS2_PLACEMENT_3D('',#2007,#1601,#1602);
#1311=AXIS2_PLACEMENT_3D('',#2008,#1603,#1604);
#1312=AXIS2_PLACEMENT_3D('',#2009,#1605,#1606);
#1313=AXIS2_PLACEMENT_3D('',#2010,#1607,#1608);
#1314=AXIS2_PLACEMENT_3D('',#2011,#1609,#1610);
#1315=AXIS2_PLACEMENT_3D('',#2012,#1611,#1612);
#1316=AXIS2_PLACEMENT_3D('',#2013,#1613,#1614);
#1317=AXIS2_PLACEMENT_3D('',#2014,#1615,#1616);
#1318=AXIS2_PLACEMENT_3D('',#2015,#1617,#1618);
#1319=AXIS2_PLACEMENT_3D('',#2016,#1619,#1620);
#1320=AXIS2_PLACEMENT_3D('',#2017,#1621,#1622);
#1321=AXIS2_PLACEMENT_3D('',#2018,#1623,#1624);
#1322=AXIS2_PLACEMENT_3D('',#2019,#1625,#1626);
#1323=AXIS2_PLACEMENT_3D('',#2020,#1627,#1628);
#1324=AXIS2_PLACEMENT_3D('',#2021,#1629,#1630);
#1325=AXIS2_PLACEMENT_3D('',#2022,#1631,#1632);
#1326=AXIS2_PLACEMENT_3D('',#2023,#1633,#1634);
#1327=AXIS2_PLACEMENT_3D('',#2024,#1635,#1636);
#1328=AXIS2_PLACEMENT_3D('',#2025,#1637,#1638);
#1329=AXIS2_PLACEMENT_3D('',#2026,#1639,#1640);
#1330=AXIS2_PLACEMENT_3D('',#2027,#1641,#1642);
#1331=AXIS2_PLACEMENT_3D('',#2028,#1643,#1644);
#1332=AXIS2_PLACEMENT_3D('',#2029,#1645,#1646);
#1333=AXIS2_PLACEMENT_3D('',#2030,#1647,#1648);
#1334=AXIS2_PLACEMENT_3D('',#2032,#1649,#1650);
#1335=AXIS2_PLACEMENT_3D('',#2033,#1651,#1652);
#1336=AXIS2_PLACEMENT_3D('',#2034,#1653,#1654);
#1337=AXIS2_PLACEMENT_3D('',#2036,#1655,#1656);
#1338=AXIS2_PLACEMENT_3D('',#2037,#1657,#1658);
#1339=AXIS2_PLACEMENT_3D('',#2038,#1659,#1660);
#1340=AXIS2_PLACEMENT_3D('',#2040,#1661,#1662);
#1341=AXIS2_PLACEMENT_3D('',#2041,#1663,#1664);
#1342=AXIS2_PLACEMENT_3D('',#2042,#1665,#1666);
#1343=AXIS2_PLACEMENT_3D('',#2044,#1667,#1668);
#1344=AXIS2_PLACEMENT_3D('',#2045,#1669,#1670);
#1345=AXIS2_PLACEMENT_3D('',#2046,#1671,#1672);
#1346=AXIS2_PLACEMENT_3D('',#2048,#1673,#1674);
#1347=AXIS2_PLACEMENT_3D('',#2049,#1675,#1676);
#1348=AXIS2_PLACEMENT_3D('',#2050,#1677,#1678);
#1349=AXIS2_PLACEMENT_3D('',#2052,#1679,#1680);
#1350=AXIS2_PLACEMENT_3D('',#2053,#1681,#1682);
#1351=AXIS2_PLACEMENT_3D('',#2054,#1683,#1684);
#1352=AXIS2_PLACEMENT_3D('',#2056,#1685,#1686);
#1353=AXIS2_PLACEMENT_3D('',#2057,#1687,#1688);
#1354=AXIS2_PLACEMENT_3D('',#2058,#1689,#1690);
#1355=AXIS2_PLACEMENT_3D('',#2060,#1691,#1692);
#1356=AXIS2_PLACEMENT_3D('',#2061,#1693,#1694);
#1357=AXIS2_PLACEMENT_3D('',#2062,#1695,#1696);
#1358=AXIS2_PLACEMENT_3D('',#2064,#1697,#1698);
#1359=AXIS2_PLACEMENT_3D('',#2065,#1699,#1700);
#1360=AXIS2_PLACEMENT_3D('',#2066,#1701,#1702);
#1361=AXIS2_PLACEMENT_3D('',#2068,#1703,#1704);
#1362=AXIS2_PLACEMENT_3D('',#2069,#1705,#1706);
#1363=AXIS2_PLACEMENT_3D('',#2075,#1707,#1708);
#1364=AXIS2_PLACEMENT_3D('',#2076,#1709,#1710);
#1365=AXIS2_PLACEMENT_3D('',#2077,#1711,#1712);
#1366=AXIS2_PLACEMENT_3D('',#2084,#1713,#1714);
#1367=AXIS2_PLACEMENT_3D('',#2085,#1715,#1716);
#1368=AXIS2_PLACEMENT_3D('',#2086,#1717,#1718);
#1369=AXIS2_PLACEMENT_3D('',#2087,#1719,#1720);
#1370=AXIS2_PLACEMENT_3D('',#2092,#1721,#1722);
#1371=AXIS2_PLACEMENT_3D('',#2098,#1723,#1724);
#1372=AXIS2_PLACEMENT_3D('',#2104,#1725,#1726);
#1373=AXIS2_PLACEMENT_3D('',#2105,#1727,#1728);
#1374=AXIS2_PLACEMENT_3D('',#2112,#1729,#1730);
#1375=AXIS2_PLACEMENT_3D('',#2113,#1731,#1732);
#1376=AXIS2_PLACEMENT_3D('',#2120,#1733,#1734);
#1377=AXIS2_PLACEMENT_3D('',#2121,#1735,#1736);
#1378=AXIS2_PLACEMENT_3D('',#2131,#1737,#1738);
#1379=AXIS2_PLACEMENT_3D('',#2132,#1739,#1740);
#1380=AXIS2_PLACEMENT_3D('',#2138,#1741,#1742);
#1381=AXIS2_PLACEMENT_3D('',#2143,#1743,#1744);
#1382=AXIS2_PLACEMENT_3D('',#2150,#1745,#1746);
#1383=AXIS2_PLACEMENT_3D('',#2151,#1747,#1748);
#1384=AXIS2_PLACEMENT_3D('',#2158,#1749,#1750);
#1385=AXIS2_PLACEMENT_3D('',#2159,#1751,#1752);
#1386=AXIS2_PLACEMENT_3D('',#2164,#1753,#1754);
#1387=AXIS2_PLACEMENT_3D('',#2170,#1755,#1756);
#1388=AXIS2_PLACEMENT_3D('',#2175,#1757,#1758);
#1389=AXIS2_PLACEMENT_3D('',#2176,#1759,#1760);
#1390=AXIS2_PLACEMENT_3D('',#2183,#1761,#1762);
#1391=AXIS2_PLACEMENT_3D('',#2184,#1763,#1764);
#1392=AXIS2_PLACEMENT_3D('',#2189,#1765,#1766);
#1393=AXIS2_PLACEMENT_3D('',#2190,#1767,#1768);
#1394=AXIS2_PLACEMENT_3D('',#2191,#1769,#1770);
#1395=AXIS2_PLACEMENT_3D('',#2192,#1771,#1772);
#1396=AXIS2_PLACEMENT_3D('',#2193,#1773,#1774);
#1397=AXIS2_PLACEMENT_3D('',#2194,#1775,#1776);
#1398=DIRECTION('',(0.,0.,1.));
#1399=DIRECTION('',(1.,0.,0.));
#1400=DIRECTION('',(0.,0.,1.));
#1401=DIRECTION('',(1.,0.,0.));
#1402=DIRECTION('',(1.,0.,0.));
#1403=DIRECTION('',(0.,0.,1.));
#1404=DIRECTION('',(1.,0.,0.));
#1405=DIRECTION('',(0.,-1.,0.));
#1406=DIRECTION('',(0.,0.,1.));
#1407=DIRECTION('',(1.,0.,0.));
#1408=DIRECTION('',(1.,0.,0.));
#1409=DIRECTION('',(0.,-1.,0.));
#1410=DIRECTION('',(0.,0.,1.));
#1411=DIRECTION('',(1.,0.,0.));
#1412=DIRECTION('',(1.,0.,0.));
#1413=DIRECTION('',(0.,0.,1.));
#1414=DIRECTION('',(1.,0.,0.));
#1415=DIRECTION('',(0.,-1.,0.));
#1416=DIRECTION('',(0.,0.,1.));
#1417=DIRECTION('',(1.,0.,0.));
#1418=DIRECTION('',(1.,0.,0.));
#1419=DIRECTION('',(0.,0.,1.));
#1420=DIRECTION('',(1.,0.,0.));
#1421=DIRECTION('',(3.19764696032591E-16,-1.,0.));
#1422=DIRECTION('',(0.,0.,1.));
#1423=DIRECTION('',(1.,0.,0.));
#1424=DIRECTION('',(0.,1.,0.));
#1425=DIRECTION('',(0.,0.,1.));
#1426=DIRECTION('',(1.,0.,0.));
#1427=DIRECTION('',(0.,0.,-1.));
#1428=DIRECTION('',(1.,0.,0.));
#1429=DIRECTION('',(0.,0.,-1.));
#1430=DIRECTION('',(-1.,0.,0.));
#1431=DIRECTION('',(0.,0.,1.));
#1432=DIRECTION('',(0.,1.,0.));
#1433=DIRECTION('',(0.,0.,-1.));
#1434=DIRECTION('',(0.,1.,0.));
#1435=DIRECTION('',(0.,0.,-1.));
#1436=DIRECTION('',(0.,1.,0.));
#1437=DIRECTION('',(0.,0.,1.));
#1438=DIRECTION('',(1.,0.,0.));
#1439=DIRECTION('',(0.,0.,-1.));
#1440=DIRECTION('',(1.,0.,0.));
#1441=DIRECTION('',(0.,0.,-1.));
#1442=DIRECTION('',(-1.,-1.85531922564364E-16,0.));
#1443=DIRECTION('',(1.85531922564364E-16,-1.,0.));
#1444=DIRECTION('',(-1.85531922564364E-16,1.,0.));
#1445=DIRECTION('',(0.,0.,-1.));
#1446=DIRECTION('',(-1.85531922564364E-16,1.,0.));
#1447=DIRECTION('',(0.,0.,-1.));
#1448=DIRECTION('',(0.,1.,0.));
#1449=DIRECTION('',(0.,0.,1.));
#1450=DIRECTION('',(1.,0.,0.));
#1451=DIRECTION('',(0.,0.,-1.));
#1452=DIRECTION('',(1.,0.,0.));
#1453=DIRECTION('',(0.,0.,-1.));
#1454=DIRECTION('',(1.,0.,0.));
#1455=DIRECTION('',(0.,0.,-1.));
#1456=DIRECTION('',(0.,-1.,0.));
#1457=DIRECTION('',(0.,0.,-1.));
#1458=DIRECTION('',(0.,-1.,0.));
#1459=DIRECTION('',(0.,0.,-1.));
#1460=DIRECTION('',(1.,0.,0.));
#1461=DIRECTION('',(0.,0.,-1.));
#1462=DIRECTION('',(0.,-1.,0.));
#1463=DIRECTION('',(0.,0.,-1.));
#1464=DIRECTION('',(0.,-1.,0.));
#1465=DIRECTION('',(0.,0.,-1.));
#1466=DIRECTION('',(0.,1.,0.));
#1467=DIRECTION('',(0.,0.,1.));
#1468=DIRECTION('',(1.,0.,0.));
#1469=DIRECTION('',(0.,0.,-1.));
#1470=DIRECTION('',(1.,0.,0.));
#1471=DIRECTION('',(0.,0.,-1.));
#1472=DIRECTION('',(1.,0.,0.));
#1473=DIRECTION('',(0.,0.,-1.));
#1474=DIRECTION('',(0.,0.,-1.));
#1475=DIRECTION('',(0.,-1.,0.));
#1476=DIRECTION('',(0.,0.,-1.));
#1477=DIRECTION('',(0.,-1.,0.));
#1478=DIRECTION('',(0.,1.,0.));
#1479=DIRECTION('',(0.,0.,1.));
#1480=DIRECTION('',(1.,0.,0.));
#1481=DIRECTION('',(0.,0.,-1.));
#1482=DIRECTION('',(1.,0.,0.));
#1483=DIRECTION('',(1.,0.,0.));
#1484=DIRECTION('',(0.,0.,-1.));
#1485=DIRECTION('',(0.,0.,-1.));
#1486=DIRECTION('',(0.,-1.,0.));
#1487=DIRECTION('',(0.,0.,-1.));
#1488=DIRECTION('',(0.,-1.,0.));
#1489=DIRECTION('',(0.,1.,0.));
#1490=DIRECTION('',(0.,0.,1.));
#1491=DIRECTION('',(0.,0.,-1.));
#1492=DIRECTION('',(1.,0.,0.));
#1493=DIRECTION('',(0.,0.,-1.));
#1494=DIRECTION('',(1.,0.,0.));
#1495=DIRECTION('',(1.,3.19764696032591E-16,0.));
#1496=DIRECTION('',(-3.19764696032591E-16,1.,0.));
#1497=DIRECTION('',(0.,0.,-1.));
#1498=DIRECTION('',(3.19764696032591E-16,-1.,0.));
#1499=DIRECTION('',(0.,0.,-1.));
#1500=DIRECTION('',(3.19764696032591E-16,-1.,0.));
#1501=DIRECTION('',(0.,1.,0.));
#1502=DIRECTION('',(0.,0.,1.));
#1503=DIRECTION('',(0.,0.,-1.));
#1504=DIRECTION('',(1.,0.,0.));
#1505=DIRECTION('',(0.,0.,-1.));
#1506=DIRECTION('',(1.,0.,0.));
#1507=DIRECTION('',(1.,0.,0.));
#1508=DIRECTION('',(0.,0.,-1.));
#1509=DIRECTION('',(0.,0.,-1.));
#1510=DIRECTION('',(0.,-1.,0.));
#1511=DIRECTION('',(0.,0.,-1.));
#1512=DIRECTION('',(0.,-1.,0.));
#1513=DIRECTION('',(0.,1.,0.));
#1514=DIRECTION('',(0.,0.,1.));
#1515=DIRECTION('',(0.,0.,-1.));
#1516=DIRECTION('',(1.,0.,0.));
#1517=DIRECTION('',(0.,0.,-1.));
#1518=DIRECTION('',(1.,0.,0.));
#1519=DIRECTION('',(0.,0.,1.));
#1520=DIRECTION('',(1.,0.,0.));
#1521=DIRECTION('',(0.,0.,1.));
#1522=DIRECTION('',(1.,0.,0.));
#1523=DIRECTION('',(0.,0.,1.));
#1524=DIRECTION('',(1.,0.,0.));
#1525=DIRECTION('',(0.,0.,1.));
#1526=DIRECTION('',(1.,0.,0.));
#1527=DIRECTION('',(0.,0.,1.));
#1528=DIRECTION('',(1.,0.,0.));
#1529=DIRECTION('',(0.,0.,1.));
#1530=DIRECTION('',(1.,0.,0.));
#1531=DIRECTION('',(0.,0.,1.));
#1532=DIRECTION('',(1.,0.,0.));
#1533=DIRECTION('',(0.,0.,1.));
#1534=DIRECTION('',(1.,0.,0.));
#1535=DIRECTION('',(0.,0.,1.));
#1536=DIRECTION('',(1.,0.,0.));
#1537=DIRECTION('',(0.,0.,1.));
#1538=DIRECTION('',(1.,0.,0.));
#1539=DIRECTION('',(0.,0.,1.));
#1540=DIRECTION('',(1.,0.,0.));
#1541=DIRECTION('',(0.,0.,1.));
#1542=DIRECTION('',(1.,0.,0.));
#1543=DIRECTION('',(0.,0.,1.));
#1544=DIRECTION('',(1.,0.,0.));
#1545=DIRECTION('',(0.,0.,1.));
#1546=DIRECTION('',(1.,0.,0.));
#1547=DIRECTION('',(0.,0.,1.));
#1548=DIRECTION('',(1.,0.,0.));
#1549=DIRECTION('',(0.,0.,1.));
#1550=DIRECTION('',(1.,0.,0.));
#1551=DIRECTION('',(0.,0.,1.));
#1552=DIRECTION('',(1.,0.,0.));
#1553=DIRECTION('',(0.,0.,1.));
#1554=DIRECTION('',(1.,0.,0.));
#1555=DIRECTION('',(0.,0.,1.));
#1556=DIRECTION('',(1.,0.,0.));
#1557=DIRECTION('',(0.,0.,1.));
#1558=DIRECTION('',(1.,0.,0.));
#1559=DIRECTION('',(0.,0.,1.));
#1560=DIRECTION('',(1.,0.,0.));
#1561=DIRECTION('',(0.,0.,1.));
#1562=DIRECTION('',(1.,0.,0.));
#1563=DIRECTION('',(0.,0.,1.));
#1564=DIRECTION('',(1.,0.,0.));
#1565=DIRECTION('',(0.,0.,1.));
#1566=DIRECTION('',(1.,0.,0.));
#1567=DIRECTION('',(0.,0.,1.));
#1568=DIRECTION('',(1.,0.,0.));
#1569=DIRECTION('',(0.,0.,1.));
#1570=DIRECTION('',(1.,0.,0.));
#1571=DIRECTION('',(0.,0.,1.));
#1572=DIRECTION('',(1.,0.,0.));
#1573=DIRECTION('',(0.,0.,1.));
#1574=DIRECTION('',(1.,0.,0.));
#1575=DIRECTION('',(0.,0.,1.));
#1576=DIRECTION('',(1.,0.,0.));
#1577=DIRECTION('',(0.,0.,1.));
#1578=DIRECTION('',(1.,0.,0.));
#1579=DIRECTION('',(0.,0.,1.));
#1580=DIRECTION('',(1.,0.,0.));
#1581=DIRECTION('',(0.,0.,1.));
#1582=DIRECTION('',(1.,0.,0.));
#1583=DIRECTION('',(0.,0.,1.));
#1584=DIRECTION('',(1.,0.,0.));
#1585=DIRECTION('',(0.,0.,1.));
#1586=DIRECTION('',(1.,0.,0.));
#1587=DIRECTION('',(0.,0.,1.));
#1588=DIRECTION('',(1.,0.,0.));
#1589=DIRECTION('',(0.,0.,1.));
#1590=DIRECTION('',(1.,0.,0.));
#1591=DIRECTION('',(0.,0.,1.));
#1592=DIRECTION('',(1.,0.,0.));
#1593=DIRECTION('',(0.,0.,1.));
#1594=DIRECTION('',(1.,0.,0.));
#1595=DIRECTION('',(0.,0.,1.));
#1596=DIRECTION('',(1.,0.,0.));
#1597=DIRECTION('',(0.,0.,1.));
#1598=DIRECTION('',(1.,0.,0.));
#1599=DIRECTION('',(0.,0.,1.));
#1600=DIRECTION('',(1.,0.,0.));
#1601=DIRECTION('',(0.,0.,-1.));
#1602=DIRECTION('',(-1.,0.,0.));
#1603=DIRECTION('',(0.,0.,-1.));
#1604=DIRECTION('',(-1.,0.,0.));
#1605=DIRECTION('',(0.,0.,1.));
#1606=DIRECTION('',(1.,0.,0.));
#1607=DIRECTION('',(0.,0.,1.));
#1608=DIRECTION('',(1.,0.,0.));
#1609=DIRECTION('',(0.,0.,1.));
#1610=DIRECTION('',(1.,0.,0.));
#1611=DIRECTION('',(0.,0.,1.));
#1612=DIRECTION('',(1.,0.,0.));
#1613=DIRECTION('',(0.,0.,-1.));
#1614=DIRECTION('',(-1.,0.,0.));
#1615=DIRECTION('',(0.,0.,-1.));
#1616=DIRECTION('',(-1.,0.,0.));
#1617=DIRECTION('',(0.,0.,1.));
#1618=DIRECTION('',(1.,0.,0.));
#1619=DIRECTION('',(0.,0.,1.));
#1620=DIRECTION('',(1.,0.,0.));
#1621=DIRECTION('',(0.,0.,1.));
#1622=DIRECTION('',(1.,0.,0.));
#1623=DIRECTION('',(0.,0.,1.));
#1624=DIRECTION('',(1.,0.,0.));
#1625=DIRECTION('',(0.,0.,-1.));
#1626=DIRECTION('',(-1.,0.,0.));
#1627=DIRECTION('',(0.,0.,-1.));
#1628=DIRECTION('',(-1.,0.,0.));
#1629=DIRECTION('',(0.,0.,-1.));
#1630=DIRECTION('',(-1.,0.,0.));
#1631=DIRECTION('',(0.,0.,1.));
#1632=DIRECTION('',(1.,0.,0.));
#1633=DIRECTION('',(0.,0.,1.));
#1634=DIRECTION('',(1.,0.,0.));
#1635=DIRECTION('',(0.,0.,-1.));
#1636=DIRECTION('',(-1.,0.,0.));
#1637=DIRECTION('',(0.,0.,1.));
#1638=DIRECTION('',(1.,0.,0.));
#1639=DIRECTION('',(0.,0.,1.));
#1640=DIRECTION('',(1.,0.,0.));
#1641=DIRECTION('',(0.,0.,-1.));
#1642=DIRECTION('',(-1.,0.,0.));
#1643=DIRECTION('',(0.,0.,-1.));
#1644=DIRECTION('',(-1.,0.,0.));
#1645=DIRECTION('',(0.,0.,-1.));
#1646=DIRECTION('',(-1.,0.,0.));
#1647=DIRECTION('',(0.,0.,1.));
#1648=DIRECTION('',(1.,0.,0.));
#1649=DIRECTION('',(0.,0.,1.));
#1650=DIRECTION('',(1.,0.,0.));
#1651=DIRECTION('',(0.,0.,-1.));
#1652=DIRECTION('',(-1.,0.,0.));
#1653=DIRECTION('',(0.,0.,1.));
#1654=DIRECTION('',(1.,0.,0.));
#1655=DIRECTION('',(0.,0.,1.));
#1656=DIRECTION('',(1.,0.,0.));
#1657=DIRECTION('',(0.,0.,-1.));
#1658=DIRECTION('',(-1.,0.,0.));
#1659=DIRECTION('',(0.,0.,1.));
#1660=DIRECTION('',(1.,0.,0.));
#1661=DIRECTION('',(0.,0.,1.));
#1662=DIRECTION('',(1.,0.,0.));
#1663=DIRECTION('',(0.,0.,-1.));
#1664=DIRECTION('',(-1.,0.,0.));
#1665=DIRECTION('',(0.,0.,1.));
#1666=DIRECTION('',(1.,0.,0.));
#1667=DIRECTION('',(0.,0.,1.));
#1668=DIRECTION('',(1.,0.,0.));
#1669=DIRECTION('',(0.,0.,-1.));
#1670=DIRECTION('',(-1.,0.,0.));
#1671=DIRECTION('',(0.,0.,1.));
#1672=DIRECTION('',(1.,0.,0.));
#1673=DIRECTION('',(0.,0.,1.));
#1674=DIRECTION('',(1.,0.,0.));
#1675=DIRECTION('',(0.,0.,-1.));
#1676=DIRECTION('',(-1.,0.,0.));
#1677=DIRECTION('',(0.,0.,1.));
#1678=DIRECTION('',(1.,0.,0.));
#1679=DIRECTION('',(0.,0.,1.));
#1680=DIRECTION('',(1.,0.,0.));
#1681=DIRECTION('',(0.,0.,-1.));
#1682=DIRECTION('',(-1.,0.,0.));
#1683=DIRECTION('',(0.,0.,1.));
#1684=DIRECTION('',(1.,0.,0.));
#1685=DIRECTION('',(0.,0.,1.));
#1686=DIRECTION('',(1.,0.,0.));
#1687=DIRECTION('',(0.,0.,-1.));
#1688=DIRECTION('',(-1.,0.,0.));
#1689=DIRECTION('',(0.,0.,1.));
#1690=DIRECTION('',(1.,0.,0.));
#1691=DIRECTION('',(0.,0.,1.));
#1692=DIRECTION('',(1.,0.,0.));
#1693=DIRECTION('',(0.,0.,-1.));
#1694=DIRECTION('',(-1.,0.,0.));
#1695=DIRECTION('',(0.,0.,1.));
#1696=DIRECTION('',(1.,0.,0.));
#1697=DIRECTION('',(0.,0.,1.));
#1698=DIRECTION('',(1.,0.,0.));
#1699=DIRECTION('',(0.,0.,-1.));
#1700=DIRECTION('',(-1.,0.,0.));
#1701=DIRECTION('',(0.,0.,1.));
#1702=DIRECTION('',(1.,0.,0.));
#1703=DIRECTION('',(0.,0.,1.));
#1704=DIRECTION('',(1.,0.,0.));
#1705=DIRECTION('',(1.,0.,0.));
#1706=DIRECTION('',(0.,0.,-1.));
#1707=DIRECTION('',(1.,0.,0.));
#1708=DIRECTION('',(0.,0.,-1.));
#1709=DIRECTION('',(-1.,0.,0.));
#1710=DIRECTION('',(0.,0.,1.));
#1711=DIRECTION('',(0.,0.,1.));
#1712=DIRECTION('',(1.,0.,0.));
#1713=DIRECTION('',(-4.33680868994202E-16,1.,0.));
#1714=DIRECTION('',(-1.,-4.33680868994202E-16,0.));
#1715=DIRECTION('',(0.,0.,1.));
#1716=DIRECTION('',(1.,0.,0.));
#1717=DIRECTION('',(0.,-1.,0.));
#1718=DIRECTION('',(0.,0.,-1.));
#1719=DIRECTION('',(3.19764696032591E-16,-1.,0.));
#1720=DIRECTION('',(1.,3.19764696032591E-16,0.));
#1721=DIRECTION('',(0.,1.,0.));
#1722=DIRECTION('',(0.,0.,1.));
#1723=DIRECTION('',(0.,-1.,0.));
#1724=DIRECTION('',(0.,0.,-1.));
#1725=DIRECTION('',(0.,-1.,0.));
#1726=DIRECTION('',(0.,0.,-1.));
#1727=DIRECTION('',(0.,0.,1.));
#1728=DIRECTION('',(1.,0.,0.));
#1729=DIRECTION('',(1.,0.,0.));
#1730=DIRECTION('',(0.,0.,-1.));
#1731=DIRECTION('',(0.,0.,1.));
#1732=DIRECTION('',(1.,0.,0.));
#1733=DIRECTION('',(1.,0.,0.));
#1734=DIRECTION('',(0.,0.,-1.));
#1735=DIRECTION('',(-1.,0.,0.));
#1736=DIRECTION('',(0.,0.,1.));
#1737=DIRECTION('',(1.,0.,0.));
#1738=DIRECTION('',(0.,0.,-1.));
#1739=DIRECTION('',(1.,0.,0.));
#1740=DIRECTION('',(0.,0.,-1.));
#1741=DIRECTION('',(1.,0.,0.));
#1742=DIRECTION('',(0.,0.,-1.));
#1743=DIRECTION('',(0.,0.,1.));
#1744=DIRECTION('',(1.,0.,0.));
#1745=DIRECTION('',(0.,-1.,0.));
#1746=DIRECTION('',(0.,0.,-1.));
#1747=DIRECTION('',(0.,0.,1.));
#1748=DIRECTION('',(1.,0.,0.));
#1749=DIRECTION('',(0.,1.,0.));
#1750=DIRECTION('',(0.,0.,1.));
#1751=DIRECTION('',(0.,1.,0.));
#1752=DIRECTION('',(0.,0.,1.));
#1753=DIRECTION('',(0.,-1.,0.));
#1754=DIRECTION('',(0.,0.,-1.));
#1755=DIRECTION('',(0.,1.,0.));
#1756=DIRECTION('',(0.,0.,1.));
#1757=DIRECTION('',(0.707106781186548,0.707106781186548,0.));
#1758=DIRECTION('',(0.707106781186548,-0.707106781186548,0.));
#1759=DIRECTION('',(0.,0.,1.));
#1760=DIRECTION('',(1.,0.,0.));
#1761=DIRECTION('',(-1.,0.,0.));
#1762=DIRECTION('',(0.,0.,1.));
#1763=DIRECTION('',(1.,0.,0.));
#1764=DIRECTION('',(0.,0.,-1.));
#1765=DIRECTION('',(0.,0.,1.));
#1766=DIRECTION('',(1.,0.,0.));
#1767=DIRECTION('',(0.,0.,1.));
#1768=DIRECTION('',(1.,0.,0.));
#1769=DIRECTION('',(0.,0.,1.));
#1770=DIRECTION('',(1.,0.,0.));
#1771=DIRECTION('',(0.,0.,1.));
#1772=DIRECTION('',(1.,0.,0.));
#1773=DIRECTION('',(0.,0.,1.));
#1774=DIRECTION('',(1.,0.,0.));
#1775=DIRECTION('',(0.,0.,1.));
#1776=DIRECTION('',(1.,0.,0.));
#1777=CARTESIAN_POINT('',(0.,0.,0.));
#1778=CARTESIAN_POINT('',(0.0957156897306442,0.0055,0.));
#1779=CARTESIAN_POINT('',(0.221415689730644,0.0384,0.));
#1780=CARTESIAN_POINT('',(-0.0290856269713053,0.0384,0.));
#1781=CARTESIAN_POINT('',(0.220517006432593,0.0384,0.));
#1782=CARTESIAN_POINT('',(0.221465689730644,0.03845,0.));
#1783=CARTESIAN_POINT('',(0.221415689730644,0.0375013167019495,0.));
#1784=CARTESIAN_POINT('',(0.221415689730644,-0.001,0.));
#1785=CARTESIAN_POINT('',(0.221415689730644,-0.000101316701949478,0.));
#1786=CARTESIAN_POINT('',(0.221465689730644,-0.00105,0.));
#1787=CARTESIAN_POINT('',(0.220517006432593,-0.001,0.));
#1788=CARTESIAN_POINT('',(0.0957156897306442,-0.001,0.));
#1789=CARTESIAN_POINT('',(0.167415689730644,-0.001,0.));
#1790=CARTESIAN_POINT('',(0.167415689730644,-0.0274,0.));
#1791=CARTESIAN_POINT('',(0.167415689730644,-0.0265013507097735,0.));
#1792=CARTESIAN_POINT('',(0.167466330861682,-0.02745,0.));
#1793=CARTESIAN_POINT('',(0.166517647563632,-0.0274,0.));
#1794=CARTESIAN_POINT('',(0.0957156897306442,-0.0274,0.));
#1795=CARTESIAN_POINT('',(0.0249143730286948,-0.0274,0.));
#1796=CARTESIAN_POINT('',(0.0239656897306442,-0.02745,0.));
#1797=CARTESIAN_POINT('',(0.0240156897306442,-0.0265013167019495,0.));
#1798=CARTESIAN_POINT('',(0.0240156897306442,0.0055,0.));
#1799=CARTESIAN_POINT('',(0.0240156897306442,-0.005,0.));
#1800=CARTESIAN_POINT('',(0.0200156897306442,-0.005,0.));
#1801=CARTESIAN_POINT('',(0.0200156897306442,-0.001,0.));
#1802=CARTESIAN_POINT('',(0.0957156897306442,-0.001,0.));
#1803=CARTESIAN_POINT('',(-0.0290856269713053,-0.001,0.));
#1804=CARTESIAN_POINT('',(-0.0300343102693558,-0.00105,0.));
#1805=CARTESIAN_POINT('',(-0.0299843102693558,-0.000101316701949485,0.));
#1806=CARTESIAN_POINT('',(-0.0299843102693558,0.0055,0.));
#1807=CARTESIAN_POINT('',(-0.0299843102693558,0.0375013167019495,0.));
#1808=CARTESIAN_POINT('',(-0.0300343102693558,0.03845,0.));
#1809=CARTESIAN_POINT('',(0.0957156897306442,-0.0264,0.0075));
#1810=CARTESIAN_POINT('',(0.0957156897306442,-0.0264,0.0075));
#1811=CARTESIAN_POINT('',(0.0270156897306442,-0.0264,0.0075));
#1812=CARTESIAN_POINT('',(0.164415689730644,-0.0264,0.0075));
#1813=CARTESIAN_POINT('',(0.164415689730644,-0.0264,0.0075));
#1814=CARTESIAN_POINT('',(0.164415689730644,-0.0264,0.003));
#1815=CARTESIAN_POINT('',(0.0957156897306442,-0.0264,0.003));
#1816=CARTESIAN_POINT('',(0.0270156897306442,-0.0264,0.003));
#1817=CARTESIAN_POINT('',(0.0270156897306442,-0.0264,0.0075));
#1818=CARTESIAN_POINT('',(0.220415689730644,0.0187,0.0075));
#1819=CARTESIAN_POINT('',(0.220415689730644,0.0187,0.0075));
#1820=CARTESIAN_POINT('',(0.220415689730644,0.002,0.0075));
#1821=CARTESIAN_POINT('',(0.220415689730644,0.0354,0.0075));
#1822=CARTESIAN_POINT('',(0.220415689730644,0.0354,0.0075));
#1823=CARTESIAN_POINT('',(0.220415689730644,0.0354,0.003));
#1824=CARTESIAN_POINT('',(0.220415689730644,0.0187,0.003));
#1825=CARTESIAN_POINT('',(0.220415689730644,0.002,0.003));
#1826=CARTESIAN_POINT('',(0.220415689730644,0.002,0.0075));
#1827=CARTESIAN_POINT('',(0.0957156897306442,0.0374,0.0075));
#1828=CARTESIAN_POINT('',(0.0957156897306442,0.0374,0.003));
#1829=CARTESIAN_POINT('',(-0.0269843102693558,0.0374,0.003));
#1830=CARTESIAN_POINT('',(0.218415689730644,0.0374,0.003));
#1831=CARTESIAN_POINT('',(0.218415689730644,0.0374,0.0075));
#1832=CARTESIAN_POINT('',(0.218415689730644,0.0374,0.0075));
#1833=CARTESIAN_POINT('',(0.0957156897306442,0.0374,0.0075));
#1834=CARTESIAN_POINT('',(-0.0269843102693558,0.0374,0.0075));
#1835=CARTESIAN_POINT('',(-0.0269843102693558,0.0374,0.003));
#1836=CARTESIAN_POINT('',(-0.0289843102693558,0.0187,0.0075));
#1837=CARTESIAN_POINT('',(-0.0289843102693558,0.0187,0.003));
#1838=CARTESIAN_POINT('',(-0.0289843102693558,0.002,0.003));
#1839=CARTESIAN_POINT('',(-0.0289843102693558,0.0354,0.003));
#1840=CARTESIAN_POINT('',(-0.0289843102693558,0.0354,0.0075));
#1841=CARTESIAN_POINT('',(-0.0289843102693558,0.0354,0.0075));
#1842=CARTESIAN_POINT('',(-0.0289843102693558,0.0187,0.0075));
#1843=CARTESIAN_POINT('',(-0.0289843102693558,0.002,0.0075));
#1844=CARTESIAN_POINT('',(-0.0289843102693558,0.002,0.0075));
#1845=CARTESIAN_POINT('',(0.194915689730644,0.,0.0075));
#1846=CARTESIAN_POINT('',(0.194915689730644,0.,0.0075));
#1847=CARTESIAN_POINT('',(0.168415689730644,0.,0.0075));
#1848=CARTESIAN_POINT('',(0.218415689730644,0.,0.0075));
#1849=CARTESIAN_POINT('',(0.218415689730644,0.,0.003));
#1850=CARTESIAN_POINT('',(0.218415689730644,0.,0.003));
#1851=CARTESIAN_POINT('',(0.167915689730644,0.,0.003));
#1852=CARTESIAN_POINT('',(0.168415689730644,0.,0.003));
#1853=CARTESIAN_POINT('',(0.168415689730644,0.,0.0075));
#1854=CARTESIAN_POINT('',(0.166415689730644,-0.0147,0.0075));
#1855=CARTESIAN_POINT('',(0.166415689730644,-0.0147,0.0075));
#1856=CARTESIAN_POINT('',(0.166415689730644,-0.002,0.0075));
#1857=CARTESIAN_POINT('',(0.166415689730644,-0.0244,0.0075));
#1858=CARTESIAN_POINT('',(0.166415689730644,-0.002,0.003));
#1859=CARTESIAN_POINT('',(0.166415689730644,-0.002,0.003));
#1860=CARTESIAN_POINT('',(0.166415689730644,-0.0147,0.003));
#1861=CARTESIAN_POINT('',(0.166415689730644,-0.0244,0.003));
#1862=CARTESIAN_POINT('',(0.166415689730644,-0.0244,0.0075));
#1863=CARTESIAN_POINT('',(0.0250156897306442,-0.0147,0.0075));
#1864=CARTESIAN_POINT('',(0.0250156897306442,-0.0147,0.0075));
#1865=CARTESIAN_POINT('',(0.0250156897306442,-0.002,0.0075));
#1866=CARTESIAN_POINT('',(0.0250156897306442,-0.0244,0.0075));
#1867=CARTESIAN_POINT('',(0.0250156897306442,-0.0244,0.003));
#1868=CARTESIAN_POINT('',(0.0250156897306442,-0.0244,0.003));
#1869=CARTESIAN_POINT('',(0.0250156897306442,-0.0147,0.003));
#1870=CARTESIAN_POINT('',(0.0250156897306442,-0.002,0.003));
#1871=CARTESIAN_POINT('',(0.0250156897306442,-0.002,0.0075));
#1872=CARTESIAN_POINT('',(-0.00348431026935578,0.,0.0075));
#1873=CARTESIAN_POINT('',(0.0235156897306442,0.,0.003));
#1874=CARTESIAN_POINT('',(-0.0269843102693558,0.,0.003));
#1875=CARTESIAN_POINT('',(0.0230156897306442,0.,0.003));
#1876=CARTESIAN_POINT('',(-0.0269843102693558,0.,0.0075));
#1877=CARTESIAN_POINT('',(-0.0269843102693558,0.,0.0075));
#1878=CARTESIAN_POINT('',(-0.00348431026935578,0.,0.0075));
#1879=CARTESIAN_POINT('',(0.0230156897306442,0.,0.0075));
#1880=CARTESIAN_POINT('',(0.0230156897306442,0.,0.0075));
#1881=CARTESIAN_POINT('',(0.169415689730644,-0.0162,0.0075));
#1882=CARTESIAN_POINT('',(0.169415689730644,-0.0274,0.));
#1883=CARTESIAN_POINT('',(0.169415689730644,-0.0274,0.0075));
#1884=CARTESIAN_POINT('',(0.169415689730644,-0.0274,0.002));
#1885=CARTESIAN_POINT('',(0.169415689730644,-0.003,0.002));
#1886=CARTESIAN_POINT('',(0.169415689730644,-0.003,0.002));
#1887=CARTESIAN_POINT('',(0.169415689730644,-0.003,0.0075));
#1888=CARTESIAN_POINT('',(0.169415689730644,-0.003,0.0075));
#1889=CARTESIAN_POINT('',(0.169415689730644,-0.0162,0.0075));
#1890=CARTESIAN_POINT('',(0.196415689730644,-0.003,0.0075));
#1891=CARTESIAN_POINT('',(0.196415689730644,-0.003,0.002));
#1892=CARTESIAN_POINT('',(0.221415689730644,-0.003,0.002));
#1893=CARTESIAN_POINT('',(0.221415689730644,-0.003,0.0075));
#1894=CARTESIAN_POINT('',(0.221415689730644,-0.003,0.0075));
#1895=CARTESIAN_POINT('',(0.196415689730644,-0.003,0.0075));
#1896=CARTESIAN_POINT('',(0.223415689730644,0.0187,0.0075));
#1897=CARTESIAN_POINT('',(0.223415689730644,-0.001,0.));
#1898=CARTESIAN_POINT('',(0.223415689730644,-0.001,0.0075));
#1899=CARTESIAN_POINT('',(0.223415689730644,-0.001,0.002));
#1900=CARTESIAN_POINT('',(0.223415689730644,0.0384,0.002));
#1901=CARTESIAN_POINT('',(0.223415689730644,0.0384,0.002));
#1902=CARTESIAN_POINT('',(0.223415689730644,0.0384,0.0075));
#1903=CARTESIAN_POINT('',(0.223415689730644,0.0384,0.0075));
#1904=CARTESIAN_POINT('',(0.223415689730644,0.0187,0.0075));
#1905=CARTESIAN_POINT('',(0.0957156897306442,0.0404,0.0075));
#1906=CARTESIAN_POINT('',(0.221415689730644,0.0404,0.0075));
#1907=CARTESIAN_POINT('',(0.221415689730644,0.0404,0.0075));
#1908=CARTESIAN_POINT('',(0.221415689730644,0.0404,0.002));
#1909=CARTESIAN_POINT('',(-0.0299843102693558,0.0404,0.002));
#1910=CARTESIAN_POINT('',(-0.0299843102693558,0.0404,0.002));
#1911=CARTESIAN_POINT('',(-0.0299843102693558,0.0404,0.0075));
#1912=CARTESIAN_POINT('',(-0.0299843102693558,0.0404,0.0075));
#1913=CARTESIAN_POINT('',(0.0957156897306442,0.0404,0.0075));
#1914=CARTESIAN_POINT('',(-0.0319843102693558,0.0187,0.0075));
#1915=CARTESIAN_POINT('',(-0.0319843102693558,0.0384,0.));
#1916=CARTESIAN_POINT('',(-0.0319843102693558,0.0384,0.0075));
#1917=CARTESIAN_POINT('',(-0.0319843102693558,0.0384,0.002));
#1918=CARTESIAN_POINT('',(-0.0319843102693558,0.0187,0.002));
#1919=CARTESIAN_POINT('',(-0.0319843102693558,-0.001,0.002));
#1920=CARTESIAN_POINT('',(-0.0319843102693558,-0.001,0.0075));
#1921=CARTESIAN_POINT('',(-0.0319843102693558,-0.001,0.0075));
#1922=CARTESIAN_POINT('',(-0.0319843102693558,0.0187,0.0075));
#1923=CARTESIAN_POINT('',(-0.00498431026935578,-0.003,0.0075));
#1924=CARTESIAN_POINT('',(-0.0299843102693558,-0.003,0.0075));
#1925=CARTESIAN_POINT('',(-0.0299843102693558,-0.003,0.0075));
#1926=CARTESIAN_POINT('',(-0.0299843102693558,-0.003,0.002));
#1927=CARTESIAN_POINT('',(-0.00498431026935578,-0.003,0.002));
#1928=CARTESIAN_POINT('',(0.0200156897306442,-0.003,0.002));
#1929=CARTESIAN_POINT('',(0.0200156897306442,-0.003,0.0075));
#1930=CARTESIAN_POINT('',(0.0200156897306442,-0.003,0.0075));
#1931=CARTESIAN_POINT('',(-0.00498431026935578,-0.003,0.0075));
#1932=CARTESIAN_POINT('',(0.0220156897306442,-0.0162,0.0075));
#1933=CARTESIAN_POINT('',(0.0220156897306442,-0.005,0.));
#1934=CARTESIAN_POINT('',(0.0220156897306442,-0.005,0.0075));
#1935=CARTESIAN_POINT('',(0.0220156897306442,-0.005,0.002));
#1936=CARTESIAN_POINT('',(0.0220156897306442,-0.0162,0.002));
#1937=CARTESIAN_POINT('',(0.0220156897306442,-0.0274,0.002));
#1938=CARTESIAN_POINT('',(0.0220156897306442,-0.0274,0.0075));
#1939=CARTESIAN_POINT('',(0.0220156897306442,-0.0274,0.0075));
#1940=CARTESIAN_POINT('',(0.0220156897306442,-0.0162,0.0075));
#1941=CARTESIAN_POINT('',(0.0957156897306442,-0.0294,0.0075));
#1942=CARTESIAN_POINT('',(0.0240156897306442,-0.0294,0.0075));
#1943=CARTESIAN_POINT('',(0.0240156897306442,-0.0294,0.0075));
#1944=CARTESIAN_POINT('',(0.0240156897306442,-0.0294,0.002));
#1945=CARTESIAN_POINT('',(0.0957156897306442,-0.0294,0.002));
#1946=CARTESIAN_POINT('',(0.167415689730644,-0.0294,0.002));
#1947=CARTESIAN_POINT('',(0.167415689730644,-0.0294,0.0075));
#1948=CARTESIAN_POINT('',(0.167415689730644,-0.0294,0.0075));
#1949=CARTESIAN_POINT('',(0.0957156897306442,-0.0294,0.0075));
#1950=CARTESIAN_POINT('',(0.0957156897306442,0.0055,0.0075));
#1951=CARTESIAN_POINT('',(0.221465689730644,0.03845,0.0075));
#1952=CARTESIAN_POINT('',(0.222415689730644,0.03845,0.0075));
#1953=CARTESIAN_POINT('',(0.221465689730644,-0.00105,0.0075));
#1954=CARTESIAN_POINT('',(0.222415689730644,-0.00105,0.0075));
#1955=CARTESIAN_POINT('',(0.167466330861682,-0.02745,0.0075));
#1956=CARTESIAN_POINT('',(0.168416330861683,-0.02745,0.0075));
#1957=CARTESIAN_POINT('',(0.0239656897306442,-0.02745,0.0075));
#1958=CARTESIAN_POINT('',(0.0249156897306442,-0.02745,0.0075));
#1959=CARTESIAN_POINT('',(-0.0300343102693558,-0.00105,0.0075));
#1960=CARTESIAN_POINT('',(-0.0290843102693558,-0.00105,0.0075));
#1961=CARTESIAN_POINT('',(-0.0300343102693558,0.03845,0.0075));
#1962=CARTESIAN_POINT('',(-0.0290843102693558,0.03845,0.0075));
#1963=CARTESIAN_POINT('',(0.221415689730644,0.0384,0.0075));
#1964=CARTESIAN_POINT('',(-0.0299843102693558,0.0384,0.0075));
#1965=CARTESIAN_POINT('',(-0.0299843102693558,-0.001,0.0075));
#1966=CARTESIAN_POINT('',(0.0200156897306442,-0.005,0.0075));
#1967=CARTESIAN_POINT('',(0.0240156897306442,-0.0274,0.0075));
#1968=CARTESIAN_POINT('',(0.167415689730644,-0.0274,0.0075));
#1969=CARTESIAN_POINT('',(0.221415689730644,-0.001,0.0075));
#1970=CARTESIAN_POINT('',(0.168415689730644,-0.002,0.0075));
#1971=CARTESIAN_POINT('',(0.164415689730644,-0.0244,0.0075));
#1972=CARTESIAN_POINT('',(0.0270156897306442,-0.0244,0.0075));
#1973=CARTESIAN_POINT('',(0.0230156897306442,-0.002,0.0075));
#1974=CARTESIAN_POINT('',(-0.0269843102693558,0.002,0.0075));
#1975=CARTESIAN_POINT('',(-0.0269843102693558,0.0354,0.0075));
#1976=CARTESIAN_POINT('',(0.218415689730644,0.0354,0.0075));
#1977=CARTESIAN_POINT('',(0.218415689730644,0.002,0.0075));
#1978=CARTESIAN_POINT('',(0.0957156897306442,0.0055,0.003));
#1979=CARTESIAN_POINT('',(-0.0254843102693558,0.0035,0.003));
#1980=CARTESIAN_POINT('',(-0.0239843102693558,0.0035,0.003));
#1981=CARTESIAN_POINT('',(0.0285156897306442,-0.0229,0.003));
#1982=CARTESIAN_POINT('',(0.0300156897306442,-0.0229,0.003));
#1983=CARTESIAN_POINT('',(0.162915689730644,-0.0229,0.003));
#1984=CARTESIAN_POINT('',(0.164415689730644,-0.0229,0.003));
#1985=CARTESIAN_POINT('',(0.216915689730644,0.0035,0.003));
#1986=CARTESIAN_POINT('',(0.218415689730644,0.0035,0.003));
#1987=CARTESIAN_POINT('',(0.0964656897306442,0.0339,0.003));
#1988=CARTESIAN_POINT('',(0.0979656897306442,0.0339,0.003));
#1989=CARTESIAN_POINT('',(0.162915689730644,0.0339,0.003));
#1990=CARTESIAN_POINT('',(0.164415689730644,0.0339,0.003));
#1991=CARTESIAN_POINT('',(0.0285156897306442,0.0339,0.003));
#1992=CARTESIAN_POINT('',(0.0300156897306442,0.0339,0.003));
#1993=CARTESIAN_POINT('',(0.216915689730644,0.0339,0.003));
#1994=CARTESIAN_POINT('',(0.218415689730644,0.0339,0.003));
#1995=CARTESIAN_POINT('',(0.0964656897306442,-0.0229,0.003));
#1996=CARTESIAN_POINT('',(0.0979656897306442,-0.0229,0.003));
#1997=CARTESIAN_POINT('',(-0.0254843102693558,0.0339,0.003));
#1998=CARTESIAN_POINT('',(-0.0239843102693558,0.0339,0.003));
#1999=CARTESIAN_POINT('',(0.218415689730644,0.0354,0.003));
#2000=CARTESIAN_POINT('',(-0.0269843102693558,0.0354,0.003));
#2001=CARTESIAN_POINT('',(-0.0269843102693558,0.002,0.003));
#2002=CARTESIAN_POINT('',(0.0230156897306442,-0.002,0.003));
#2003=CARTESIAN_POINT('',(0.0270156897306442,-0.0244,0.003));
#2004=CARTESIAN_POINT('',(0.164415689730644,-0.0244,0.003));
#2005=CARTESIAN_POINT('',(0.168415689730644,-0.002,0.003));
#2006=CARTESIAN_POINT('',(0.218415689730644,0.002,0.003));
#2007=CARTESIAN_POINT('',(0.221415689730644,0.0384,0.0075));
#2008=CARTESIAN_POINT('',(0.221415689730644,0.0384,0.002));
#2009=CARTESIAN_POINT('',(0.221415689730644,-0.001,0.0075));
#2010=CARTESIAN_POINT('',(0.221415689730644,-0.001,0.002));
#2011=CARTESIAN_POINT('',(0.167415689730644,-0.0274,0.0075));
#2012=CARTESIAN_POINT('',(0.167415689730644,-0.0274,0.002));
#2013=CARTESIAN_POINT('',(0.0240156897306442,-0.0274,0.0075));
#2014=CARTESIAN_POINT('',(0.0240156897306442,-0.0274,0.002));
#2015=CARTESIAN_POINT('',(0.0200156897306442,-0.005,0.0075));
#2016=CARTESIAN_POINT('',(0.0200156897306442,-0.005,0.002));
#2017=CARTESIAN_POINT('',(-0.0299843102693558,0.0384,0.0075));
#2018=CARTESIAN_POINT('',(-0.0299843102693558,0.0384,0.002));
#2019=CARTESIAN_POINT('',(-0.0299843102693558,-0.001,0.0075));
#2020=CARTESIAN_POINT('',(-0.0299843102693558,-0.001,0.002));
#2021=CARTESIAN_POINT('',(0.218415689730644,0.0354,0.0075));
#2022=CARTESIAN_POINT('',(0.218415689730644,0.002,0.0075));
#2023=CARTESIAN_POINT('',(0.168415689730644,-0.002,0.0075));
#2024=CARTESIAN_POINT('',(0.164415689730644,-0.0244,0.0075));
#2025=CARTESIAN_POINT('',(0.0270156897306442,-0.0244,0.0075));
#2026=CARTESIAN_POINT('',(-0.0269843102693558,0.0354,0.0075));
#2027=CARTESIAN_POINT('',(-0.0269843102693558,0.002,0.0075));
#2028=CARTESIAN_POINT('',(0.0230156897306442,-0.002,0.0075));
#2029=CARTESIAN_POINT('',(-0.0254843102693558,0.0339,0.006));
#2030=CARTESIAN_POINT('',(-0.0254843102693558,0.0339,0.006));
#2031=CARTESIAN_POINT('',(-0.0239843102693558,0.0339,0.006));
#2032=CARTESIAN_POINT('',(0.0957156897306442,0.0055,0.006));
#2033=CARTESIAN_POINT('',(0.0964656897306442,-0.0229,0.006));
#2034=CARTESIAN_POINT('',(0.0964656897306442,-0.0229,0.006));
#2035=CARTESIAN_POINT('',(0.0979656897306442,-0.0229,0.006));
#2036=CARTESIAN_POINT('',(0.0957156897306442,0.0055,0.006));
#2037=CARTESIAN_POINT('',(0.216915689730644,0.0339,0.006));
#2038=CARTESIAN_POINT('',(0.216915689730644,0.0339,0.006));
#2039=CARTESIAN_POINT('',(0.218415689730644,0.0339,0.006));
#2040=CARTESIAN_POINT('',(0.0957156897306442,0.0055,0.006));
#2041=CARTESIAN_POINT('',(0.0285156897306442,0.0339,0.006));
#2042=CARTESIAN_POINT('',(0.0285156897306442,0.0339,0.006));
#2043=CARTESIAN_POINT('',(0.0300156897306442,0.0339,0.006));
#2044=CARTESIAN_POINT('',(0.0957156897306442,0.0055,0.006));
#2045=CARTESIAN_POINT('',(0.162915689730644,0.0339,0.006));
#2046=CARTESIAN_POINT('',(0.162915689730644,0.0339,0.006));
#2047=CARTESIAN_POINT('',(0.164415689730644,0.0339,0.006));
#2048=CARTESIAN_POINT('',(0.0957156897306442,0.0055,0.006));
#2049=CARTESIAN_POINT('',(0.0964656897306442,0.0339,0.006));
#2050=CARTESIAN_POINT('',(0.0964656897306442,0.0339,0.006));
#2051=CARTESIAN_POINT('',(0.0979656897306442,0.0339,0.006));
#2052=CARTESIAN_POINT('',(0.0957156897306442,0.0055,0.006));
#2053=CARTESIAN_POINT('',(0.216915689730644,0.0035,0.006));
#2054=CARTESIAN_POINT('',(0.216915689730644,0.0035,0.006));
#2055=CARTESIAN_POINT('',(0.218415689730644,0.0035,0.006));
#2056=CARTESIAN_POINT('',(0.0957156897306442,0.0055,0.006));
#2057=CARTESIAN_POINT('',(0.162915689730644,-0.0229,0.006));
#2058=CARTESIAN_POINT('',(0.162915689730644,-0.0229,0.006));
#2059=CARTESIAN_POINT('',(0.164415689730644,-0.0229,0.006));
#2060=CARTESIAN_POINT('',(0.0957156897306442,0.0055,0.006));
#2061=CARTESIAN_POINT('',(0.0285156897306442,-0.0229,0.006));
#2062=CARTESIAN_POINT('',(0.0285156897306442,-0.0229,0.006));
#2063=CARTESIAN_POINT('',(0.0300156897306442,-0.0229,0.006));
#2064=CARTESIAN_POINT('',(0.0957156897306442,0.0055,0.006));
#2065=CARTESIAN_POINT('',(-0.0254843102693558,0.0035,0.006));
#2066=CARTESIAN_POINT('',(-0.0254843102693558,0.0035,0.006));
#2067=CARTESIAN_POINT('',(-0.0239843102693558,0.0035,0.006));
#2068=CARTESIAN_POINT('',(0.0957156897306442,0.0055,0.006));
#2069=CARTESIAN_POINT('',(-0.00498431026935578,-0.001,0.002));
#2070=CARTESIAN_POINT('',(-0.0290856269713053,-0.001,0.));
#2071=CARTESIAN_POINT('',(-0.0290586873749598,-0.00151114290218355,0.));
#2072=CARTESIAN_POINT('',(-0.029473141766456,-0.00197174235242879,0.000251662588331552));
#2073=CARTESIAN_POINT('',(-0.0299843102693557,-0.00199868329805051,0.00026718966121651));
#2074=CARTESIAN_POINT('',(-0.0299843102693558,-0.00199868329805051,0.000267189661216511));
#2075=CARTESIAN_POINT('',(0.0200156897306442,-0.001,0.002));
#2076=CARTESIAN_POINT('',(-0.0299843102693558,-0.001,0.002));
#2077=CARTESIAN_POINT('',(-0.0299843102693558,-0.001,0.002));
#2078=CARTESIAN_POINT('',(-0.0299843102693558,-0.00199868329805051,0.000267189661216511));
#2079=CARTESIAN_POINT('',(-0.0302517523028223,-0.00201277873084753,0.000275313385433819));
#2080=CARTESIAN_POINT('',(-0.0307876132097158,-0.00180348185037465,0.00028483212800985));
#2081=CARTESIAN_POINT('',(-0.0309970890209798,-0.00126744242767307,0.000275313397408098));
#2082=CARTESIAN_POINT('',(-0.0309829935674063,-0.001,0.000267189661216512));
#2083=CARTESIAN_POINT('',(-0.0309829935674063,-0.001,0.000267189661216513));
#2084=CARTESIAN_POINT('',(-0.0299843102693558,-0.001,0.002));
#2085=CARTESIAN_POINT('',(0.0200156897306442,-0.005,0.002));
#2086=CARTESIAN_POINT('',(0.0240156897306442,-0.005,0.002));
#2087=CARTESIAN_POINT('',(-0.0299843102693558,0.0187,0.002));
#2088=CARTESIAN_POINT('',(-0.0309829935674063,-0.001,0.000267189661216513));
#2089=CARTESIAN_POINT('',(-0.0309560515608295,-0.000488811366893281,0.000251661976863554));
#2090=CARTESIAN_POINT('',(-0.0304956242509956,-7.43680889249646E-5,1.71829032665823E-18));
#2091=CARTESIAN_POINT('',(-0.0299843102693558,-0.000101316701949485,1.81281182955797E-19));
#2092=CARTESIAN_POINT('',(-0.0299843102693558,0.0384,0.002));
#2093=CARTESIAN_POINT('',(-0.0309829935674063,0.0384,0.000267189661216511));
#2094=CARTESIAN_POINT('',(-0.0299843102693558,0.0375013167019495,0.));
#2095=CARTESIAN_POINT('',(-0.0304954531715393,0.037474377105604,-1.53649487908618E-18));
#2096=CARTESIAN_POINT('',(-0.0309560526217846,0.0378888314971002,0.000251662588331569));
#2097=CARTESIAN_POINT('',(-0.0309829935674063,0.0384,0.000267189661216512));
#2098=CARTESIAN_POINT('',(0.0240156897306442,-0.0162,0.002));
#2099=CARTESIAN_POINT('',(0.0230170064325937,-0.0274,0.000267189661216511));
#2100=CARTESIAN_POINT('',(0.0230439484391705,-0.0268888113668933,0.000251661976863552));
#2101=CARTESIAN_POINT('',(0.0235043757490044,-0.026474368088925,1.33903586323739E-19));
#2102=CARTESIAN_POINT('',(0.0240156897306442,-0.0265013167019495,1.33903586323739E-19));
#2103=CARTESIAN_POINT('',(0.0230170064325937,-0.0274,0.00026718966121651));
#2104=CARTESIAN_POINT('',(0.0240156897306442,-0.0274,0.002));
#2105=CARTESIAN_POINT('',(-0.0299843102693558,0.0384,0.002));
#2106=CARTESIAN_POINT('',(-0.0309829935674063,0.0384,0.000267189661216512));
#2107=CARTESIAN_POINT('',(-0.0309970890002033,0.0386674420334665,0.00027531338543382));
#2108=CARTESIAN_POINT('',(-0.0307877921197304,0.03920330294036,0.000284832128009849));
#2109=CARTESIAN_POINT('',(-0.0302517526970289,0.039412778751624,0.000275313397408099));
#2110=CARTESIAN_POINT('',(-0.0299843102693558,0.0393986832980505,0.000267189661216512));
#2111=CARTESIAN_POINT('',(-0.0299843102693558,0.0393986832980505,0.000267189661216513));
#2112=CARTESIAN_POINT('',(-0.0299843102693558,0.0384,0.002));
#2113=CARTESIAN_POINT('',(0.0240156897306442,-0.0274,0.002));
#2114=CARTESIAN_POINT('',(0.0240156897306442,-0.0283986832980505,0.00026718966121651));
#2115=CARTESIAN_POINT('',(0.0237482476971777,-0.0284127787308475,0.000275313385433818));
#2116=CARTESIAN_POINT('',(0.0232123867902842,-0.0282034818503747,0.000284832128009846));
#2117=CARTESIAN_POINT('',(0.0230029109790202,-0.0276674424276731,0.000275313397408096));
#2118=CARTESIAN_POINT('',(0.0230170064325937,-0.0274,0.00026718966121651));
#2119=CARTESIAN_POINT('',(0.0240156897306442,-0.0283986832980505,0.000267189661216511));
#2120=CARTESIAN_POINT('',(0.0240156897306442,-0.0274,0.002));
#2121=CARTESIAN_POINT('',(0.0957156897306442,0.0384,0.002));
#2122=CARTESIAN_POINT('',(0.220517006432593,0.0384,0.));
#2123=CARTESIAN_POINT('',(0.220490066836248,0.0389111429021837,0.));
#2124=CARTESIAN_POINT('',(0.220904521227745,0.0393717423524291,0.000251662588331724));
#2125=CARTESIAN_POINT('',(0.221415689730644,0.0393986832980505,0.000267189661216516));
#2126=CARTESIAN_POINT('',(0.221415689730644,0.0393986832980505,0.000267189661216516));
#2127=CARTESIAN_POINT('',(-0.0299843102693558,0.0393986832980505,0.000267189661216513));
#2128=CARTESIAN_POINT('',(-0.0294731216362491,0.0393717412914737,0.000251661976863553));
#2129=CARTESIAN_POINT('',(-0.0290586783582808,0.0389113139816398,-1.00523099454264E-20));
#2130=CARTESIAN_POINT('',(-0.0290856269713053,0.0384,-1.00523099454264E-20));
#2131=CARTESIAN_POINT('',(0.221415689730644,0.0384,0.002));
#2132=CARTESIAN_POINT('',(0.0957156897306442,-0.0274,0.002));
#2133=CARTESIAN_POINT('',(0.167415689730644,-0.0283986492902265,0.000267170061682286));
#2134=CARTESIAN_POINT('',(0.166904743228366,-0.02837137376381,0.000251450870494506));
#2135=CARTESIAN_POINT('',(0.166490710439032,-0.027911096004103,3.15979281868272E-20));
#2136=CARTESIAN_POINT('',(0.166517647563632,-0.0274,3.15979281868272E-20));
#2137=CARTESIAN_POINT('',(0.167415689730644,-0.0283986492902265,0.000267170061682286));
#2138=CARTESIAN_POINT('',(0.167415689730644,-0.0274,0.002));
#2139=CARTESIAN_POINT('',(0.0249143730286948,-0.0274,0.));
#2140=CARTESIAN_POINT('',(0.0249413126250402,-0.0279111429021835,0.));
#2141=CARTESIAN_POINT('',(0.024526858233544,-0.0283717423524288,0.000251662588331569));
#2142=CARTESIAN_POINT('',(0.0240156897306442,-0.0283986832980505,0.00026718966121651));
#2143=CARTESIAN_POINT('',(0.221415689730644,0.0384,0.002));
#2144=CARTESIAN_POINT('',(0.221415689730645,0.0393986832980505,0.000267189661216528));
#2145=CARTESIAN_POINT('',(0.221683131764111,0.0394127787308474,0.000275313385433751));
#2146=CARTESIAN_POINT('',(0.222218992671004,0.0392034818503744,0.000284832128009609));
#2147=CARTESIAN_POINT('',(0.222428468482268,0.038667442427673,0.0002753133974078));
#2148=CARTESIAN_POINT('',(0.222414373028694,0.0383999999999999,0.000267189661216219));
#2149=CARTESIAN_POINT('',(0.222414373028695,0.0384,0.000267189661216504));
#2150=CARTESIAN_POINT('',(0.221415689730644,0.0384,0.002));
#2151=CARTESIAN_POINT('',(0.167415689730644,-0.0274,0.002));
#2152=CARTESIAN_POINT('',(0.168415014159733,-0.0274,0.000267559327011193));
#2153=CARTESIAN_POINT('',(0.168429115401484,-0.0276675522506208,0.000275693351790266));
#2154=CARTESIAN_POINT('',(0.168219617371494,-0.0282036357281421,0.000285136627134126));
#2155=CARTESIAN_POINT('',(0.167683229719183,-0.028412931204267,0.000275400888611274));
#2156=CARTESIAN_POINT('',(0.167415689730644,-0.0283986492902264,0.000267170061682272));
#2157=CARTESIAN_POINT('',(0.168415014159733,-0.0274,0.000267559327011013));
#2158=CARTESIAN_POINT('',(0.167415689730644,-0.0274,0.002));
#2159=CARTESIAN_POINT('',(0.221415689730644,0.0055,0.002));
#2160=CARTESIAN_POINT('',(0.222414373028695,0.0384,0.000267189661216504));
#2161=CARTESIAN_POINT('',(0.222387431022118,0.0378888113668932,0.00025166197686355));
#2162=CARTESIAN_POINT('',(0.221927003712284,0.0374743680889253,1.67791521753475E-19));
#2163=CARTESIAN_POINT('',(0.221415689730644,0.0375013167019495,1.67791521753475E-19));
#2164=CARTESIAN_POINT('',(0.221415689730644,-0.001,0.002));
#2165=CARTESIAN_POINT('',(0.222414373028695,-0.001,0.000267189661216512));
#2166=CARTESIAN_POINT('',(0.221415689730645,-0.000101316701949478,0.));
#2167=CARTESIAN_POINT('',(0.221926832632828,-7.43771056042817E-5,0.));
#2168=CARTESIAN_POINT('',(0.222387432083073,-0.00048883149710013,0.000251662588331575));
#2169=CARTESIAN_POINT('',(0.222414373028695,-0.001,0.000267189661216512));
#2170=CARTESIAN_POINT('',(0.167415689730644,0.0055,0.002));
#2171=CARTESIAN_POINT('',(0.167415689730644,-0.0265013507097735,0.));
#2172=CARTESIAN_POINT('',(0.167927055243523,-0.0264740528155854,0.));
#2173=CARTESIAN_POINT('',(0.168388060391367,-0.0268885882026298,0.000252011574291818));
#2174=CARTESIAN_POINT('',(0.168415014159733,-0.0274,0.000267559327011021));
#2175=CARTESIAN_POINT('',(0.167415689730644,-0.001,0.002));
#2176=CARTESIAN_POINT('',(0.221415689730644,-0.001,0.002));
#2177=CARTESIAN_POINT('',(0.222414373028694,-0.000999999999999952,0.000267189661216219));
#2178=CARTESIAN_POINT('',(0.222428468461492,-0.00126744203346645,0.000275313385433521));
#2179=CARTESIAN_POINT('',(0.222219171581019,-0.0018033029403597,0.000284832128009608));
#2180=CARTESIAN_POINT('',(0.221683132158318,-0.00201277875162391,0.000275313397408028));
#2181=CARTESIAN_POINT('',(0.221415689730645,-0.00199868329805054,0.000267189661216527));
#2182=CARTESIAN_POINT('',(0.221415689730644,-0.00199868329805052,0.000267189661216514));
#2183=CARTESIAN_POINT('',(0.221415689730644,-0.001,0.002));
#2184=CARTESIAN_POINT('',(0.196415689730644,-0.001,0.002));
#2185=CARTESIAN_POINT('',(0.221415689730644,-0.00199868329805052,0.000267189661216515));
#2186=CARTESIAN_POINT('',(0.220904501097538,-0.00197174129147402,0.000251661976863706));
#2187=CARTESIAN_POINT('',(0.220490057819569,-0.00151131398163993,-5.75457120715017E-20));
#2188=CARTESIAN_POINT('',(0.220517006432593,-0.001,-5.75457120715017E-20));
#2189=CARTESIAN_POINT('',(0.221465689730644,-0.00105,-0.0175));
#2190=CARTESIAN_POINT('',(0.167466330861682,-0.02745,-0.0175));
#2191=CARTESIAN_POINT('',(0.221465689730644,0.03845,-0.0175));
#2192=CARTESIAN_POINT('',(0.0239656897306442,-0.02745,-0.0175));
#2193=CARTESIAN_POINT('',(-0.0300343102693558,0.03845,-0.0175));
#2194=CARTESIAN_POINT('',(-0.0300343102693558,-0.00105,-0.0175));
#2195=MECHANICAL_DESIGN_GEOMETRIC_PRESENTATION_REPRESENTATION('',(#1233),
#2196);
#2196=(
GEOMETRIC_REPRESENTATION_CONTEXT(3)
GLOBAL_UNCERTAINTY_ASSIGNED_CONTEXT((#2197))
GLOBAL_UNIT_ASSIGNED_CONTEXT((#2200,#2199,#2198))
REPRESENTATION_CONTEXT('Part 1','TOP_LEVEL_ASSEMBLY_PART')
);
#2197=UNCERTAINTY_MEASURE_WITH_UNIT(LENGTH_MEASURE(2.E-5),#2200,
'DISTANCE_ACCURACY_VALUE','Maximum Tolerance applied to model');
#2198=(
NAMED_UNIT(*)
SI_UNIT($,.STERADIAN.)
SOLID_ANGLE_UNIT()
);
#2199=(
NAMED_UNIT(*)
PLANE_ANGLE_UNIT()
SI_UNIT($,.RADIAN.)
);
#2200=(
LENGTH_UNIT()
NAMED_UNIT(*)
SI_UNIT($,.METRE.)
);
#2201=PRODUCT_DEFINITION_SHAPE('','',#2202);
#2202=PRODUCT_DEFINITION('','',#2204,#2203);
#2203=PRODUCT_DEFINITION_CONTEXT('',#2210,'design');
#2204=PRODUCT_DEFINITION_FORMATION_WITH_SPECIFIED_SOURCE('','',#2206,
 .NOT_KNOWN.);
#2205=PRODUCT_RELATED_PRODUCT_CATEGORY('','',(#2206));
#2206=PRODUCT('Part 1','Part 1','Part 1',(#2208));
#2207=PRODUCT_CATEGORY('','');
#2208=PRODUCT_CONTEXT('',#2210,'mechanical');
#2209=APPLICATION_PROTOCOL_DEFINITION('international standard',
'ap242_managed_model_based_3d_engineering',2020,#2210);
#2210=APPLICATION_CONTEXT('managed model based 3d engineering');
ENDSEC;
END-ISO-10303-21;
